ISO-10303-21;
HEADER;
/* Generated by software containing ST-Developer
 * from STEP Tools, Inc. (www.steptools.com) 
 */

FILE_DESCRIPTION(
/* description */ (''),
/* implementation_level */ '2;1');

FILE_NAME(
/* name */ 'Bottom.step',
/* time_stamp */ '2026-08-08T13:15:03-04:00',
/* author */ (''),
/* organization */ (''),
/* preprocessor_version */ 'ST-DEVELOPER v20.1',
/* originating_system */ 'Autodesk Translation Framework v15.8.0.0',
/* authorisation */ '');

FILE_SCHEMA (('AUTOMOTIVE_DESIGN { 1 0 10303 214 3 1 1 }'));
ENDSEC;

DATA;
#10=MECHANICAL_DESIGN_GEOMETRIC_PRESENTATION_REPRESENTATION('',(#13),#815);
#11=SHAPE_REPRESENTATION_RELATIONSHIP('SRR','None',#822,#12);
#12=ADVANCED_BREP_SHAPE_REPRESENTATION('',(#14),#814);
#13=STYLED_ITEM('',(#831),#14);
#14=MANIFOLD_SOLID_BREP('Body2',#487);
#15=FACE_BOUND('',#84,.T.);
#16=FACE_BOUND('',#85,.T.);
#17=FACE_BOUND('',#86,.T.);
#18=FACE_BOUND('',#87,.T.);
#19=FACE_BOUND('',#88,.T.);
#20=FACE_BOUND('',#92,.T.);
#21=FACE_BOUND('',#95,.T.);
#22=FACE_BOUND('',#96,.T.);
#23=FACE_BOUND('',#97,.T.);
#24=FACE_BOUND('',#98,.T.);
#25=PLANE('',#517);
#26=PLANE('',#522);
#27=PLANE('',#526);
#28=PLANE('',#530);
#29=PLANE('',#531);
#30=PLANE('',#532);
#31=PLANE('',#533);
#32=PLANE('',#534);
#33=PLANE('',#535);
#34=PLANE('',#536);
#35=PLANE('',#537);
#36=PLANE('',#538);
#37=PLANE('',#539);
#38=PLANE('',#540);
#39=PLANE('',#541);
#40=PLANE('',#542);
#41=FACE_OUTER_BOUND('',#65,.T.);
#42=FACE_OUTER_BOUND('',#66,.T.);
#43=FACE_OUTER_BOUND('',#67,.T.);
#44=FACE_OUTER_BOUND('',#68,.T.);
#45=FACE_OUTER_BOUND('',#69,.T.);
#46=FACE_OUTER_BOUND('',#70,.T.);
#47=FACE_OUTER_BOUND('',#71,.T.);
#48=FACE_OUTER_BOUND('',#72,.T.);
#49=FACE_OUTER_BOUND('',#73,.T.);
#50=FACE_OUTER_BOUND('',#74,.T.);
#51=FACE_OUTER_BOUND('',#75,.T.);
#52=FACE_OUTER_BOUND('',#76,.T.);
#53=FACE_OUTER_BOUND('',#77,.T.);
#54=FACE_OUTER_BOUND('',#78,.T.);
#55=FACE_OUTER_BOUND('',#79,.T.);
#56=FACE_OUTER_BOUND('',#80,.T.);
#57=FACE_OUTER_BOUND('',#81,.T.);
#58=FACE_OUTER_BOUND('',#82,.T.);
#59=FACE_OUTER_BOUND('',#83,.T.);
#60=FACE_OUTER_BOUND('',#89,.T.);
#61=FACE_OUTER_BOUND('',#90,.T.);
#62=FACE_OUTER_BOUND('',#91,.T.);
#63=FACE_OUTER_BOUND('',#93,.T.);
#64=FACE_OUTER_BOUND('',#94,.T.);
#65=EDGE_LOOP('',(#323,#324,#325,#326));
#66=EDGE_LOOP('',(#327,#328,#329,#330));
#67=EDGE_LOOP('',(#331,#332,#333,#334));
#68=EDGE_LOOP('',(#335,#336,#337,#338));
#69=EDGE_LOOP('',(#339,#340,#341,#342,#343,#344));
#70=EDGE_LOOP('',(#345,#346,#347,#348));
#71=EDGE_LOOP('',(#349,#350,#351,#352,#353,#354));
#72=EDGE_LOOP('',(#355,#356,#357,#358));
#73=EDGE_LOOP('',(#359,#360,#361,#362));
#74=EDGE_LOOP('',(#363,#364,#365,#366));
#75=EDGE_LOOP('',(#367,#368,#369,#370));
#76=EDGE_LOOP('',(#371,#372,#373,#374));
#77=EDGE_LOOP('',(#375,#376,#377,#378));
#78=EDGE_LOOP('',(#379,#380,#381,#382,#383,#384,#385,#386));
#79=EDGE_LOOP('',(#387,#388,#389,#390));
#80=EDGE_LOOP('',(#391,#392,#393,#394));
#81=EDGE_LOOP('',(#395,#396,#397,#398,#399,#400,#401,#402,#403,#404,#405,
#406));
#82=EDGE_LOOP('',(#407,#408,#409,#410));
#83=EDGE_LOOP('',(#411,#412,#413,#414));
#84=EDGE_LOOP('',(#415,#416,#417,#418));
#85=EDGE_LOOP('',(#419));
#86=EDGE_LOOP('',(#420));
#87=EDGE_LOOP('',(#421));
#88=EDGE_LOOP('',(#422));
#89=EDGE_LOOP('',(#423,#424,#425,#426));
#90=EDGE_LOOP('',(#427,#428,#429,#430));
#91=EDGE_LOOP('',(#431,#432,#433,#434));
#92=EDGE_LOOP('',(#435,#436,#437,#438,#439,#440,#441,#442));
#93=EDGE_LOOP('',(#443,#444,#445,#446));
#94=EDGE_LOOP('',(#447,#448,#449,#450));
#95=EDGE_LOOP('',(#451));
#96=EDGE_LOOP('',(#452));
#97=EDGE_LOOP('',(#453));
#98=EDGE_LOOP('',(#454));
#99=LINE('',#682,#147);
#100=LINE('',#688,#148);
#101=LINE('',#694,#149);
#102=LINE('',#700,#150);
#103=LINE('',#707,#151);
#104=LINE('',#711,#152);
#105=LINE('',#714,#153);
#106=LINE('',#717,#154);
#107=LINE('',#719,#155);
#108=LINE('',#723,#156);
#109=LINE('',#725,#157);
#110=LINE('',#729,#158);
#111=LINE('',#733,#159);
#112=LINE('',#735,#160);
#113=LINE('',#736,#161);
#114=LINE('',#742,#162);
#115=LINE('',#745,#163);
#116=LINE('',#747,#164);
#117=LINE('',#748,#165);
#118=LINE('',#754,#166);
#119=LINE('',#756,#167);
#120=LINE('',#757,#168);
#121=LINE('',#759,#169);
#122=LINE('',#762,#170);
#123=LINE('',#764,#171);
#124=LINE('',#766,#172);
#125=LINE('',#768,#173);
#126=LINE('',#769,#174);
#127=LINE('',#772,#175);
#128=LINE('',#774,#176);
#129=LINE('',#775,#177);
#130=LINE('',#778,#178);
#131=LINE('',#779,#179);
#132=LINE('',#782,#180);
#133=LINE('',#783,#181);
#134=LINE('',#785,#182);
#135=LINE('',#789,#183);
#136=LINE('',#791,#184);
#137=LINE('',#793,#185);
#138=LINE('',#794,#186);
#139=LINE('',#798,#187);
#140=LINE('',#799,#188);
#141=LINE('',#800,#189);
#142=LINE('',#803,#190);
#143=LINE('',#804,#191);
#144=LINE('',#807,#192);
#145=LINE('',#808,#193);
#146=LINE('',#810,#194);
#147=VECTOR('',#549,1.45);
#148=VECTOR('',#556,1.45);
#149=VECTOR('',#563,1.45);
#150=VECTOR('',#570,1.45);
#151=VECTOR('',#577,10.);
#152=VECTOR('',#580,10.);
#153=VECTOR('',#583,10.);
#154=VECTOR('',#586,10.);
#155=VECTOR('',#587,10.);
#156=VECTOR('',#592,10.);
#157=VECTOR('',#593,10.);
#158=VECTOR('',#596,10.);
#159=VECTOR('',#601,10.);
#160=VECTOR('',#602,10.);
#161=VECTOR('',#603,10.);
#162=VECTOR('',#610,10.);
#163=VECTOR('',#613,10.);
#164=VECTOR('',#614,10.);
#165=VECTOR('',#615,10.);
#166=VECTOR('',#622,10.);
#167=VECTOR('',#625,10.);
#168=VECTOR('',#626,10.);
#169=VECTOR('',#629,10.);
#170=VECTOR('',#632,10.);
#171=VECTOR('',#633,10.);
#172=VECTOR('',#634,10.);
#173=VECTOR('',#635,10.);
#174=VECTOR('',#636,10.);
#175=VECTOR('',#639,10.);
#176=VECTOR('',#640,10.);
#177=VECTOR('',#641,10.);
#178=VECTOR('',#644,10.);
#179=VECTOR('',#645,10.);
#180=VECTOR('',#648,10.);
#181=VECTOR('',#649,10.);
#182=VECTOR('',#652,10.);
#183=VECTOR('',#655,10.);
#184=VECTOR('',#656,10.);
#185=VECTOR('',#657,10.);
#186=VECTOR('',#658,10.);
#187=VECTOR('',#661,10.);
#188=VECTOR('',#662,10.);
#189=VECTOR('',#663,10.);
#190=VECTOR('',#666,10.);
#191=VECTOR('',#667,10.);
#192=VECTOR('',#670,10.);
#193=VECTOR('',#671,10.);
#194=VECTOR('',#674,10.);
#195=CIRCLE('',#502,1.45);
#196=CIRCLE('',#503,1.45);
#197=CIRCLE('',#505,1.45);
#198=CIRCLE('',#506,1.45);
#199=CIRCLE('',#508,1.45);
#200=CIRCLE('',#509,1.45);
#201=CIRCLE('',#511,1.45);
#202=CIRCLE('',#512,1.45);
#203=CIRCLE('',#514,0.699999999999998);
#204=CIRCLE('',#515,0.699999999999998);
#205=CIRCLE('',#516,0.699999999999998);
#206=CIRCLE('',#518,0.699999999999997);
#207=CIRCLE('',#520,0.699999999999997);
#208=CIRCLE('',#521,0.699999999999997);
#209=CIRCLE('',#524,0.699999999999998);
#210=CIRCLE('',#525,0.699999999999998);
#211=CIRCLE('',#528,0.699999999999997);
#212=CIRCLE('',#529,0.699999999999997);
#213=VERTEX_POINT('',#679);
#214=VERTEX_POINT('',#681);
#215=VERTEX_POINT('',#685);
#216=VERTEX_POINT('',#687);
#217=VERTEX_POINT('',#691);
#218=VERTEX_POINT('',#693);
#219=VERTEX_POINT('',#697);
#220=VERTEX_POINT('',#699);
#221=VERTEX_POINT('',#703);
#222=VERTEX_POINT('',#704);
#223=VERTEX_POINT('',#706);
#224=VERTEX_POINT('',#708);
#225=VERTEX_POINT('',#710);
#226=VERTEX_POINT('',#712);
#227=VERTEX_POINT('',#716);
#228=VERTEX_POINT('',#718);
#229=VERTEX_POINT('',#722);
#230=VERTEX_POINT('',#724);
#231=VERTEX_POINT('',#726);
#232=VERTEX_POINT('',#728);
#233=VERTEX_POINT('',#732);
#234=VERTEX_POINT('',#734);
#235=VERTEX_POINT('',#738);
#236=VERTEX_POINT('',#740);
#237=VERTEX_POINT('',#744);
#238=VERTEX_POINT('',#746);
#239=VERTEX_POINT('',#750);
#240=VERTEX_POINT('',#752);
#241=VERTEX_POINT('',#761);
#242=VERTEX_POINT('',#763);
#243=VERTEX_POINT('',#765);
#244=VERTEX_POINT('',#767);
#245=VERTEX_POINT('',#771);
#246=VERTEX_POINT('',#773);
#247=VERTEX_POINT('',#777);
#248=VERTEX_POINT('',#781);
#249=VERTEX_POINT('',#787);
#250=VERTEX_POINT('',#788);
#251=VERTEX_POINT('',#790);
#252=VERTEX_POINT('',#792);
#253=VERTEX_POINT('',#796);
#254=VERTEX_POINT('',#797);
#255=VERTEX_POINT('',#802);
#256=VERTEX_POINT('',#806);
#257=EDGE_CURVE('',#213,#213,#195,.T.);
#258=EDGE_CURVE('',#213,#214,#99,.T.);
#259=EDGE_CURVE('',#214,#214,#196,.T.);
#260=EDGE_CURVE('',#215,#215,#197,.T.);
#261=EDGE_CURVE('',#215,#216,#100,.T.);
#262=EDGE_CURVE('',#216,#216,#198,.T.);
#263=EDGE_CURVE('',#217,#217,#199,.T.);
#264=EDGE_CURVE('',#217,#218,#101,.T.);
#265=EDGE_CURVE('',#218,#218,#200,.T.);
#266=EDGE_CURVE('',#219,#219,#201,.T.);
#267=EDGE_CURVE('',#219,#220,#102,.T.);
#268=EDGE_CURVE('',#220,#220,#202,.T.);
#269=EDGE_CURVE('',#221,#222,#203,.T.);
#270=EDGE_CURVE('',#223,#221,#103,.T.);
#271=EDGE_CURVE('',#224,#223,#204,.T.);
#272=EDGE_CURVE('',#224,#225,#104,.T.);
#273=EDGE_CURVE('',#225,#226,#205,.T.);
#274=EDGE_CURVE('',#222,#226,#105,.T.);
#275=EDGE_CURVE('',#226,#227,#106,.T.);
#276=EDGE_CURVE('',#228,#225,#107,.T.);
#277=EDGE_CURVE('',#227,#228,#206,.T.);
#278=EDGE_CURVE('',#227,#229,#108,.T.);
#279=EDGE_CURVE('',#230,#228,#109,.T.);
#280=EDGE_CURVE('',#231,#230,#207,.T.);
#281=EDGE_CURVE('',#231,#232,#110,.T.);
#282=EDGE_CURVE('',#229,#232,#208,.T.);
#283=EDGE_CURVE('',#232,#233,#111,.T.);
#284=EDGE_CURVE('',#234,#231,#112,.T.);
#285=EDGE_CURVE('',#234,#233,#113,.T.);
#286=EDGE_CURVE('',#233,#235,#209,.T.);
#287=EDGE_CURVE('',#236,#234,#210,.T.);
#288=EDGE_CURVE('',#236,#235,#114,.T.);
#289=EDGE_CURVE('',#235,#237,#115,.T.);
#290=EDGE_CURVE('',#238,#236,#116,.T.);
#291=EDGE_CURVE('',#238,#237,#117,.T.);
#292=EDGE_CURVE('',#237,#239,#211,.T.);
#293=EDGE_CURVE('',#240,#238,#212,.T.);
#294=EDGE_CURVE('',#240,#239,#118,.T.);
#295=EDGE_CURVE('',#239,#221,#119,.T.);
#296=EDGE_CURVE('',#223,#240,#120,.T.);
#297=EDGE_CURVE('',#230,#224,#121,.T.);
#298=EDGE_CURVE('',#229,#241,#122,.T.);
#299=EDGE_CURVE('',#241,#242,#123,.T.);
#300=EDGE_CURVE('',#242,#243,#124,.T.);
#301=EDGE_CURVE('',#243,#244,#125,.T.);
#302=EDGE_CURVE('',#244,#222,#126,.T.);
#303=EDGE_CURVE('',#243,#245,#127,.T.);
#304=EDGE_CURVE('',#246,#245,#128,.T.);
#305=EDGE_CURVE('',#244,#246,#129,.T.);
#306=EDGE_CURVE('',#242,#247,#130,.T.);
#307=EDGE_CURVE('',#245,#247,#131,.T.);
#308=EDGE_CURVE('',#248,#246,#132,.T.);
#309=EDGE_CURVE('',#241,#248,#133,.T.);
#310=EDGE_CURVE('',#247,#248,#134,.T.);
#311=EDGE_CURVE('',#249,#250,#135,.T.);
#312=EDGE_CURVE('',#250,#251,#136,.T.);
#313=EDGE_CURVE('',#251,#252,#137,.T.);
#314=EDGE_CURVE('',#252,#249,#138,.T.);
#315=EDGE_CURVE('',#253,#254,#139,.T.);
#316=EDGE_CURVE('',#253,#249,#140,.T.);
#317=EDGE_CURVE('',#254,#252,#141,.T.);
#318=EDGE_CURVE('',#254,#255,#142,.T.);
#319=EDGE_CURVE('',#255,#251,#143,.T.);
#320=EDGE_CURVE('',#255,#256,#144,.T.);
#321=EDGE_CURVE('',#256,#250,#145,.T.);
#322=EDGE_CURVE('',#256,#253,#146,.T.);
#323=ORIENTED_EDGE('',*,*,#257,.F.);
#324=ORIENTED_EDGE('',*,*,#258,.T.);
#325=ORIENTED_EDGE('',*,*,#259,.F.);
#326=ORIENTED_EDGE('',*,*,#258,.F.);
#327=ORIENTED_EDGE('',*,*,#260,.F.);
#328=ORIENTED_EDGE('',*,*,#261,.T.);
#329=ORIENTED_EDGE('',*,*,#262,.F.);
#330=ORIENTED_EDGE('',*,*,#261,.F.);
#331=ORIENTED_EDGE('',*,*,#263,.F.);
#332=ORIENTED_EDGE('',*,*,#264,.T.);
#333=ORIENTED_EDGE('',*,*,#265,.F.);
#334=ORIENTED_EDGE('',*,*,#264,.F.);
#335=ORIENTED_EDGE('',*,*,#266,.F.);
#336=ORIENTED_EDGE('',*,*,#267,.T.);
#337=ORIENTED_EDGE('',*,*,#268,.F.);
#338=ORIENTED_EDGE('',*,*,#267,.F.);
#339=ORIENTED_EDGE('',*,*,#269,.F.);
#340=ORIENTED_EDGE('',*,*,#270,.F.);
#341=ORIENTED_EDGE('',*,*,#271,.F.);
#342=ORIENTED_EDGE('',*,*,#272,.T.);
#343=ORIENTED_EDGE('',*,*,#273,.T.);
#344=ORIENTED_EDGE('',*,*,#274,.F.);
#345=ORIENTED_EDGE('',*,*,#275,.F.);
#346=ORIENTED_EDGE('',*,*,#273,.F.);
#347=ORIENTED_EDGE('',*,*,#276,.F.);
#348=ORIENTED_EDGE('',*,*,#277,.F.);
#349=ORIENTED_EDGE('',*,*,#278,.F.);
#350=ORIENTED_EDGE('',*,*,#277,.T.);
#351=ORIENTED_EDGE('',*,*,#279,.F.);
#352=ORIENTED_EDGE('',*,*,#280,.F.);
#353=ORIENTED_EDGE('',*,*,#281,.T.);
#354=ORIENTED_EDGE('',*,*,#282,.F.);
#355=ORIENTED_EDGE('',*,*,#283,.F.);
#356=ORIENTED_EDGE('',*,*,#281,.F.);
#357=ORIENTED_EDGE('',*,*,#284,.F.);
#358=ORIENTED_EDGE('',*,*,#285,.T.);
#359=ORIENTED_EDGE('',*,*,#286,.F.);
#360=ORIENTED_EDGE('',*,*,#285,.F.);
#361=ORIENTED_EDGE('',*,*,#287,.F.);
#362=ORIENTED_EDGE('',*,*,#288,.T.);
#363=ORIENTED_EDGE('',*,*,#289,.F.);
#364=ORIENTED_EDGE('',*,*,#288,.F.);
#365=ORIENTED_EDGE('',*,*,#290,.F.);
#366=ORIENTED_EDGE('',*,*,#291,.T.);
#367=ORIENTED_EDGE('',*,*,#292,.F.);
#368=ORIENTED_EDGE('',*,*,#291,.F.);
#369=ORIENTED_EDGE('',*,*,#293,.F.);
#370=ORIENTED_EDGE('',*,*,#294,.T.);
#371=ORIENTED_EDGE('',*,*,#295,.F.);
#372=ORIENTED_EDGE('',*,*,#294,.F.);
#373=ORIENTED_EDGE('',*,*,#296,.F.);
#374=ORIENTED_EDGE('',*,*,#270,.T.);
#375=ORIENTED_EDGE('',*,*,#297,.F.);
#376=ORIENTED_EDGE('',*,*,#279,.T.);
#377=ORIENTED_EDGE('',*,*,#276,.T.);
#378=ORIENTED_EDGE('',*,*,#272,.F.);
#379=ORIENTED_EDGE('',*,*,#274,.T.);
#380=ORIENTED_EDGE('',*,*,#275,.T.);
#381=ORIENTED_EDGE('',*,*,#278,.T.);
#382=ORIENTED_EDGE('',*,*,#298,.T.);
#383=ORIENTED_EDGE('',*,*,#299,.T.);
#384=ORIENTED_EDGE('',*,*,#300,.T.);
#385=ORIENTED_EDGE('',*,*,#301,.T.);
#386=ORIENTED_EDGE('',*,*,#302,.T.);
#387=ORIENTED_EDGE('',*,*,#301,.F.);
#388=ORIENTED_EDGE('',*,*,#303,.T.);
#389=ORIENTED_EDGE('',*,*,#304,.F.);
#390=ORIENTED_EDGE('',*,*,#305,.F.);
#391=ORIENTED_EDGE('',*,*,#300,.F.);
#392=ORIENTED_EDGE('',*,*,#306,.T.);
#393=ORIENTED_EDGE('',*,*,#307,.F.);
#394=ORIENTED_EDGE('',*,*,#303,.F.);
#395=ORIENTED_EDGE('',*,*,#269,.T.);
#396=ORIENTED_EDGE('',*,*,#302,.F.);
#397=ORIENTED_EDGE('',*,*,#305,.T.);
#398=ORIENTED_EDGE('',*,*,#308,.F.);
#399=ORIENTED_EDGE('',*,*,#309,.F.);
#400=ORIENTED_EDGE('',*,*,#298,.F.);
#401=ORIENTED_EDGE('',*,*,#282,.T.);
#402=ORIENTED_EDGE('',*,*,#283,.T.);
#403=ORIENTED_EDGE('',*,*,#286,.T.);
#404=ORIENTED_EDGE('',*,*,#289,.T.);
#405=ORIENTED_EDGE('',*,*,#292,.T.);
#406=ORIENTED_EDGE('',*,*,#295,.T.);
#407=ORIENTED_EDGE('',*,*,#299,.F.);
#408=ORIENTED_EDGE('',*,*,#309,.T.);
#409=ORIENTED_EDGE('',*,*,#310,.F.);
#410=ORIENTED_EDGE('',*,*,#306,.F.);
#411=ORIENTED_EDGE('',*,*,#311,.T.);
#412=ORIENTED_EDGE('',*,*,#312,.T.);
#413=ORIENTED_EDGE('',*,*,#313,.T.);
#414=ORIENTED_EDGE('',*,*,#314,.T.);
#415=ORIENTED_EDGE('',*,*,#310,.T.);
#416=ORIENTED_EDGE('',*,*,#308,.T.);
#417=ORIENTED_EDGE('',*,*,#304,.T.);
#418=ORIENTED_EDGE('',*,*,#307,.T.);
#419=ORIENTED_EDGE('',*,*,#266,.T.);
#420=ORIENTED_EDGE('',*,*,#263,.T.);
#421=ORIENTED_EDGE('',*,*,#260,.T.);
#422=ORIENTED_EDGE('',*,*,#257,.T.);
#423=ORIENTED_EDGE('',*,*,#315,.F.);
#424=ORIENTED_EDGE('',*,*,#316,.T.);
#425=ORIENTED_EDGE('',*,*,#314,.F.);
#426=ORIENTED_EDGE('',*,*,#317,.F.);
#427=ORIENTED_EDGE('',*,*,#318,.F.);
#428=ORIENTED_EDGE('',*,*,#317,.T.);
#429=ORIENTED_EDGE('',*,*,#313,.F.);
#430=ORIENTED_EDGE('',*,*,#319,.F.);
#431=ORIENTED_EDGE('',*,*,#320,.F.);
#432=ORIENTED_EDGE('',*,*,#319,.T.);
#433=ORIENTED_EDGE('',*,*,#312,.F.);
#434=ORIENTED_EDGE('',*,*,#321,.F.);
#435=ORIENTED_EDGE('',*,*,#284,.T.);
#436=ORIENTED_EDGE('',*,*,#280,.T.);
#437=ORIENTED_EDGE('',*,*,#297,.T.);
#438=ORIENTED_EDGE('',*,*,#271,.T.);
#439=ORIENTED_EDGE('',*,*,#296,.T.);
#440=ORIENTED_EDGE('',*,*,#293,.T.);
#441=ORIENTED_EDGE('',*,*,#290,.T.);
#442=ORIENTED_EDGE('',*,*,#287,.T.);
#443=ORIENTED_EDGE('',*,*,#322,.F.);
#444=ORIENTED_EDGE('',*,*,#321,.T.);
#445=ORIENTED_EDGE('',*,*,#311,.F.);
#446=ORIENTED_EDGE('',*,*,#316,.F.);
#447=ORIENTED_EDGE('',*,*,#322,.T.);
#448=ORIENTED_EDGE('',*,*,#315,.T.);
#449=ORIENTED_EDGE('',*,*,#318,.T.);
#450=ORIENTED_EDGE('',*,*,#320,.T.);
#451=ORIENTED_EDGE('',*,*,#259,.T.);
#452=ORIENTED_EDGE('',*,*,#262,.T.);
#453=ORIENTED_EDGE('',*,*,#265,.T.);
#454=ORIENTED_EDGE('',*,*,#268,.T.);
#455=CYLINDRICAL_SURFACE('',#501,1.45);
#456=CYLINDRICAL_SURFACE('',#504,1.45);
#457=CYLINDRICAL_SURFACE('',#507,1.45);
#458=CYLINDRICAL_SURFACE('',#510,1.45);
#459=CYLINDRICAL_SURFACE('',#513,0.699999999999998);
#460=CYLINDRICAL_SURFACE('',#519,0.699999999999997);
#461=CYLINDRICAL_SURFACE('',#523,0.699999999999998);
#462=CYLINDRICAL_SURFACE('',#527,0.699999999999997);
#463=ADVANCED_FACE('',(#41),#455,.F.);
#464=ADVANCED_FACE('',(#42),#456,.F.);
#465=ADVANCED_FACE('',(#43),#457,.F.);
#466=ADVANCED_FACE('',(#44),#458,.F.);
#467=ADVANCED_FACE('',(#45),#459,.F.);
#468=ADVANCED_FACE('',(#46),#25,.T.);
#469=ADVANCED_FACE('',(#47),#460,.F.);
#470=ADVANCED_FACE('',(#48),#26,.F.);
#471=ADVANCED_FACE('',(#49),#461,.F.);
#472=ADVANCED_FACE('',(#50),#27,.F.);
#473=ADVANCED_FACE('',(#51),#462,.F.);
#474=ADVANCED_FACE('',(#52),#28,.F.);
#475=ADVANCED_FACE('',(#53),#29,.F.);
#476=ADVANCED_FACE('',(#54),#30,.T.);
#477=ADVANCED_FACE('',(#55),#31,.T.);
#478=ADVANCED_FACE('',(#56),#32,.T.);
#479=ADVANCED_FACE('',(#57),#33,.T.);
#480=ADVANCED_FACE('',(#58),#34,.T.);
#481=ADVANCED_FACE('',(#59,#15,#16,#17,#18,#19),#35,.T.);
#482=ADVANCED_FACE('',(#60),#36,.T.);
#483=ADVANCED_FACE('',(#61),#37,.T.);
#484=ADVANCED_FACE('',(#62,#20),#38,.T.);
#485=ADVANCED_FACE('',(#63),#39,.T.);
#486=ADVANCED_FACE('',(#64,#21,#22,#23,#24),#40,.F.);
#487=CLOSED_SHELL('',(#463,#464,#465,#466,#467,#468,#469,#470,#471,#472,
#473,#474,#475,#476,#477,#478,#479,#480,#481,#482,#483,#484,#485,#486));
#488=DERIVED_UNIT_ELEMENT(#490,1.);
#489=DERIVED_UNIT_ELEMENT(#817,-3.);
#490=(
MASS_UNIT()
NAMED_UNIT(*)
SI_UNIT(.KILO.,.GRAM.)
);
#491=DERIVED_UNIT((#488,#489));
#492=MEASURE_REPRESENTATION_ITEM('density measure',
POSITIVE_RATIO_MEASURE(7850.),#491);
#493=PROPERTY_DEFINITION_REPRESENTATION(#498,#495);
#494=PROPERTY_DEFINITION_REPRESENTATION(#499,#496);
#495=REPRESENTATION('material name',(#497),#814);
#496=REPRESENTATION('density',(#492),#814);
#497=DESCRIPTIVE_REPRESENTATION_ITEM('Steel','Steel');
#498=PROPERTY_DEFINITION('material property','material name',#824);
#499=PROPERTY_DEFINITION('material property','density of part',#824);
#500=AXIS2_PLACEMENT_3D('',#677,#543,#544);
#501=AXIS2_PLACEMENT_3D('',#678,#545,#546);
#502=AXIS2_PLACEMENT_3D('',#680,#547,#548);
#503=AXIS2_PLACEMENT_3D('',#683,#550,#551);
#504=AXIS2_PLACEMENT_3D('',#684,#552,#553);
#505=AXIS2_PLACEMENT_3D('',#686,#554,#555);
#506=AXIS2_PLACEMENT_3D('',#689,#557,#558);
#507=AXIS2_PLACEMENT_3D('',#690,#559,#560);
#508=AXIS2_PLACEMENT_3D('',#692,#561,#562);
#509=AXIS2_PLACEMENT_3D('',#695,#564,#565);
#510=AXIS2_PLACEMENT_3D('',#696,#566,#567);
#511=AXIS2_PLACEMENT_3D('',#698,#568,#569);
#512=AXIS2_PLACEMENT_3D('',#701,#571,#572);
#513=AXIS2_PLACEMENT_3D('',#702,#573,#574);
#514=AXIS2_PLACEMENT_3D('',#705,#575,#576);
#515=AXIS2_PLACEMENT_3D('',#709,#578,#579);
#516=AXIS2_PLACEMENT_3D('',#713,#581,#582);
#517=AXIS2_PLACEMENT_3D('',#715,#584,#585);
#518=AXIS2_PLACEMENT_3D('',#720,#588,#589);
#519=AXIS2_PLACEMENT_3D('',#721,#590,#591);
#520=AXIS2_PLACEMENT_3D('',#727,#594,#595);
#521=AXIS2_PLACEMENT_3D('',#730,#597,#598);
#522=AXIS2_PLACEMENT_3D('',#731,#599,#600);
#523=AXIS2_PLACEMENT_3D('',#737,#604,#605);
#524=AXIS2_PLACEMENT_3D('',#739,#606,#607);
#525=AXIS2_PLACEMENT_3D('',#741,#608,#609);
#526=AXIS2_PLACEMENT_3D('',#743,#611,#612);
#527=AXIS2_PLACEMENT_3D('',#749,#616,#617);
#528=AXIS2_PLACEMENT_3D('',#751,#618,#619);
#529=AXIS2_PLACEMENT_3D('',#753,#620,#621);
#530=AXIS2_PLACEMENT_3D('',#755,#623,#624);
#531=AXIS2_PLACEMENT_3D('',#758,#627,#628);
#532=AXIS2_PLACEMENT_3D('',#760,#630,#631);
#533=AXIS2_PLACEMENT_3D('',#770,#637,#638);
#534=AXIS2_PLACEMENT_3D('',#776,#642,#643);
#535=AXIS2_PLACEMENT_3D('',#780,#646,#647);
#536=AXIS2_PLACEMENT_3D('',#784,#650,#651);
#537=AXIS2_PLACEMENT_3D('',#786,#653,#654);
#538=AXIS2_PLACEMENT_3D('',#795,#659,#660);
#539=AXIS2_PLACEMENT_3D('',#801,#664,#665);
#540=AXIS2_PLACEMENT_3D('',#805,#668,#669);
#541=AXIS2_PLACEMENT_3D('',#809,#672,#673);
#542=AXIS2_PLACEMENT_3D('',#811,#675,#676);
#543=DIRECTION('axis',(0.,0.,1.));
#544=DIRECTION('refdir',(1.,0.,0.));
#545=DIRECTION('center_axis',(0.,0.,-1.));
#546=DIRECTION('ref_axis',(-1.,0.,0.));
#547=DIRECTION('center_axis',(0.,0.,-1.));
#548=DIRECTION('ref_axis',(-1.,0.,0.));
#549=DIRECTION('',(0.,0.,-1.));
#550=DIRECTION('center_axis',(0.,0.,1.));
#551=DIRECTION('ref_axis',(-1.,0.,0.));
#552=DIRECTION('center_axis',(0.,0.,-1.));
#553=DIRECTION('ref_axis',(-1.,0.,0.));
#554=DIRECTION('center_axis',(0.,0.,-1.));
#555=DIRECTION('ref_axis',(-1.,0.,0.));
#556=DIRECTION('',(0.,0.,-1.));
#557=DIRECTION('center_axis',(0.,0.,1.));
#558=DIRECTION('ref_axis',(-1.,0.,0.));
#559=DIRECTION('center_axis',(0.,0.,-1.));
#560=DIRECTION('ref_axis',(-1.,0.,0.));
#561=DIRECTION('center_axis',(0.,0.,-1.));
#562=DIRECTION('ref_axis',(-1.,0.,0.));
#563=DIRECTION('',(0.,0.,-1.));
#564=DIRECTION('center_axis',(0.,0.,1.));
#565=DIRECTION('ref_axis',(-1.,0.,0.));
#566=DIRECTION('center_axis',(0.,0.,-1.));
#567=DIRECTION('ref_axis',(-1.,0.,0.));
#568=DIRECTION('center_axis',(0.,0.,-1.));
#569=DIRECTION('ref_axis',(-1.,0.,0.));
#570=DIRECTION('',(0.,0.,-1.));
#571=DIRECTION('center_axis',(0.,0.,1.));
#572=DIRECTION('ref_axis',(-1.,0.,0.));
#573=DIRECTION('center_axis',(1.,0.,0.));
#574=DIRECTION('ref_axis',(0.,1.,0.));
#575=DIRECTION('center_axis',(-1.,0.,0.));
#576=DIRECTION('ref_axis',(0.,1.,0.));
#577=DIRECTION('',(1.,0.,0.));
#578=DIRECTION('center_axis',(1.,-2.42267147981426E-17,0.));
#579=DIRECTION('ref_axis',(0.,1.,0.));
#580=DIRECTION('',(1.,0.,0.));
#581=DIRECTION('center_axis',(1.,0.,0.));
#582=DIRECTION('ref_axis',(0.,1.,0.));
#583=DIRECTION('',(1.,0.,0.));
#584=DIRECTION('center_axis',(-1.,0.,0.));
#585=DIRECTION('ref_axis',(0.,-1.,0.));
#586=DIRECTION('',(0.,-1.,0.));
#587=DIRECTION('',(0.,1.,0.));
#588=DIRECTION('center_axis',(1.,0.,0.));
#589=DIRECTION('ref_axis',(0.,0.,-1.));
#590=DIRECTION('center_axis',(1.,0.,0.));
#591=DIRECTION('ref_axis',(0.,0.,-1.));
#592=DIRECTION('',(-1.,0.,0.));
#593=DIRECTION('',(1.,0.,0.));
#594=DIRECTION('center_axis',(1.,-2.42267147981426E-17,0.));
#595=DIRECTION('ref_axis',(0.,0.,-1.));
#596=DIRECTION('',(1.,0.,0.));
#597=DIRECTION('center_axis',(-1.,0.,0.));
#598=DIRECTION('ref_axis',(0.,0.,-1.));
#599=DIRECTION('center_axis',(0.,-1.,0.));
#600=DIRECTION('ref_axis',(0.,0.,-1.));
#601=DIRECTION('',(0.,0.,1.));
#602=DIRECTION('',(0.,0.,-1.));
#603=DIRECTION('',(1.,0.,0.));
#604=DIRECTION('center_axis',(1.,0.,0.));
#605=DIRECTION('ref_axis',(0.,-1.,0.));
#606=DIRECTION('center_axis',(-1.,0.,0.));
#607=DIRECTION('ref_axis',(0.,-1.,0.));
#608=DIRECTION('center_axis',(1.,-2.42267147981426E-17,0.));
#609=DIRECTION('ref_axis',(0.,-1.,0.));
#610=DIRECTION('',(1.,0.,0.));
#611=DIRECTION('center_axis',(0.,0.,1.));
#612=DIRECTION('ref_axis',(0.,-1.,0.));
#613=DIRECTION('',(0.,1.,0.));
#614=DIRECTION('',(-2.42267147981426E-17,-1.,0.));
#615=DIRECTION('',(1.,0.,0.));
#616=DIRECTION('center_axis',(1.,0.,0.));
#617=DIRECTION('ref_axis',(0.,0.,1.));
#618=DIRECTION('center_axis',(-1.,0.,0.));
#619=DIRECTION('ref_axis',(0.,0.,1.));
#620=DIRECTION('center_axis',(1.,-2.42267147981426E-17,0.));
#621=DIRECTION('ref_axis',(0.,0.,1.));
#622=DIRECTION('',(1.,0.,0.));
#623=DIRECTION('center_axis',(0.,1.,0.));
#624=DIRECTION('ref_axis',(0.,0.,1.));
#625=DIRECTION('',(0.,0.,-1.));
#626=DIRECTION('',(0.,0.,1.));
#627=DIRECTION('center_axis',(0.,0.,-1.));
#628=DIRECTION('ref_axis',(0.,1.,0.));
#629=DIRECTION('',(2.42267147981426E-17,1.,0.));
#630=DIRECTION('center_axis',(0.,0.,1.));
#631=DIRECTION('ref_axis',(1.,0.,0.));
#632=DIRECTION('',(0.,-1.,0.));
#633=DIRECTION('',(1.,5.09869763838714E-17,0.));
#634=DIRECTION('',(0.,1.,0.));
#635=DIRECTION('',(-1.,0.,0.));
#636=DIRECTION('',(0.,-1.,0.));
#637=DIRECTION('center_axis',(0.,-1.,0.));
#638=DIRECTION('ref_axis',(1.,0.,0.));
#639=DIRECTION('',(0.,0.,1.));
#640=DIRECTION('',(1.,0.,0.));
#641=DIRECTION('',(0.,0.,1.));
#642=DIRECTION('center_axis',(-1.,0.,0.));
#643=DIRECTION('ref_axis',(0.,-1.,0.));
#644=DIRECTION('',(0.,0.,1.));
#645=DIRECTION('',(0.,-1.,0.));
#646=DIRECTION('center_axis',(1.,0.,0.));
#647=DIRECTION('ref_axis',(0.,1.,0.));
#648=DIRECTION('',(0.,1.,0.));
#649=DIRECTION('',(0.,0.,1.));
#650=DIRECTION('center_axis',(-5.09869763838714E-17,1.,0.));
#651=DIRECTION('ref_axis',(-1.,-5.09869763838714E-17,0.));
#652=DIRECTION('',(-1.,-5.09869763838714E-17,0.));
#653=DIRECTION('center_axis',(0.,0.,1.));
#654=DIRECTION('ref_axis',(1.,0.,0.));
#655=DIRECTION('',(-1.,0.,0.));
#656=DIRECTION('',(-2.42267147981426E-17,-1.,0.));
#657=DIRECTION('',(1.,0.,0.));
#658=DIRECTION('',(0.,1.,0.));
#659=DIRECTION('center_axis',(1.,0.,0.));
#660=DIRECTION('ref_axis',(0.,1.,0.));
#661=DIRECTION('',(0.,-1.,0.));
#662=DIRECTION('',(0.,0.,1.));
#663=DIRECTION('',(0.,0.,1.));
#664=DIRECTION('center_axis',(0.,-1.,0.));
#665=DIRECTION('ref_axis',(1.,0.,0.));
#666=DIRECTION('',(-1.,0.,0.));
#667=DIRECTION('',(0.,0.,1.));
#668=DIRECTION('center_axis',(-1.,2.42267147981426E-17,0.));
#669=DIRECTION('ref_axis',(-2.42267147981426E-17,-1.,0.));
#670=DIRECTION('',(2.42267147981426E-17,1.,0.));
#671=DIRECTION('',(0.,0.,1.));
#672=DIRECTION('center_axis',(0.,1.,0.));
#673=DIRECTION('ref_axis',(-1.,0.,0.));
#674=DIRECTION('',(1.,0.,0.));
#675=DIRECTION('center_axis',(0.,0.,1.));
#676=DIRECTION('ref_axis',(1.,0.,0.));
#677=CARTESIAN_POINT('',(0.,0.,0.));
#678=CARTESIAN_POINT('Origin',(47.0000007003546,75.0000011175871,16.));
#679=CARTESIAN_POINT('',(48.4500007003546,75.0000011175871,13.));
#680=CARTESIAN_POINT('Origin',(47.0000007003546,75.0000011175871,13.));
#681=CARTESIAN_POINT('',(48.4500007003546,75.0000011175871,0.));
#682=CARTESIAN_POINT('',(48.4500007003546,75.0000011175871,16.));
#683=CARTESIAN_POINT('Origin',(47.0000007003546,75.0000011175871,0.));
#684=CARTESIAN_POINT('Origin',(47.0000007003546,-5.00000007450581,16.));
#685=CARTESIAN_POINT('',(48.4500007003546,-5.00000007450581,13.));
#686=CARTESIAN_POINT('Origin',(47.0000007003546,-5.00000007450581,13.));
#687=CARTESIAN_POINT('',(48.4500007003546,-5.00000007450581,0.));
#688=CARTESIAN_POINT('',(48.4500007003546,-5.00000007450581,16.));
#689=CARTESIAN_POINT('Origin',(47.0000007003546,-5.00000007450581,0.));
#690=CARTESIAN_POINT('Origin',(-5.00000007450581,75.0000011175871,16.));
#691=CARTESIAN_POINT('',(-3.5500000745058,75.0000011175871,13.));
#692=CARTESIAN_POINT('Origin',(-5.00000007450581,75.0000011175871,13.));
#693=CARTESIAN_POINT('',(-3.5500000745058,75.0000011175871,0.));
#694=CARTESIAN_POINT('',(-3.5500000745058,75.0000011175871,16.));
#695=CARTESIAN_POINT('Origin',(-5.00000007450581,75.0000011175871,0.));
#696=CARTESIAN_POINT('Origin',(-5.00000007450581,-5.00000007450581,16.));
#697=CARTESIAN_POINT('',(-3.55000007450581,-5.00000007450581,13.));
#698=CARTESIAN_POINT('Origin',(-5.00000007450581,-5.00000007450581,13.));
#699=CARTESIAN_POINT('',(-3.55000007450581,-5.00000007450581,0.));
#700=CARTESIAN_POINT('',(-3.55000007450581,-5.00000007450581,16.));
#701=CARTESIAN_POINT('Origin',(-5.00000007450581,-5.00000007450581,0.));
#702=CARTESIAN_POINT('Origin',(-10.6066017177982,38.846190158901,3.66335034984391));
#703=CARTESIAN_POINT('',(-0.608111831820425,39.546190158901,3.66335034984391));
#704=CARTESIAN_POINT('',(-0.608111831820426,39.0697216183468,3.));
#705=CARTESIAN_POINT('Origin',(-0.608111831820425,38.846190158901,3.66335034984391));
#706=CARTESIAN_POINT('',(-10.6066017177982,39.546190158901,3.66335034984391));
#707=CARTESIAN_POINT('',(-10.6066017177982,39.546190158901,3.66335034984391));
#708=CARTESIAN_POINT('',(-10.6066017177982,38.846190158901,2.96335034984391));
#709=CARTESIAN_POINT('Origin',(-10.6066017177982,38.846190158901,3.66335034984391));
#710=CARTESIAN_POINT('',(-0.60660171779821,38.846190158901,2.96335034984391));
#711=CARTESIAN_POINT('',(-10.6066017177982,38.846190158901,2.96335034984391));
#712=CARTESIAN_POINT('',(-0.60660171779821,39.0697216183468,3.));
#713=CARTESIAN_POINT('Origin',(-0.60660171779821,38.846190158901,3.66335034984391));
#714=CARTESIAN_POINT('',(-10.6066017177982,39.0697216183468,3.));
#715=CARTESIAN_POINT('Origin',(-0.60660171779821,35.546190158901,4.46335034984391));
#716=CARTESIAN_POINT('',(-0.60660171779821,32.0226586994552,3.));
#717=CARTESIAN_POINT('',(-0.60660171779821,35.3829921897262,3.));
#718=CARTESIAN_POINT('',(-0.60660171779821,32.246190158901,2.96335034984391));
#719=CARTESIAN_POINT('',(-0.60660171779821,32.246190158901,2.96335034984391));
#720=CARTESIAN_POINT('Origin',(-0.60660171779821,32.246190158901,3.66335034984391));
#721=CARTESIAN_POINT('Origin',(-10.6066017177982,32.246190158901,3.66335034984391));
#722=CARTESIAN_POINT('',(-0.608111831820426,32.0226586994552,3.));
#723=CARTESIAN_POINT('',(-10.6066017177982,32.0226586994552,3.));
#724=CARTESIAN_POINT('',(-10.6066017177982,32.246190158901,2.96335034984391));
#725=CARTESIAN_POINT('',(-10.6066017177982,32.246190158901,2.96335034984391));
#726=CARTESIAN_POINT('',(-10.6066017177982,31.546190158901,3.66335034984391));
#727=CARTESIAN_POINT('Origin',(-10.6066017177982,32.246190158901,3.66335034984391));
#728=CARTESIAN_POINT('',(-0.608111831820425,31.546190158901,3.66335034984391));
#729=CARTESIAN_POINT('',(-10.6066017177982,31.546190158901,3.66335034984391));
#730=CARTESIAN_POINT('Origin',(-0.608111831820425,32.246190158901,3.66335034984391));
#731=CARTESIAN_POINT('Origin',(-10.6066017177982,31.546190158901,5.26335034984392));
#732=CARTESIAN_POINT('',(-0.608111831820425,31.546190158901,5.26335034984392));
#733=CARTESIAN_POINT('',(-0.608111831820425,31.546190158901,2.63167517492196));
#734=CARTESIAN_POINT('',(-10.6066017177982,31.546190158901,5.26335034984392));
#735=CARTESIAN_POINT('',(-10.6066017177982,31.546190158901,2.63167517492196));
#736=CARTESIAN_POINT('',(-10.6066017177982,31.546190158901,5.26335034984392));
#737=CARTESIAN_POINT('Origin',(-10.6066017177982,32.246190158901,5.26335034984392));
#738=CARTESIAN_POINT('',(-0.608111831820425,32.246190158901,5.96335034984392));
#739=CARTESIAN_POINT('Origin',(-0.608111831820425,32.246190158901,5.26335034984392));
#740=CARTESIAN_POINT('',(-10.6066017177982,32.246190158901,5.96335034984392));
#741=CARTESIAN_POINT('Origin',(-10.6066017177982,32.246190158901,5.26335034984392));
#742=CARTESIAN_POINT('',(-10.6066017177982,32.246190158901,5.96335034984392));
#743=CARTESIAN_POINT('Origin',(-10.6066017177982,38.846190158901,5.96335034984392));
#744=CARTESIAN_POINT('',(-0.608111831820425,38.846190158901,5.96335034984392));
#745=CARTESIAN_POINT('',(-0.608111831820425,19.1190391635403,5.96335034984392));
#746=CARTESIAN_POINT('',(-10.6066017177982,38.846190158901,5.96335034984392));
#747=CARTESIAN_POINT('',(-10.6066017177982,59.946190158901,5.96335034984392));
#748=CARTESIAN_POINT('',(-10.6066017177982,38.846190158901,5.96335034984392));
#749=CARTESIAN_POINT('Origin',(-10.6066017177982,38.846190158901,5.26335034984392));
#750=CARTESIAN_POINT('',(-0.608111831820425,39.546190158901,5.26335034984392));
#751=CARTESIAN_POINT('Origin',(-0.608111831820425,38.846190158901,5.26335034984392));
#752=CARTESIAN_POINT('',(-10.6066017177982,39.546190158901,5.26335034984392));
#753=CARTESIAN_POINT('Origin',(-10.6066017177982,38.846190158901,5.26335034984392));
#754=CARTESIAN_POINT('',(-10.6066017177982,39.546190158901,5.26335034984392));
#755=CARTESIAN_POINT('Origin',(-10.6066017177982,39.546190158901,3.66335034984391));
#756=CARTESIAN_POINT('',(-0.608111831820425,39.546190158901,1.83167517492196));
#757=CARTESIAN_POINT('',(-10.6066017177982,39.546190158901,1.83167517492196));
#758=CARTESIAN_POINT('Origin',(-10.6066017177982,32.246190158901,2.96335034984391));
#759=CARTESIAN_POINT('',(-10.6066017177982,56.646190158901,2.96335034984391));
#760=CARTESIAN_POINT('Origin',(21.1665275636694,35.2197942205514,3.));
#761=CARTESIAN_POINT('',(-0.608111831820425,-0.60811183182043,3.));
#762=CARTESIAN_POINT('',(-0.608111831820426,17.3058411943655,3.));
#763=CARTESIAN_POINT('',(42.9411669591593,-0.608111831820428,3.));
#764=CARTESIAN_POINT('',(32.0538472614144,-0.60811183182043,3.));
#765=CARTESIAN_POINT('',(42.9411669591593,71.0477002729233,3.));
#766=CARTESIAN_POINT('',(42.9411669591593,53.1337472467373,3.));
#767=CARTESIAN_POINT('',(-0.608111831820425,71.0477002729233,3.));
#768=CARTESIAN_POINT('',(10.2792078659245,71.0477002729233,3.));
#769=CARTESIAN_POINT('',(-0.608111831820426,17.3058411943655,3.));
#770=CARTESIAN_POINT('Origin',(-0.608111831820425,71.0477002729233,0.));
#771=CARTESIAN_POINT('',(42.9411669591593,71.0477002729233,13.));
#772=CARTESIAN_POINT('',(42.9411669591593,71.0477002729233,0.));
#773=CARTESIAN_POINT('',(-0.608111831820422,71.0477002729233,13.));
#774=CARTESIAN_POINT('',(-0.608111831820425,71.0477002729233,13.));
#775=CARTESIAN_POINT('',(-0.608111831820425,71.0477002729233,0.));
#776=CARTESIAN_POINT('Origin',(42.9411669591593,71.0477002729233,0.));
#777=CARTESIAN_POINT('',(42.9411669591593,-0.608111831820428,13.));
#778=CARTESIAN_POINT('',(42.9411669591593,-0.608111831820428,0.));
#779=CARTESIAN_POINT('',(42.9411669591593,71.0477002729233,13.));
#780=CARTESIAN_POINT('Origin',(-0.608111831820425,-0.60811183182043,0.));
#781=CARTESIAN_POINT('',(-0.608111831820422,-0.60811183182043,13.));
#782=CARTESIAN_POINT('',(-0.608111831820425,-0.60811183182043,13.));
#783=CARTESIAN_POINT('',(-0.608111831820425,-0.60811183182043,0.));
#784=CARTESIAN_POINT('Origin',(42.9411669591593,-0.608111831820428,0.));
#785=CARTESIAN_POINT('',(42.9411669591593,-0.608111831820428,13.));
#786=CARTESIAN_POINT('Origin',(21.1665275636694,35.2197942205514,13.));
#787=CARTESIAN_POINT('',(52.9396568451371,81.046190158901,13.));
#788=CARTESIAN_POINT('',(-10.6066017177982,81.046190158901,13.));
#789=CARTESIAN_POINT('',(-10.6066017177982,81.046190158901,13.));
#790=CARTESIAN_POINT('',(-10.6066017177982,-10.6066017177982,13.));
#791=CARTESIAN_POINT('',(-10.6066017177982,-10.6066017177982,13.));
#792=CARTESIAN_POINT('',(52.9396568451371,-10.6066017177982,13.));
#793=CARTESIAN_POINT('',(52.9396568451371,-10.6066017177982,13.));
#794=CARTESIAN_POINT('',(52.9396568451371,81.046190158901,13.));
#795=CARTESIAN_POINT('Origin',(52.9396568451371,-10.6066017177982,0.));
#796=CARTESIAN_POINT('',(52.9396568451371,81.046190158901,0.));
#797=CARTESIAN_POINT('',(52.9396568451371,-10.6066017177982,0.));
#798=CARTESIAN_POINT('',(52.9396568451371,81.046190158901,0.));
#799=CARTESIAN_POINT('',(52.9396568451371,81.046190158901,0.));
#800=CARTESIAN_POINT('',(52.9396568451371,-10.6066017177982,0.));
#801=CARTESIAN_POINT('Origin',(-10.6066017177982,-10.6066017177982,0.));
#802=CARTESIAN_POINT('',(-10.6066017177982,-10.6066017177982,0.));
#803=CARTESIAN_POINT('',(52.9396568451371,-10.6066017177982,0.));
#804=CARTESIAN_POINT('',(-10.6066017177982,-10.6066017177982,0.));
#805=CARTESIAN_POINT('Origin',(-10.6066017177982,81.046190158901,0.));
#806=CARTESIAN_POINT('',(-10.6066017177982,81.046190158901,0.));
#807=CARTESIAN_POINT('',(-10.6066017177982,-10.6066017177982,0.));
#808=CARTESIAN_POINT('',(-10.6066017177982,81.046190158901,0.));
#809=CARTESIAN_POINT('Origin',(52.9396568451371,81.046190158901,0.));
#810=CARTESIAN_POINT('',(-10.6066017177982,81.046190158901,0.));
#811=CARTESIAN_POINT('Origin',(21.1665275636694,35.2197942205514,0.));
#812=UNCERTAINTY_MEASURE_WITH_UNIT(LENGTH_MEASURE(0.01),#816,
'DISTANCE_ACCURACY_VALUE',
'Maximum model space distance between geometric entities at asserted c
onnectivities');
#813=UNCERTAINTY_MEASURE_WITH_UNIT(LENGTH_MEASURE(0.01),#816,
'DISTANCE_ACCURACY_VALUE',
'Maximum model space distance between geometric entities at asserted c
onnectivities');
#814=(
GEOMETRIC_REPRESENTATION_CONTEXT(3)
GLOBAL_UNCERTAINTY_ASSIGNED_CONTEXT((#812))
GLOBAL_UNIT_ASSIGNED_CONTEXT((#816,#818,#819))
REPRESENTATION_CONTEXT('','3D')
);
#815=(
GEOMETRIC_REPRESENTATION_CONTEXT(3)
GLOBAL_UNCERTAINTY_ASSIGNED_CONTEXT((#813))
GLOBAL_UNIT_ASSIGNED_CONTEXT((#816,#818,#819))
REPRESENTATION_CONTEXT('','3D')
);
#816=(
LENGTH_UNIT()
NAMED_UNIT(*)
SI_UNIT(.MILLI.,.METRE.)
);
#817=(
LENGTH_UNIT()
NAMED_UNIT(*)
SI_UNIT($,.METRE.)
);
#818=(
NAMED_UNIT(*)
PLANE_ANGLE_UNIT()
SI_UNIT($,.RADIAN.)
);
#819=(
NAMED_UNIT(*)
SI_UNIT($,.STERADIAN.)
SOLID_ANGLE_UNIT()
);
#820=SHAPE_DEFINITION_REPRESENTATION(#821,#822);
#821=PRODUCT_DEFINITION_SHAPE('',$,#824);
#822=SHAPE_REPRESENTATION('',(#500),#814);
#823=PRODUCT_DEFINITION_CONTEXT('part definition',#828,'design');
#824=PRODUCT_DEFINITION('2026-07-30-03-06-00-775','iFlight.Xing.2207',#825,
#823);
#825=PRODUCT_DEFINITION_FORMATION('',$,#830);
#826=PRODUCT_RELATED_PRODUCT_CATEGORY('iFlight.Xing.2207',
'iFlight.Xing.2207',(#830));
#827=APPLICATION_PROTOCOL_DEFINITION('international standard',
'automotive_design',2009,#828);
#828=APPLICATION_CONTEXT(
'Core Data for Automotive Mechanical Design Process');
#829=PRODUCT_CONTEXT('part definition',#828,'mechanical');
#830=PRODUCT('2026-07-30-03-06-00-775','iFlight.Xing.2207',$,(#829));
#831=PRESENTATION_STYLE_ASSIGNMENT((#832));
#832=SURFACE_STYLE_USAGE(.BOTH.,#833);
#833=SURFACE_SIDE_STYLE('',(#834));
#834=SURFACE_STYLE_FILL_AREA(#835);
#835=FILL_AREA_STYLE('Steel - Satin',(#836));
#836=FILL_AREA_STYLE_COLOUR('Steel - Satin',#837);
#837=COLOUR_RGB('Steel - Satin',0.627450980392157,0.627450980392157,0.627450980392157);
ENDSEC;
END-ISO-10303-21;
