ISO-10303-21;
HEADER;
/* Generated by software containing ST-Developer
 * from STEP Tools, Inc. (www.steptools.com) 
 */

FILE_DESCRIPTION(
/* description */ (''),
/* implementation_level */ '2;1');

FILE_NAME(
/* name */ 'Top.step',
/* time_stamp */ '2026-08-08T13:15:19-04:00',
/* author */ (''),
/* organization */ (''),
/* preprocessor_version */ 'ST-DEVELOPER v20.1',
/* originating_system */ 'Autodesk Translation Framework v15.8.0.0',
/* authorisation */ '');

FILE_SCHEMA (('AUTOMOTIVE_DESIGN { 1 0 10303 214 3 1 1 }'));
ENDSEC;

DATA;
#10=MECHANICAL_DESIGN_GEOMETRIC_PRESENTATION_REPRESENTATION('',(#13),#689);
#11=SHAPE_REPRESENTATION_RELATIONSHIP('SRR','None',#696,#12);
#12=ADVANCED_BREP_SHAPE_REPRESENTATION('',(#14),#688);
#13=STYLED_ITEM('',(#705),#14);
#14=MANIFOLD_SOLID_BREP('Body3',#421);
#15=FACE_BOUND('',#84,.T.);
#16=FACE_BOUND('',#85,.T.);
#17=FACE_BOUND('',#86,.T.);
#18=FACE_BOUND('',#87,.T.);
#19=FACE_BOUND('',#88,.T.);
#20=FACE_BOUND('',#89,.T.);
#21=FACE_BOUND('',#90,.T.);
#22=FACE_BOUND('',#91,.T.);
#23=FACE_BOUND('',#93,.T.);
#24=FACE_BOUND('',#94,.T.);
#25=FACE_BOUND('',#95,.T.);
#26=FACE_BOUND('',#96,.T.);
#27=FACE_BOUND('',#97,.T.);
#28=FACE_BOUND('',#98,.T.);
#29=FACE_BOUND('',#99,.T.);
#30=FACE_BOUND('',#100,.T.);
#31=PLANE('',#447);
#32=PLANE('',#448);
#33=PLANE('',#449);
#34=PLANE('',#450);
#35=PLANE('',#457);
#36=PLANE('',#458);
#37=PLANE('',#459);
#38=PLANE('',#460);
#39=PLANE('',#461);
#40=PLANE('',#462);
#41=PLANE('',#463);
#42=PLANE('',#464);
#43=PLANE('',#465);
#44=PLANE('',#466);
#45=FACE_OUTER_BOUND('',#65,.T.);
#46=FACE_OUTER_BOUND('',#66,.T.);
#47=FACE_OUTER_BOUND('',#67,.T.);
#48=FACE_OUTER_BOUND('',#68,.T.);
#49=FACE_OUTER_BOUND('',#69,.T.);
#50=FACE_OUTER_BOUND('',#70,.T.);
#51=FACE_OUTER_BOUND('',#71,.T.);
#52=FACE_OUTER_BOUND('',#72,.T.);
#53=FACE_OUTER_BOUND('',#73,.T.);
#54=FACE_OUTER_BOUND('',#74,.T.);
#55=FACE_OUTER_BOUND('',#75,.T.);
#56=FACE_OUTER_BOUND('',#76,.T.);
#57=FACE_OUTER_BOUND('',#77,.T.);
#58=FACE_OUTER_BOUND('',#78,.T.);
#59=FACE_OUTER_BOUND('',#79,.T.);
#60=FACE_OUTER_BOUND('',#80,.T.);
#61=FACE_OUTER_BOUND('',#81,.T.);
#62=FACE_OUTER_BOUND('',#82,.T.);
#63=FACE_OUTER_BOUND('',#83,.T.);
#64=FACE_OUTER_BOUND('',#92,.T.);
#65=EDGE_LOOP('',(#287,#288,#289,#290));
#66=EDGE_LOOP('',(#291,#292,#293,#294));
#67=EDGE_LOOP('',(#295,#296,#297,#298));
#68=EDGE_LOOP('',(#299,#300,#301,#302));
#69=EDGE_LOOP('',(#303,#304,#305,#306));
#70=EDGE_LOOP('',(#307,#308,#309,#310));
#71=EDGE_LOOP('',(#311,#312,#313,#314));
#72=EDGE_LOOP('',(#315,#316,#317,#318));
#73=EDGE_LOOP('',(#319,#320,#321,#322));
#74=EDGE_LOOP('',(#323,#324,#325,#326));
#75=EDGE_LOOP('',(#327,#328,#329,#330));
#76=EDGE_LOOP('',(#331,#332,#333,#334));
#77=EDGE_LOOP('',(#335,#336,#337,#338));
#78=EDGE_LOOP('',(#339,#340,#341,#342));
#79=EDGE_LOOP('',(#343,#344,#345,#346));
#80=EDGE_LOOP('',(#347,#348,#349,#350));
#81=EDGE_LOOP('',(#351,#352,#353,#354));
#82=EDGE_LOOP('',(#355,#356,#357,#358));
#83=EDGE_LOOP('',(#359,#360,#361,#362));
#84=EDGE_LOOP('',(#363,#364,#365,#366));
#85=EDGE_LOOP('',(#367));
#86=EDGE_LOOP('',(#368));
#87=EDGE_LOOP('',(#369,#370,#371,#372));
#88=EDGE_LOOP('',(#373));
#89=EDGE_LOOP('',(#374));
#90=EDGE_LOOP('',(#375));
#91=EDGE_LOOP('',(#376));
#92=EDGE_LOOP('',(#377,#378,#379,#380));
#93=EDGE_LOOP('',(#381,#382,#383,#384));
#94=EDGE_LOOP('',(#385));
#95=EDGE_LOOP('',(#386));
#96=EDGE_LOOP('',(#387,#388,#389,#390));
#97=EDGE_LOOP('',(#391));
#98=EDGE_LOOP('',(#392));
#99=EDGE_LOOP('',(#393));
#100=EDGE_LOOP('',(#394));
#101=LINE('',#580,#143);
#102=LINE('',#586,#144);
#103=LINE('',#592,#145);
#104=LINE('',#598,#146);
#105=LINE('',#603,#147);
#106=LINE('',#605,#148);
#107=LINE('',#607,#149);
#108=LINE('',#608,#150);
#109=LINE('',#611,#151);
#110=LINE('',#613,#152);
#111=LINE('',#614,#153);
#112=LINE('',#617,#154);
#113=LINE('',#619,#155);
#114=LINE('',#620,#156);
#115=LINE('',#622,#157);
#116=LINE('',#623,#158);
#117=LINE('',#628,#159);
#118=LINE('',#634,#160);
#119=LINE('',#639,#161);
#120=LINE('',#641,#162);
#121=LINE('',#643,#163);
#122=LINE('',#644,#164);
#123=LINE('',#647,#165);
#124=LINE('',#649,#166);
#125=LINE('',#650,#167);
#126=LINE('',#653,#168);
#127=LINE('',#655,#169);
#128=LINE('',#656,#170);
#129=LINE('',#658,#171);
#130=LINE('',#659,#172);
#131=LINE('',#663,#173);
#132=LINE('',#665,#174);
#133=LINE('',#667,#175);
#134=LINE('',#668,#176);
#135=LINE('',#671,#177);
#136=LINE('',#673,#178);
#137=LINE('',#674,#179);
#138=LINE('',#677,#180);
#139=LINE('',#679,#181);
#140=LINE('',#680,#182);
#141=LINE('',#682,#183);
#142=LINE('',#683,#184);
#143=VECTOR('',#473,1.45);
#144=VECTOR('',#480,1.45);
#145=VECTOR('',#487,1.45);
#146=VECTOR('',#494,1.45);
#147=VECTOR('',#499,10.);
#148=VECTOR('',#500,10.);
#149=VECTOR('',#501,10.);
#150=VECTOR('',#502,10.);
#151=VECTOR('',#505,10.);
#152=VECTOR('',#506,10.);
#153=VECTOR('',#507,10.);
#154=VECTOR('',#510,10.);
#155=VECTOR('',#511,10.);
#156=VECTOR('',#512,10.);
#157=VECTOR('',#515,10.);
#158=VECTOR('',#516,10.);
#159=VECTOR('',#521,5.);
#160=VECTOR('',#528,5.);
#161=VECTOR('',#533,10.);
#162=VECTOR('',#534,10.);
#163=VECTOR('',#535,10.);
#164=VECTOR('',#536,10.);
#165=VECTOR('',#539,10.);
#166=VECTOR('',#540,10.);
#167=VECTOR('',#541,10.);
#168=VECTOR('',#544,10.);
#169=VECTOR('',#545,10.);
#170=VECTOR('',#546,10.);
#171=VECTOR('',#549,10.);
#172=VECTOR('',#550,10.);
#173=VECTOR('',#553,10.);
#174=VECTOR('',#554,10.);
#175=VECTOR('',#555,10.);
#176=VECTOR('',#556,10.);
#177=VECTOR('',#559,10.);
#178=VECTOR('',#560,10.);
#179=VECTOR('',#561,10.);
#180=VECTOR('',#564,10.);
#181=VECTOR('',#565,10.);
#182=VECTOR('',#566,10.);
#183=VECTOR('',#569,10.);
#184=VECTOR('',#570,10.);
#185=CIRCLE('',#436,1.45);
#186=CIRCLE('',#437,1.45);
#187=CIRCLE('',#439,1.45);
#188=CIRCLE('',#440,1.45);
#189=CIRCLE('',#442,1.45);
#190=CIRCLE('',#443,1.45);
#191=CIRCLE('',#445,1.45);
#192=CIRCLE('',#446,1.45);
#193=CIRCLE('',#452,5.);
#194=CIRCLE('',#453,5.);
#195=CIRCLE('',#455,5.);
#196=CIRCLE('',#456,5.);
#197=VERTEX_POINT('',#577);
#198=VERTEX_POINT('',#579);
#199=VERTEX_POINT('',#583);
#200=VERTEX_POINT('',#585);
#201=VERTEX_POINT('',#589);
#202=VERTEX_POINT('',#591);
#203=VERTEX_POINT('',#595);
#204=VERTEX_POINT('',#597);
#205=VERTEX_POINT('',#601);
#206=VERTEX_POINT('',#602);
#207=VERTEX_POINT('',#604);
#208=VERTEX_POINT('',#606);
#209=VERTEX_POINT('',#610);
#210=VERTEX_POINT('',#612);
#211=VERTEX_POINT('',#616);
#212=VERTEX_POINT('',#618);
#213=VERTEX_POINT('',#625);
#214=VERTEX_POINT('',#627);
#215=VERTEX_POINT('',#631);
#216=VERTEX_POINT('',#633);
#217=VERTEX_POINT('',#637);
#218=VERTEX_POINT('',#638);
#219=VERTEX_POINT('',#640);
#220=VERTEX_POINT('',#642);
#221=VERTEX_POINT('',#646);
#222=VERTEX_POINT('',#648);
#223=VERTEX_POINT('',#652);
#224=VERTEX_POINT('',#654);
#225=VERTEX_POINT('',#661);
#226=VERTEX_POINT('',#662);
#227=VERTEX_POINT('',#664);
#228=VERTEX_POINT('',#666);
#229=VERTEX_POINT('',#670);
#230=VERTEX_POINT('',#672);
#231=VERTEX_POINT('',#676);
#232=VERTEX_POINT('',#678);
#233=EDGE_CURVE('',#197,#197,#185,.T.);
#234=EDGE_CURVE('',#197,#198,#101,.T.);
#235=EDGE_CURVE('',#198,#198,#186,.T.);
#236=EDGE_CURVE('',#199,#199,#187,.T.);
#237=EDGE_CURVE('',#199,#200,#102,.T.);
#238=EDGE_CURVE('',#200,#200,#188,.T.);
#239=EDGE_CURVE('',#201,#201,#189,.T.);
#240=EDGE_CURVE('',#201,#202,#103,.T.);
#241=EDGE_CURVE('',#202,#202,#190,.T.);
#242=EDGE_CURVE('',#203,#203,#191,.T.);
#243=EDGE_CURVE('',#203,#204,#104,.T.);
#244=EDGE_CURVE('',#204,#204,#192,.T.);
#245=EDGE_CURVE('',#205,#206,#105,.T.);
#246=EDGE_CURVE('',#205,#207,#106,.T.);
#247=EDGE_CURVE('',#208,#207,#107,.T.);
#248=EDGE_CURVE('',#206,#208,#108,.T.);
#249=EDGE_CURVE('',#209,#205,#109,.T.);
#250=EDGE_CURVE('',#209,#210,#110,.T.);
#251=EDGE_CURVE('',#207,#210,#111,.T.);
#252=EDGE_CURVE('',#211,#209,#112,.T.);
#253=EDGE_CURVE('',#211,#212,#113,.T.);
#254=EDGE_CURVE('',#210,#212,#114,.T.);
#255=EDGE_CURVE('',#206,#211,#115,.T.);
#256=EDGE_CURVE('',#212,#208,#116,.T.);
#257=EDGE_CURVE('',#213,#213,#193,.T.);
#258=EDGE_CURVE('',#213,#214,#117,.T.);
#259=EDGE_CURVE('',#214,#214,#194,.T.);
#260=EDGE_CURVE('',#215,#215,#195,.T.);
#261=EDGE_CURVE('',#215,#216,#118,.T.);
#262=EDGE_CURVE('',#216,#216,#196,.T.);
#263=EDGE_CURVE('',#217,#218,#119,.T.);
#264=EDGE_CURVE('',#218,#219,#120,.T.);
#265=EDGE_CURVE('',#220,#219,#121,.T.);
#266=EDGE_CURVE('',#217,#220,#122,.T.);
#267=EDGE_CURVE('',#221,#217,#123,.T.);
#268=EDGE_CURVE('',#222,#220,#124,.T.);
#269=EDGE_CURVE('',#221,#222,#125,.T.);
#270=EDGE_CURVE('',#223,#221,#126,.T.);
#271=EDGE_CURVE('',#224,#222,#127,.T.);
#272=EDGE_CURVE('',#223,#224,#128,.T.);
#273=EDGE_CURVE('',#218,#223,#129,.T.);
#274=EDGE_CURVE('',#219,#224,#130,.T.);
#275=EDGE_CURVE('',#225,#226,#131,.T.);
#276=EDGE_CURVE('',#226,#227,#132,.T.);
#277=EDGE_CURVE('',#228,#227,#133,.T.);
#278=EDGE_CURVE('',#225,#228,#134,.T.);
#279=EDGE_CURVE('',#229,#225,#135,.T.);
#280=EDGE_CURVE('',#230,#228,#136,.T.);
#281=EDGE_CURVE('',#229,#230,#137,.T.);
#282=EDGE_CURVE('',#231,#229,#138,.T.);
#283=EDGE_CURVE('',#232,#230,#139,.T.);
#284=EDGE_CURVE('',#231,#232,#140,.T.);
#285=EDGE_CURVE('',#226,#231,#141,.T.);
#286=EDGE_CURVE('',#227,#232,#142,.T.);
#287=ORIENTED_EDGE('',*,*,#233,.F.);
#288=ORIENTED_EDGE('',*,*,#234,.T.);
#289=ORIENTED_EDGE('',*,*,#235,.F.);
#290=ORIENTED_EDGE('',*,*,#234,.F.);
#291=ORIENTED_EDGE('',*,*,#236,.F.);
#292=ORIENTED_EDGE('',*,*,#237,.T.);
#293=ORIENTED_EDGE('',*,*,#238,.F.);
#294=ORIENTED_EDGE('',*,*,#237,.F.);
#295=ORIENTED_EDGE('',*,*,#239,.F.);
#296=ORIENTED_EDGE('',*,*,#240,.T.);
#297=ORIENTED_EDGE('',*,*,#241,.F.);
#298=ORIENTED_EDGE('',*,*,#240,.F.);
#299=ORIENTED_EDGE('',*,*,#242,.F.);
#300=ORIENTED_EDGE('',*,*,#243,.T.);
#301=ORIENTED_EDGE('',*,*,#244,.F.);
#302=ORIENTED_EDGE('',*,*,#243,.F.);
#303=ORIENTED_EDGE('',*,*,#245,.F.);
#304=ORIENTED_EDGE('',*,*,#246,.T.);
#305=ORIENTED_EDGE('',*,*,#247,.F.);
#306=ORIENTED_EDGE('',*,*,#248,.F.);
#307=ORIENTED_EDGE('',*,*,#249,.F.);
#308=ORIENTED_EDGE('',*,*,#250,.T.);
#309=ORIENTED_EDGE('',*,*,#251,.F.);
#310=ORIENTED_EDGE('',*,*,#246,.F.);
#311=ORIENTED_EDGE('',*,*,#252,.F.);
#312=ORIENTED_EDGE('',*,*,#253,.T.);
#313=ORIENTED_EDGE('',*,*,#254,.F.);
#314=ORIENTED_EDGE('',*,*,#250,.F.);
#315=ORIENTED_EDGE('',*,*,#255,.F.);
#316=ORIENTED_EDGE('',*,*,#248,.T.);
#317=ORIENTED_EDGE('',*,*,#256,.F.);
#318=ORIENTED_EDGE('',*,*,#253,.F.);
#319=ORIENTED_EDGE('',*,*,#257,.F.);
#320=ORIENTED_EDGE('',*,*,#258,.T.);
#321=ORIENTED_EDGE('',*,*,#259,.F.);
#322=ORIENTED_EDGE('',*,*,#258,.F.);
#323=ORIENTED_EDGE('',*,*,#260,.F.);
#324=ORIENTED_EDGE('',*,*,#261,.T.);
#325=ORIENTED_EDGE('',*,*,#262,.F.);
#326=ORIENTED_EDGE('',*,*,#261,.F.);
#327=ORIENTED_EDGE('',*,*,#263,.T.);
#328=ORIENTED_EDGE('',*,*,#264,.T.);
#329=ORIENTED_EDGE('',*,*,#265,.F.);
#330=ORIENTED_EDGE('',*,*,#266,.F.);
#331=ORIENTED_EDGE('',*,*,#267,.T.);
#332=ORIENTED_EDGE('',*,*,#266,.T.);
#333=ORIENTED_EDGE('',*,*,#268,.F.);
#334=ORIENTED_EDGE('',*,*,#269,.F.);
#335=ORIENTED_EDGE('',*,*,#270,.T.);
#336=ORIENTED_EDGE('',*,*,#269,.T.);
#337=ORIENTED_EDGE('',*,*,#271,.F.);
#338=ORIENTED_EDGE('',*,*,#272,.F.);
#339=ORIENTED_EDGE('',*,*,#273,.T.);
#340=ORIENTED_EDGE('',*,*,#272,.T.);
#341=ORIENTED_EDGE('',*,*,#274,.F.);
#342=ORIENTED_EDGE('',*,*,#264,.F.);
#343=ORIENTED_EDGE('',*,*,#275,.T.);
#344=ORIENTED_EDGE('',*,*,#276,.T.);
#345=ORIENTED_EDGE('',*,*,#277,.F.);
#346=ORIENTED_EDGE('',*,*,#278,.F.);
#347=ORIENTED_EDGE('',*,*,#279,.T.);
#348=ORIENTED_EDGE('',*,*,#278,.T.);
#349=ORIENTED_EDGE('',*,*,#280,.F.);
#350=ORIENTED_EDGE('',*,*,#281,.F.);
#351=ORIENTED_EDGE('',*,*,#282,.T.);
#352=ORIENTED_EDGE('',*,*,#281,.T.);
#353=ORIENTED_EDGE('',*,*,#283,.F.);
#354=ORIENTED_EDGE('',*,*,#284,.F.);
#355=ORIENTED_EDGE('',*,*,#285,.T.);
#356=ORIENTED_EDGE('',*,*,#284,.T.);
#357=ORIENTED_EDGE('',*,*,#286,.F.);
#358=ORIENTED_EDGE('',*,*,#276,.F.);
#359=ORIENTED_EDGE('',*,*,#286,.T.);
#360=ORIENTED_EDGE('',*,*,#283,.T.);
#361=ORIENTED_EDGE('',*,*,#280,.T.);
#362=ORIENTED_EDGE('',*,*,#277,.T.);
#363=ORIENTED_EDGE('',*,*,#274,.T.);
#364=ORIENTED_EDGE('',*,*,#271,.T.);
#365=ORIENTED_EDGE('',*,*,#268,.T.);
#366=ORIENTED_EDGE('',*,*,#265,.T.);
#367=ORIENTED_EDGE('',*,*,#260,.T.);
#368=ORIENTED_EDGE('',*,*,#257,.T.);
#369=ORIENTED_EDGE('',*,*,#245,.T.);
#370=ORIENTED_EDGE('',*,*,#255,.T.);
#371=ORIENTED_EDGE('',*,*,#252,.T.);
#372=ORIENTED_EDGE('',*,*,#249,.T.);
#373=ORIENTED_EDGE('',*,*,#242,.T.);
#374=ORIENTED_EDGE('',*,*,#239,.T.);
#375=ORIENTED_EDGE('',*,*,#236,.T.);
#376=ORIENTED_EDGE('',*,*,#233,.T.);
#377=ORIENTED_EDGE('',*,*,#285,.F.);
#378=ORIENTED_EDGE('',*,*,#275,.F.);
#379=ORIENTED_EDGE('',*,*,#279,.F.);
#380=ORIENTED_EDGE('',*,*,#282,.F.);
#381=ORIENTED_EDGE('',*,*,#273,.F.);
#382=ORIENTED_EDGE('',*,*,#263,.F.);
#383=ORIENTED_EDGE('',*,*,#267,.F.);
#384=ORIENTED_EDGE('',*,*,#270,.F.);
#385=ORIENTED_EDGE('',*,*,#262,.T.);
#386=ORIENTED_EDGE('',*,*,#259,.T.);
#387=ORIENTED_EDGE('',*,*,#247,.T.);
#388=ORIENTED_EDGE('',*,*,#251,.T.);
#389=ORIENTED_EDGE('',*,*,#254,.T.);
#390=ORIENTED_EDGE('',*,*,#256,.T.);
#391=ORIENTED_EDGE('',*,*,#244,.T.);
#392=ORIENTED_EDGE('',*,*,#241,.T.);
#393=ORIENTED_EDGE('',*,*,#238,.T.);
#394=ORIENTED_EDGE('',*,*,#235,.T.);
#395=CYLINDRICAL_SURFACE('',#435,1.45);
#396=CYLINDRICAL_SURFACE('',#438,1.45);
#397=CYLINDRICAL_SURFACE('',#441,1.45);
#398=CYLINDRICAL_SURFACE('',#444,1.45);
#399=CYLINDRICAL_SURFACE('',#451,5.);
#400=CYLINDRICAL_SURFACE('',#454,5.);
#401=ADVANCED_FACE('',(#45),#395,.F.);
#402=ADVANCED_FACE('',(#46),#396,.F.);
#403=ADVANCED_FACE('',(#47),#397,.F.);
#404=ADVANCED_FACE('',(#48),#398,.F.);
#405=ADVANCED_FACE('',(#49),#31,.F.);
#406=ADVANCED_FACE('',(#50),#32,.F.);
#407=ADVANCED_FACE('',(#51),#33,.F.);
#408=ADVANCED_FACE('',(#52),#34,.F.);
#409=ADVANCED_FACE('',(#53),#399,.F.);
#410=ADVANCED_FACE('',(#54),#400,.F.);
#411=ADVANCED_FACE('',(#55),#35,.T.);
#412=ADVANCED_FACE('',(#56),#36,.T.);
#413=ADVANCED_FACE('',(#57),#37,.T.);
#414=ADVANCED_FACE('',(#58),#38,.T.);
#415=ADVANCED_FACE('',(#59),#39,.T.);
#416=ADVANCED_FACE('',(#60),#40,.T.);
#417=ADVANCED_FACE('',(#61),#41,.T.);
#418=ADVANCED_FACE('',(#62),#42,.T.);
#419=ADVANCED_FACE('',(#63,#15,#16,#17,#18,#19,#20,#21,#22),#43,.T.);
#420=ADVANCED_FACE('',(#64,#23,#24,#25,#26,#27,#28,#29,#30),#44,.F.);
#421=CLOSED_SHELL('',(#401,#402,#403,#404,#405,#406,#407,#408,#409,#410,
#411,#412,#413,#414,#415,#416,#417,#418,#419,#420));
#422=DERIVED_UNIT_ELEMENT(#424,1.);
#423=DERIVED_UNIT_ELEMENT(#691,-3.);
#424=(
MASS_UNIT()
NAMED_UNIT(*)
SI_UNIT(.KILO.,.GRAM.)
);
#425=DERIVED_UNIT((#422,#423));
#426=MEASURE_REPRESENTATION_ITEM('density measure',
POSITIVE_RATIO_MEASURE(7850.),#425);
#427=PROPERTY_DEFINITION_REPRESENTATION(#432,#429);
#428=PROPERTY_DEFINITION_REPRESENTATION(#433,#430);
#429=REPRESENTATION('material name',(#431),#688);
#430=REPRESENTATION('density',(#426),#688);
#431=DESCRIPTIVE_REPRESENTATION_ITEM('Steel','Steel');
#432=PROPERTY_DEFINITION('material property','material name',#698);
#433=PROPERTY_DEFINITION('material property','density of part',#698);
#434=AXIS2_PLACEMENT_3D('',#575,#467,#468);
#435=AXIS2_PLACEMENT_3D('',#576,#469,#470);
#436=AXIS2_PLACEMENT_3D('',#578,#471,#472);
#437=AXIS2_PLACEMENT_3D('',#581,#474,#475);
#438=AXIS2_PLACEMENT_3D('',#582,#476,#477);
#439=AXIS2_PLACEMENT_3D('',#584,#478,#479);
#440=AXIS2_PLACEMENT_3D('',#587,#481,#482);
#441=AXIS2_PLACEMENT_3D('',#588,#483,#484);
#442=AXIS2_PLACEMENT_3D('',#590,#485,#486);
#443=AXIS2_PLACEMENT_3D('',#593,#488,#489);
#444=AXIS2_PLACEMENT_3D('',#594,#490,#491);
#445=AXIS2_PLACEMENT_3D('',#596,#492,#493);
#446=AXIS2_PLACEMENT_3D('',#599,#495,#496);
#447=AXIS2_PLACEMENT_3D('',#600,#497,#498);
#448=AXIS2_PLACEMENT_3D('',#609,#503,#504);
#449=AXIS2_PLACEMENT_3D('',#615,#508,#509);
#450=AXIS2_PLACEMENT_3D('',#621,#513,#514);
#451=AXIS2_PLACEMENT_3D('',#624,#517,#518);
#452=AXIS2_PLACEMENT_3D('',#626,#519,#520);
#453=AXIS2_PLACEMENT_3D('',#629,#522,#523);
#454=AXIS2_PLACEMENT_3D('',#630,#524,#525);
#455=AXIS2_PLACEMENT_3D('',#632,#526,#527);
#456=AXIS2_PLACEMENT_3D('',#635,#529,#530);
#457=AXIS2_PLACEMENT_3D('',#636,#531,#532);
#458=AXIS2_PLACEMENT_3D('',#645,#537,#538);
#459=AXIS2_PLACEMENT_3D('',#651,#542,#543);
#460=AXIS2_PLACEMENT_3D('',#657,#547,#548);
#461=AXIS2_PLACEMENT_3D('',#660,#551,#552);
#462=AXIS2_PLACEMENT_3D('',#669,#557,#558);
#463=AXIS2_PLACEMENT_3D('',#675,#562,#563);
#464=AXIS2_PLACEMENT_3D('',#681,#567,#568);
#465=AXIS2_PLACEMENT_3D('',#684,#571,#572);
#466=AXIS2_PLACEMENT_3D('',#685,#573,#574);
#467=DIRECTION('axis',(0.,0.,1.));
#468=DIRECTION('refdir',(1.,0.,0.));
#469=DIRECTION('center_axis',(0.,0.,-1.));
#470=DIRECTION('ref_axis',(-1.,0.,0.));
#471=DIRECTION('center_axis',(0.,0.,-1.));
#472=DIRECTION('ref_axis',(-1.,0.,0.));
#473=DIRECTION('',(0.,0.,-1.));
#474=DIRECTION('center_axis',(0.,0.,1.));
#475=DIRECTION('ref_axis',(-1.,0.,0.));
#476=DIRECTION('center_axis',(0.,0.,-1.));
#477=DIRECTION('ref_axis',(-1.,0.,0.));
#478=DIRECTION('center_axis',(0.,0.,-1.));
#479=DIRECTION('ref_axis',(-1.,0.,0.));
#480=DIRECTION('',(0.,0.,-1.));
#481=DIRECTION('center_axis',(0.,0.,1.));
#482=DIRECTION('ref_axis',(-1.,0.,0.));
#483=DIRECTION('center_axis',(0.,0.,-1.));
#484=DIRECTION('ref_axis',(-1.,0.,0.));
#485=DIRECTION('center_axis',(0.,0.,-1.));
#486=DIRECTION('ref_axis',(-1.,0.,0.));
#487=DIRECTION('',(0.,0.,-1.));
#488=DIRECTION('center_axis',(0.,0.,1.));
#489=DIRECTION('ref_axis',(-1.,0.,0.));
#490=DIRECTION('center_axis',(0.,0.,-1.));
#491=DIRECTION('ref_axis',(-1.,0.,0.));
#492=DIRECTION('center_axis',(0.,0.,-1.));
#493=DIRECTION('ref_axis',(-1.,0.,0.));
#494=DIRECTION('',(0.,0.,-1.));
#495=DIRECTION('center_axis',(0.,0.,1.));
#496=DIRECTION('ref_axis',(-1.,0.,0.));
#497=DIRECTION('center_axis',(-1.,0.,0.));
#498=DIRECTION('ref_axis',(0.,1.,0.));
#499=DIRECTION('',(0.,1.,0.));
#500=DIRECTION('',(0.,0.,-1.));
#501=DIRECTION('',(0.,-1.,0.));
#502=DIRECTION('',(0.,0.,-1.));
#503=DIRECTION('center_axis',(0.,-1.,0.));
#504=DIRECTION('ref_axis',(-1.,0.,0.));
#505=DIRECTION('',(-1.,0.,0.));
#506=DIRECTION('',(0.,0.,-1.));
#507=DIRECTION('',(1.,0.,0.));
#508=DIRECTION('center_axis',(1.,0.,0.));
#509=DIRECTION('ref_axis',(0.,-1.,0.));
#510=DIRECTION('',(0.,-1.,0.));
#511=DIRECTION('',(0.,0.,-1.));
#512=DIRECTION('',(0.,1.,0.));
#513=DIRECTION('center_axis',(0.,1.,0.));
#514=DIRECTION('ref_axis',(1.,0.,0.));
#515=DIRECTION('',(1.,0.,0.));
#516=DIRECTION('',(-1.,0.,0.));
#517=DIRECTION('center_axis',(0.,0.,-1.));
#518=DIRECTION('ref_axis',(-1.,0.,0.));
#519=DIRECTION('center_axis',(0.,0.,-1.));
#520=DIRECTION('ref_axis',(-1.,0.,0.));
#521=DIRECTION('',(0.,0.,-1.));
#522=DIRECTION('center_axis',(0.,0.,1.));
#523=DIRECTION('ref_axis',(-1.,0.,0.));
#524=DIRECTION('center_axis',(0.,0.,-1.));
#525=DIRECTION('ref_axis',(-1.,0.,0.));
#526=DIRECTION('center_axis',(0.,0.,-1.));
#527=DIRECTION('ref_axis',(-1.,0.,0.));
#528=DIRECTION('',(0.,0.,-1.));
#529=DIRECTION('center_axis',(0.,0.,1.));
#530=DIRECTION('ref_axis',(-1.,0.,0.));
#531=DIRECTION('center_axis',(0.,1.,0.));
#532=DIRECTION('ref_axis',(-1.,0.,0.));
#533=DIRECTION('',(-1.,0.,0.));
#534=DIRECTION('',(0.,0.,1.));
#535=DIRECTION('',(-1.,0.,0.));
#536=DIRECTION('',(0.,0.,1.));
#537=DIRECTION('center_axis',(-1.,0.,0.));
#538=DIRECTION('ref_axis',(0.,-1.,0.));
#539=DIRECTION('',(0.,-1.,0.));
#540=DIRECTION('',(0.,-1.,0.));
#541=DIRECTION('',(0.,0.,1.));
#542=DIRECTION('center_axis',(0.,-1.,0.));
#543=DIRECTION('ref_axis',(1.,0.,0.));
#544=DIRECTION('',(1.,0.,0.));
#545=DIRECTION('',(1.,0.,0.));
#546=DIRECTION('',(0.,0.,1.));
#547=DIRECTION('center_axis',(1.,0.,0.));
#548=DIRECTION('ref_axis',(0.,1.,0.));
#549=DIRECTION('',(0.,1.,0.));
#550=DIRECTION('',(0.,1.,0.));
#551=DIRECTION('center_axis',(0.,1.,0.));
#552=DIRECTION('ref_axis',(-1.,0.,0.));
#553=DIRECTION('',(-1.,0.,0.));
#554=DIRECTION('',(0.,0.,1.));
#555=DIRECTION('',(-1.,0.,0.));
#556=DIRECTION('',(0.,0.,1.));
#557=DIRECTION('center_axis',(1.,0.,0.));
#558=DIRECTION('ref_axis',(0.,1.,0.));
#559=DIRECTION('',(0.,1.,0.));
#560=DIRECTION('',(0.,1.,0.));
#561=DIRECTION('',(0.,0.,1.));
#562=DIRECTION('center_axis',(0.,-1.,0.));
#563=DIRECTION('ref_axis',(1.,0.,0.));
#564=DIRECTION('',(1.,0.,0.));
#565=DIRECTION('',(1.,0.,0.));
#566=DIRECTION('',(0.,0.,1.));
#567=DIRECTION('center_axis',(-1.,0.,0.));
#568=DIRECTION('ref_axis',(0.,-1.,0.));
#569=DIRECTION('',(0.,-1.,0.));
#570=DIRECTION('',(0.,-1.,0.));
#571=DIRECTION('center_axis',(0.,0.,1.));
#572=DIRECTION('ref_axis',(1.,0.,0.));
#573=DIRECTION('center_axis',(0.,0.,1.));
#574=DIRECTION('ref_axis',(-1.,0.,0.));
#575=CARTESIAN_POINT('',(0.,0.,0.));
#576=CARTESIAN_POINT('Origin',(47.0000007003546,75.0000011175871,16.));
#577=CARTESIAN_POINT('',(48.4500007003546,75.0000011175871,16.));
#578=CARTESIAN_POINT('Origin',(47.0000007003546,75.0000011175871,16.));
#579=CARTESIAN_POINT('',(48.4500007003546,75.0000011175871,13.));
#580=CARTESIAN_POINT('',(48.4500007003546,75.0000011175871,16.));
#581=CARTESIAN_POINT('Origin',(47.0000007003546,75.0000011175871,13.));
#582=CARTESIAN_POINT('Origin',(47.0000007003546,-5.00000007450581,16.));
#583=CARTESIAN_POINT('',(48.4500007003546,-5.00000007450581,16.));
#584=CARTESIAN_POINT('Origin',(47.0000007003546,-5.00000007450581,16.));
#585=CARTESIAN_POINT('',(48.4500007003546,-5.00000007450581,13.));
#586=CARTESIAN_POINT('',(48.4500007003546,-5.00000007450581,16.));
#587=CARTESIAN_POINT('Origin',(47.0000007003546,-5.00000007450581,13.));
#588=CARTESIAN_POINT('Origin',(-5.00000007450581,75.0000011175871,16.));
#589=CARTESIAN_POINT('',(-3.5500000745058,75.0000011175871,16.));
#590=CARTESIAN_POINT('Origin',(-5.00000007450581,75.0000011175871,16.));
#591=CARTESIAN_POINT('',(-3.5500000745058,75.0000011175871,13.));
#592=CARTESIAN_POINT('',(-3.5500000745058,75.0000011175871,16.));
#593=CARTESIAN_POINT('Origin',(-5.00000007450581,75.0000011175871,13.));
#594=CARTESIAN_POINT('Origin',(-5.00000007450581,-5.00000007450581,16.));
#595=CARTESIAN_POINT('',(-3.55000007450581,-5.00000007450581,16.));
#596=CARTESIAN_POINT('Origin',(-5.00000007450581,-5.00000007450581,16.));
#597=CARTESIAN_POINT('',(-3.55000007450581,-5.00000007450581,13.));
#598=CARTESIAN_POINT('',(-3.55000007450581,-5.00000007450581,16.));
#599=CARTESIAN_POINT('Origin',(-5.00000007450581,-5.00000007450581,13.));
#600=CARTESIAN_POINT('Origin',(2.00000002980232,15.0000002235174,16.));
#601=CARTESIAN_POINT('',(2.00000002980232,15.0000002235174,16.));
#602=CARTESIAN_POINT('',(2.00000002980232,55.0000008195639,16.));
#603=CARTESIAN_POINT('',(2.00000002980232,25.1098972220344,16.));
#604=CARTESIAN_POINT('',(2.00000002980232,15.0000002235174,13.));
#605=CARTESIAN_POINT('',(2.00000002980232,15.0000002235174,16.));
#606=CARTESIAN_POINT('',(2.00000002980232,55.0000008195639,13.));
#607=CARTESIAN_POINT('',(2.00000002980232,25.1098972220344,13.));
#608=CARTESIAN_POINT('',(2.00000002980232,55.0000008195639,16.));
#609=CARTESIAN_POINT('Origin',(15.0000002235174,15.0000002235174,16.));
#610=CARTESIAN_POINT('',(15.0000002235174,15.0000002235174,16.));
#611=CARTESIAN_POINT('',(18.0832638935934,15.0000002235174,16.));
#612=CARTESIAN_POINT('',(15.0000002235174,15.0000002235174,13.));
#613=CARTESIAN_POINT('',(15.0000002235174,15.0000002235174,16.));
#614=CARTESIAN_POINT('',(18.0832638935934,15.0000002235174,13.));
#615=CARTESIAN_POINT('Origin',(15.0000002235174,55.0000008195639,16.));
#616=CARTESIAN_POINT('',(15.0000002235174,55.0000008195639,16.));
#617=CARTESIAN_POINT('',(15.0000002235174,45.1098975200576,16.));
#618=CARTESIAN_POINT('',(15.0000002235174,55.0000008195639,13.));
#619=CARTESIAN_POINT('',(15.0000002235174,55.0000008195639,16.));
#620=CARTESIAN_POINT('',(15.0000002235174,45.1098975200576,13.));
#621=CARTESIAN_POINT('Origin',(2.00000002980232,55.0000008195639,16.));
#622=CARTESIAN_POINT('',(11.5832637967359,55.0000008195639,16.));
#623=CARTESIAN_POINT('',(11.5832637967359,55.0000008195639,13.));
#624=CARTESIAN_POINT('Origin',(10.0000001490116,5.00000007450581,16.));
#625=CARTESIAN_POINT('',(15.0000001490116,5.00000007450581,16.));
#626=CARTESIAN_POINT('Origin',(10.0000001490116,5.00000007450581,16.));
#627=CARTESIAN_POINT('',(15.0000001490116,5.00000007450581,13.));
#628=CARTESIAN_POINT('',(15.0000001490116,5.00000007450581,16.));
#629=CARTESIAN_POINT('Origin',(10.0000001490116,5.00000007450581,13.));
#630=CARTESIAN_POINT('Origin',(10.0000001490116,65.0000009685755,16.));
#631=CARTESIAN_POINT('',(15.0000001490116,65.0000009685755,16.));
#632=CARTESIAN_POINT('Origin',(10.0000001490116,65.0000009685755,16.));
#633=CARTESIAN_POINT('',(15.0000001490116,65.0000009685755,13.));
#634=CARTESIAN_POINT('',(15.0000001490116,65.0000009685755,16.));
#635=CARTESIAN_POINT('Origin',(10.0000001490116,65.0000009685755,13.));
#636=CARTESIAN_POINT('Origin',(42.9411669591593,-0.608111831820429,13.));
#637=CARTESIAN_POINT('',(42.9411669591593,-0.608111831820429,13.));
#638=CARTESIAN_POINT('',(21.6261492766467,-0.60811183182043,13.));
#639=CARTESIAN_POINT('',(21.6261492766467,-0.608111831820429,13.));
#640=CARTESIAN_POINT('',(21.6261492766467,-0.60811183182043,16.));
#641=CARTESIAN_POINT('',(21.6261492766467,-0.60811183182043,13.));
#642=CARTESIAN_POINT('',(42.9411669591593,-0.608111831820429,16.));
#643=CARTESIAN_POINT('',(21.6261492766467,-0.608111831820429,16.));
#644=CARTESIAN_POINT('',(42.9411669591593,-0.608111831820429,13.));
#645=CARTESIAN_POINT('Origin',(42.9411669591593,71.0477002729233,13.));
#646=CARTESIAN_POINT('',(42.9411669591593,71.0477002729233,13.));
#647=CARTESIAN_POINT('',(42.9411669591593,-0.608111831820429,13.));
#648=CARTESIAN_POINT('',(42.9411669591593,71.0477002729233,16.));
#649=CARTESIAN_POINT('',(42.9411669591593,-0.608111831820429,16.));
#650=CARTESIAN_POINT('',(42.9411669591593,71.0477002729233,13.));
#651=CARTESIAN_POINT('Origin',(21.6261492766467,71.0477002729233,13.));
#652=CARTESIAN_POINT('',(21.6261492766467,71.0477002729233,13.));
#653=CARTESIAN_POINT('',(42.9411669591593,71.0477002729233,13.));
#654=CARTESIAN_POINT('',(21.6261492766467,71.0477002729233,16.));
#655=CARTESIAN_POINT('',(42.9411669591593,71.0477002729233,16.));
#656=CARTESIAN_POINT('',(21.6261492766467,71.0477002729233,13.));
#657=CARTESIAN_POINT('Origin',(21.6261492766467,-0.60811183182043,13.));
#658=CARTESIAN_POINT('',(21.6261492766467,71.0477002729233,13.));
#659=CARTESIAN_POINT('',(21.6261492766467,71.0477002729233,16.));
#660=CARTESIAN_POINT('Origin',(52.9396568451371,81.046190158901,13.));
#661=CARTESIAN_POINT('',(52.9396568451371,81.046190158901,13.));
#662=CARTESIAN_POINT('',(-10.6066017177982,81.046190158901,13.));
#663=CARTESIAN_POINT('',(52.9396568451371,81.046190158901,13.));
#664=CARTESIAN_POINT('',(-10.6066017177982,81.046190158901,16.));
#665=CARTESIAN_POINT('',(-10.6066017177982,81.046190158901,13.));
#666=CARTESIAN_POINT('',(52.9396568451371,81.046190158901,16.));
#667=CARTESIAN_POINT('',(52.9396568451371,81.046190158901,16.));
#668=CARTESIAN_POINT('',(52.9396568451371,81.046190158901,13.));
#669=CARTESIAN_POINT('Origin',(52.9396568451371,-10.6066017177982,13.));
#670=CARTESIAN_POINT('',(52.9396568451371,-10.6066017177982,13.));
#671=CARTESIAN_POINT('',(52.9396568451371,-10.6066017177982,13.));
#672=CARTESIAN_POINT('',(52.9396568451371,-10.6066017177982,16.));
#673=CARTESIAN_POINT('',(52.9396568451371,-10.6066017177982,16.));
#674=CARTESIAN_POINT('',(52.9396568451371,-10.6066017177982,13.));
#675=CARTESIAN_POINT('Origin',(-10.6066017177982,-10.6066017177982,13.));
#676=CARTESIAN_POINT('',(-10.6066017177982,-10.6066017177982,13.));
#677=CARTESIAN_POINT('',(-10.6066017177982,-10.6066017177982,13.));
#678=CARTESIAN_POINT('',(-10.6066017177982,-10.6066017177982,16.));
#679=CARTESIAN_POINT('',(-10.6066017177982,-10.6066017177982,16.));
#680=CARTESIAN_POINT('',(-10.6066017177982,-10.6066017177982,13.));
#681=CARTESIAN_POINT('Origin',(-10.6066017177982,81.046190158901,13.));
#682=CARTESIAN_POINT('',(-10.6066017177982,81.046190158901,13.));
#683=CARTESIAN_POINT('',(-10.6066017177982,81.046190158901,16.));
#684=CARTESIAN_POINT('Origin',(21.1665275636694,35.2197942205514,16.));
#685=CARTESIAN_POINT('Origin',(21.1665275636694,35.2197942205514,13.));
#686=UNCERTAINTY_MEASURE_WITH_UNIT(LENGTH_MEASURE(0.01),#690,
'DISTANCE_ACCURACY_VALUE',
'Maximum model space distance between geometric entities at asserted c
onnectivities');
#687=UNCERTAINTY_MEASURE_WITH_UNIT(LENGTH_MEASURE(0.01),#690,
'DISTANCE_ACCURACY_VALUE',
'Maximum model space distance between geometric entities at asserted c
onnectivities');
#688=(
GEOMETRIC_REPRESENTATION_CONTEXT(3)
GLOBAL_UNCERTAINTY_ASSIGNED_CONTEXT((#686))
GLOBAL_UNIT_ASSIGNED_CONTEXT((#690,#692,#693))
REPRESENTATION_CONTEXT('','3D')
);
#689=(
GEOMETRIC_REPRESENTATION_CONTEXT(3)
GLOBAL_UNCERTAINTY_ASSIGNED_CONTEXT((#687))
GLOBAL_UNIT_ASSIGNED_CONTEXT((#690,#692,#693))
REPRESENTATION_CONTEXT('','3D')
);
#690=(
LENGTH_UNIT()
NAMED_UNIT(*)
SI_UNIT(.MILLI.,.METRE.)
);
#691=(
LENGTH_UNIT()
NAMED_UNIT(*)
SI_UNIT($,.METRE.)
);
#692=(
NAMED_UNIT(*)
PLANE_ANGLE_UNIT()
SI_UNIT($,.RADIAN.)
);
#693=(
NAMED_UNIT(*)
SI_UNIT($,.STERADIAN.)
SOLID_ANGLE_UNIT()
);
#694=SHAPE_DEFINITION_REPRESENTATION(#695,#696);
#695=PRODUCT_DEFINITION_SHAPE('',$,#698);
#696=SHAPE_REPRESENTATION('',(#434),#688);
#697=PRODUCT_DEFINITION_CONTEXT('part definition',#702,'design');
#698=PRODUCT_DEFINITION('2026-07-30-03-06-00-775','iFlight.Xing.2207',#699,
#697);
#699=PRODUCT_DEFINITION_FORMATION('',$,#704);
#700=PRODUCT_RELATED_PRODUCT_CATEGORY('iFlight.Xing.2207',
'iFlight.Xing.2207',(#704));
#701=APPLICATION_PROTOCOL_DEFINITION('international standard',
'automotive_design',2009,#702);
#702=APPLICATION_CONTEXT(
'Core Data for Automotive Mechanical Design Process');
#703=PRODUCT_CONTEXT('part definition',#702,'mechanical');
#704=PRODUCT('2026-07-30-03-06-00-775','iFlight.Xing.2207',$,(#703));
#705=PRESENTATION_STYLE_ASSIGNMENT((#706));
#706=SURFACE_STYLE_USAGE(.BOTH.,#707);
#707=SURFACE_SIDE_STYLE('',(#708));
#708=SURFACE_STYLE_FILL_AREA(#709);
#709=FILL_AREA_STYLE('Steel - Satin',(#710));
#710=FILL_AREA_STYLE_COLOUR('Steel - Satin',#711);
#711=COLOUR_RGB('Steel - Satin',0.627450980392157,0.627450980392157,0.627450980392157);
ENDSEC;
END-ISO-10303-21;
