ISO-10303-21;
HEADER;
/* Generated by software containing ST-Developer
 * from STEP Tools, Inc. (www.steptools.com) 
 */

FILE_DESCRIPTION(
/* description */ (''),
/* implementation_level */ '2;1');

FILE_NAME(
/* name */ 'Hackpad.step',
/* time_stamp */ '2026-08-08T13:15:48-04:00',
/* author */ (''),
/* organization */ (''),
/* preprocessor_version */ 'ST-DEVELOPER v20.1',
/* originating_system */ 'Autodesk Translation Framework v15.8.0.0',
/* authorisation */ '');

FILE_SCHEMA (('AUTOMOTIVE_DESIGN { 1 0 10303 214 3 1 1 }'));
ENDSEC;

DATA;
#10=MECHANICAL_DESIGN_GEOMETRIC_PRESENTATION_REPRESENTATION('',(#83,#84,
#85),#1623);
#11=SHAPE_REPRESENTATION_RELATIONSHIP('SRR','None',#1630,#12);
#12=ADVANCED_BREP_SHAPE_REPRESENTATION('',(#86,#87,#88),#1622);
#13=FACE_BOUND('',#164,.T.);
#14=FACE_BOUND('',#165,.T.);
#15=FACE_BOUND('',#166,.T.);
#16=FACE_BOUND('',#167,.T.);
#17=FACE_BOUND('',#168,.T.);
#18=FACE_BOUND('',#172,.T.);
#19=FACE_BOUND('',#175,.T.);
#20=FACE_BOUND('',#176,.T.);
#21=FACE_BOUND('',#177,.T.);
#22=FACE_BOUND('',#178,.T.);
#23=FACE_BOUND('',#198,.T.);
#24=FACE_BOUND('',#199,.T.);
#25=FACE_BOUND('',#200,.T.);
#26=FACE_BOUND('',#201,.T.);
#27=FACE_BOUND('',#202,.T.);
#28=FACE_BOUND('',#203,.T.);
#29=FACE_BOUND('',#204,.T.);
#30=FACE_BOUND('',#205,.T.);
#31=FACE_BOUND('',#207,.T.);
#32=FACE_BOUND('',#208,.T.);
#33=FACE_BOUND('',#209,.T.);
#34=FACE_BOUND('',#210,.T.);
#35=FACE_BOUND('',#211,.T.);
#36=FACE_BOUND('',#212,.T.);
#37=FACE_BOUND('',#213,.T.);
#38=FACE_BOUND('',#214,.T.);
#39=CIRCLE('',#1012,1.45);
#40=CIRCLE('',#1013,1.45);
#41=CIRCLE('',#1015,1.45);
#42=CIRCLE('',#1016,1.45);
#43=CIRCLE('',#1018,1.45);
#44=CIRCLE('',#1019,1.45);
#45=CIRCLE('',#1021,1.45);
#46=CIRCLE('',#1022,1.45);
#47=CIRCLE('',#1024,0.699999999999998);
#48=CIRCLE('',#1025,0.699999999999998);
#49=CIRCLE('',#1026,0.699999999999998);
#50=CIRCLE('',#1028,0.699999999999997);
#51=CIRCLE('',#1030,0.699999999999997);
#52=CIRCLE('',#1031,0.699999999999997);
#53=CIRCLE('',#1034,0.699999999999998);
#54=CIRCLE('',#1035,0.699999999999998);
#55=CIRCLE('',#1038,0.699999999999997);
#56=CIRCLE('',#1039,0.699999999999997);
#57=CIRCLE('',#1054,1.45);
#58=CIRCLE('',#1055,1.45);
#59=CIRCLE('',#1057,1.45);
#60=CIRCLE('',#1058,1.45);
#61=CIRCLE('',#1060,1.45);
#62=CIRCLE('',#1061,1.45);
#63=CIRCLE('',#1063,1.45);
#64=CIRCLE('',#1064,1.45);
#65=CIRCLE('',#1070,5.);
#66=CIRCLE('',#1071,5.);
#67=CIRCLE('',#1073,5.);
#68=CIRCLE('',#1074,5.);
#69=CYLINDRICAL_SURFACE('',#1011,1.45);
#70=CYLINDRICAL_SURFACE('',#1014,1.45);
#71=CYLINDRICAL_SURFACE('',#1017,1.45);
#72=CYLINDRICAL_SURFACE('',#1020,1.45);
#73=CYLINDRICAL_SURFACE('',#1023,0.699999999999998);
#74=CYLINDRICAL_SURFACE('',#1029,0.699999999999997);
#75=CYLINDRICAL_SURFACE('',#1033,0.699999999999998);
#76=CYLINDRICAL_SURFACE('',#1037,0.699999999999997);
#77=CYLINDRICAL_SURFACE('',#1053,1.45);
#78=CYLINDRICAL_SURFACE('',#1056,1.45);
#79=CYLINDRICAL_SURFACE('',#1059,1.45);
#80=CYLINDRICAL_SURFACE('',#1062,1.45);
#81=CYLINDRICAL_SURFACE('',#1069,5.);
#82=CYLINDRICAL_SURFACE('',#1072,5.);
#83=STYLED_ITEM('',(#1639),#86);
#84=STYLED_ITEM('',(#1639),#87);
#85=STYLED_ITEM('',(#1639),#88);
#86=MANIFOLD_SOLID_BREP('Body1',#989);
#87=MANIFOLD_SOLID_BREP('Body2',#990);
#88=MANIFOLD_SOLID_BREP('Body3',#991);
#89=FACE_OUTER_BOUND('',#139,.T.);
#90=FACE_OUTER_BOUND('',#140,.T.);
#91=FACE_OUTER_BOUND('',#141,.T.);
#92=FACE_OUTER_BOUND('',#142,.T.);
#93=FACE_OUTER_BOUND('',#143,.T.);
#94=FACE_OUTER_BOUND('',#144,.T.);
#95=FACE_OUTER_BOUND('',#145,.T.);
#96=FACE_OUTER_BOUND('',#146,.T.);
#97=FACE_OUTER_BOUND('',#147,.T.);
#98=FACE_OUTER_BOUND('',#148,.T.);
#99=FACE_OUTER_BOUND('',#149,.T.);
#100=FACE_OUTER_BOUND('',#150,.T.);
#101=FACE_OUTER_BOUND('',#151,.T.);
#102=FACE_OUTER_BOUND('',#152,.T.);
#103=FACE_OUTER_BOUND('',#153,.T.);
#104=FACE_OUTER_BOUND('',#154,.T.);
#105=FACE_OUTER_BOUND('',#155,.T.);
#106=FACE_OUTER_BOUND('',#156,.T.);
#107=FACE_OUTER_BOUND('',#157,.T.);
#108=FACE_OUTER_BOUND('',#158,.T.);
#109=FACE_OUTER_BOUND('',#159,.T.);
#110=FACE_OUTER_BOUND('',#160,.T.);
#111=FACE_OUTER_BOUND('',#161,.T.);
#112=FACE_OUTER_BOUND('',#162,.T.);
#113=FACE_OUTER_BOUND('',#163,.T.);
#114=FACE_OUTER_BOUND('',#169,.T.);
#115=FACE_OUTER_BOUND('',#170,.T.);
#116=FACE_OUTER_BOUND('',#171,.T.);
#117=FACE_OUTER_BOUND('',#173,.T.);
#118=FACE_OUTER_BOUND('',#174,.T.);
#119=FACE_OUTER_BOUND('',#179,.T.);
#120=FACE_OUTER_BOUND('',#180,.T.);
#121=FACE_OUTER_BOUND('',#181,.T.);
#122=FACE_OUTER_BOUND('',#182,.T.);
#123=FACE_OUTER_BOUND('',#183,.T.);
#124=FACE_OUTER_BOUND('',#184,.T.);
#125=FACE_OUTER_BOUND('',#185,.T.);
#126=FACE_OUTER_BOUND('',#186,.T.);
#127=FACE_OUTER_BOUND('',#187,.T.);
#128=FACE_OUTER_BOUND('',#188,.T.);
#129=FACE_OUTER_BOUND('',#189,.T.);
#130=FACE_OUTER_BOUND('',#190,.T.);
#131=FACE_OUTER_BOUND('',#191,.T.);
#132=FACE_OUTER_BOUND('',#192,.T.);
#133=FACE_OUTER_BOUND('',#193,.T.);
#134=FACE_OUTER_BOUND('',#194,.T.);
#135=FACE_OUTER_BOUND('',#195,.T.);
#136=FACE_OUTER_BOUND('',#196,.T.);
#137=FACE_OUTER_BOUND('',#197,.T.);
#138=FACE_OUTER_BOUND('',#206,.T.);
#139=EDGE_LOOP('',(#639,#640,#641,#642));
#140=EDGE_LOOP('',(#643,#644,#645,#646));
#141=EDGE_LOOP('',(#647,#648,#649,#650));
#142=EDGE_LOOP('',(#651,#652,#653,#654));
#143=EDGE_LOOP('',(#655,#656,#657,#658));
#144=EDGE_LOOP('',(#659,#660,#661,#662));
#145=EDGE_LOOP('',(#663,#664,#665,#666));
#146=EDGE_LOOP('',(#667,#668,#669,#670));
#147=EDGE_LOOP('',(#671,#672,#673,#674));
#148=EDGE_LOOP('',(#675,#676,#677,#678));
#149=EDGE_LOOP('',(#679,#680,#681,#682,#683,#684));
#150=EDGE_LOOP('',(#685,#686,#687,#688));
#151=EDGE_LOOP('',(#689,#690,#691,#692,#693,#694));
#152=EDGE_LOOP('',(#695,#696,#697,#698));
#153=EDGE_LOOP('',(#699,#700,#701,#702));
#154=EDGE_LOOP('',(#703,#704,#705,#706));
#155=EDGE_LOOP('',(#707,#708,#709,#710));
#156=EDGE_LOOP('',(#711,#712,#713,#714));
#157=EDGE_LOOP('',(#715,#716,#717,#718));
#158=EDGE_LOOP('',(#719,#720,#721,#722,#723,#724,#725,#726));
#159=EDGE_LOOP('',(#727,#728,#729,#730));
#160=EDGE_LOOP('',(#731,#732,#733,#734));
#161=EDGE_LOOP('',(#735,#736,#737,#738,#739,#740,#741,#742,#743,#744,#745,
#746));
#162=EDGE_LOOP('',(#747,#748,#749,#750));
#163=EDGE_LOOP('',(#751,#752,#753,#754));
#164=EDGE_LOOP('',(#755,#756,#757,#758));
#165=EDGE_LOOP('',(#759));
#166=EDGE_LOOP('',(#760));
#167=EDGE_LOOP('',(#761));
#168=EDGE_LOOP('',(#762));
#169=EDGE_LOOP('',(#763,#764,#765,#766));
#170=EDGE_LOOP('',(#767,#768,#769,#770));
#171=EDGE_LOOP('',(#771,#772,#773,#774));
#172=EDGE_LOOP('',(#775,#776,#777,#778,#779,#780,#781,#782));
#173=EDGE_LOOP('',(#783,#784,#785,#786));
#174=EDGE_LOOP('',(#787,#788,#789,#790));
#175=EDGE_LOOP('',(#791));
#176=EDGE_LOOP('',(#792));
#177=EDGE_LOOP('',(#793));
#178=EDGE_LOOP('',(#794));
#179=EDGE_LOOP('',(#795,#796,#797,#798));
#180=EDGE_LOOP('',(#799,#800,#801,#802));
#181=EDGE_LOOP('',(#803,#804,#805,#806));
#182=EDGE_LOOP('',(#807,#808,#809,#810));
#183=EDGE_LOOP('',(#811,#812,#813,#814));
#184=EDGE_LOOP('',(#815,#816,#817,#818));
#185=EDGE_LOOP('',(#819,#820,#821,#822));
#186=EDGE_LOOP('',(#823,#824,#825,#826));
#187=EDGE_LOOP('',(#827,#828,#829,#830));
#188=EDGE_LOOP('',(#831,#832,#833,#834));
#189=EDGE_LOOP('',(#835,#836,#837,#838));
#190=EDGE_LOOP('',(#839,#840,#841,#842));
#191=EDGE_LOOP('',(#843,#844,#845,#846));
#192=EDGE_LOOP('',(#847,#848,#849,#850));
#193=EDGE_LOOP('',(#851,#852,#853,#854));
#194=EDGE_LOOP('',(#855,#856,#857,#858));
#195=EDGE_LOOP('',(#859,#860,#861,#862));
#196=EDGE_LOOP('',(#863,#864,#865,#866));
#197=EDGE_LOOP('',(#867,#868,#869,#870));
#198=EDGE_LOOP('',(#871,#872,#873,#874));
#199=EDGE_LOOP('',(#875));
#200=EDGE_LOOP('',(#876));
#201=EDGE_LOOP('',(#877,#878,#879,#880));
#202=EDGE_LOOP('',(#881));
#203=EDGE_LOOP('',(#882));
#204=EDGE_LOOP('',(#883));
#205=EDGE_LOOP('',(#884));
#206=EDGE_LOOP('',(#885,#886,#887,#888));
#207=EDGE_LOOP('',(#889,#890,#891,#892));
#208=EDGE_LOOP('',(#893));
#209=EDGE_LOOP('',(#894));
#210=EDGE_LOOP('',(#895,#896,#897,#898));
#211=EDGE_LOOP('',(#899));
#212=EDGE_LOOP('',(#900));
#213=EDGE_LOOP('',(#901));
#214=EDGE_LOOP('',(#902));
#215=LINE('',#1353,#317);
#216=LINE('',#1355,#318);
#217=LINE('',#1357,#319);
#218=LINE('',#1358,#320);
#219=LINE('',#1361,#321);
#220=LINE('',#1363,#322);
#221=LINE('',#1364,#323);
#222=LINE('',#1367,#324);
#223=LINE('',#1369,#325);
#224=LINE('',#1370,#326);
#225=LINE('',#1372,#327);
#226=LINE('',#1373,#328);
#227=LINE('',#1380,#329);
#228=LINE('',#1386,#330);
#229=LINE('',#1392,#331);
#230=LINE('',#1398,#332);
#231=LINE('',#1405,#333);
#232=LINE('',#1409,#334);
#233=LINE('',#1412,#335);
#234=LINE('',#1415,#336);
#235=LINE('',#1417,#337);
#236=LINE('',#1421,#338);
#237=LINE('',#1423,#339);
#238=LINE('',#1427,#340);
#239=LINE('',#1431,#341);
#240=LINE('',#1433,#342);
#241=LINE('',#1434,#343);
#242=LINE('',#1440,#344);
#243=LINE('',#1443,#345);
#244=LINE('',#1445,#346);
#245=LINE('',#1446,#347);
#246=LINE('',#1452,#348);
#247=LINE('',#1454,#349);
#248=LINE('',#1455,#350);
#249=LINE('',#1457,#351);
#250=LINE('',#1460,#352);
#251=LINE('',#1462,#353);
#252=LINE('',#1464,#354);
#253=LINE('',#1466,#355);
#254=LINE('',#1467,#356);
#255=LINE('',#1470,#357);
#256=LINE('',#1472,#358);
#257=LINE('',#1473,#359);
#258=LINE('',#1476,#360);
#259=LINE('',#1477,#361);
#260=LINE('',#1480,#362);
#261=LINE('',#1481,#363);
#262=LINE('',#1483,#364);
#263=LINE('',#1487,#365);
#264=LINE('',#1489,#366);
#265=LINE('',#1491,#367);
#266=LINE('',#1492,#368);
#267=LINE('',#1496,#369);
#268=LINE('',#1497,#370);
#269=LINE('',#1498,#371);
#270=LINE('',#1501,#372);
#271=LINE('',#1502,#373);
#272=LINE('',#1505,#374);
#273=LINE('',#1506,#375);
#274=LINE('',#1508,#376);
#275=LINE('',#1514,#377);
#276=LINE('',#1520,#378);
#277=LINE('',#1526,#379);
#278=LINE('',#1532,#380);
#279=LINE('',#1537,#381);
#280=LINE('',#1539,#382);
#281=LINE('',#1541,#383);
#282=LINE('',#1542,#384);
#283=LINE('',#1545,#385);
#284=LINE('',#1547,#386);
#285=LINE('',#1548,#387);
#286=LINE('',#1551,#388);
#287=LINE('',#1553,#389);
#288=LINE('',#1554,#390);
#289=LINE('',#1556,#391);
#290=LINE('',#1557,#392);
#291=LINE('',#1562,#393);
#292=LINE('',#1568,#394);
#293=LINE('',#1573,#395);
#294=LINE('',#1575,#396);
#295=LINE('',#1577,#397);
#296=LINE('',#1578,#398);
#297=LINE('',#1581,#399);
#298=LINE('',#1583,#400);
#299=LINE('',#1584,#401);
#300=LINE('',#1587,#402);
#301=LINE('',#1589,#403);
#302=LINE('',#1590,#404);
#303=LINE('',#1592,#405);
#304=LINE('',#1593,#406);
#305=LINE('',#1597,#407);
#306=LINE('',#1599,#408);
#307=LINE('',#1601,#409);
#308=LINE('',#1602,#410);
#309=LINE('',#1605,#411);
#310=LINE('',#1607,#412);
#311=LINE('',#1608,#413);
#312=LINE('',#1611,#414);
#313=LINE('',#1613,#415);
#314=LINE('',#1614,#416);
#315=LINE('',#1616,#417);
#316=LINE('',#1617,#418);
#317=VECTOR('',#1089,10.);
#318=VECTOR('',#1090,10.);
#319=VECTOR('',#1091,10.);
#320=VECTOR('',#1092,10.);
#321=VECTOR('',#1095,10.);
#322=VECTOR('',#1096,10.);
#323=VECTOR('',#1097,10.);
#324=VECTOR('',#1100,10.);
#325=VECTOR('',#1101,10.);
#326=VECTOR('',#1102,10.);
#327=VECTOR('',#1105,10.);
#328=VECTOR('',#1106,10.);
#329=VECTOR('',#1115,1.45);
#330=VECTOR('',#1122,1.45);
#331=VECTOR('',#1129,1.45);
#332=VECTOR('',#1136,1.45);
#333=VECTOR('',#1143,10.);
#334=VECTOR('',#1146,10.);
#335=VECTOR('',#1149,10.);
#336=VECTOR('',#1152,10.);
#337=VECTOR('',#1153,10.);
#338=VECTOR('',#1158,10.);
#339=VECTOR('',#1159,10.);
#340=VECTOR('',#1162,10.);
#341=VECTOR('',#1167,10.);
#342=VECTOR('',#1168,10.);
#343=VECTOR('',#1169,10.);
#344=VECTOR('',#1176,10.);
#345=VECTOR('',#1179,10.);
#346=VECTOR('',#1180,10.);
#347=VECTOR('',#1181,10.);
#348=VECTOR('',#1188,10.);
#349=VECTOR('',#1191,10.);
#350=VECTOR('',#1192,10.);
#351=VECTOR('',#1195,10.);
#352=VECTOR('',#1198,10.);
#353=VECTOR('',#1199,10.);
#354=VECTOR('',#1200,10.);
#355=VECTOR('',#1201,10.);
#356=VECTOR('',#1202,10.);
#357=VECTOR('',#1205,10.);
#358=VECTOR('',#1206,10.);
#359=VECTOR('',#1207,10.);
#360=VECTOR('',#1210,10.);
#361=VECTOR('',#1211,10.);
#362=VECTOR('',#1214,10.);
#363=VECTOR('',#1215,10.);
#364=VECTOR('',#1218,10.);
#365=VECTOR('',#1221,10.);
#366=VECTOR('',#1222,10.);
#367=VECTOR('',#1223,10.);
#368=VECTOR('',#1224,10.);
#369=VECTOR('',#1227,10.);
#370=VECTOR('',#1228,10.);
#371=VECTOR('',#1229,10.);
#372=VECTOR('',#1232,10.);
#373=VECTOR('',#1233,10.);
#374=VECTOR('',#1236,10.);
#375=VECTOR('',#1237,10.);
#376=VECTOR('',#1240,10.);
#377=VECTOR('',#1247,1.45);
#378=VECTOR('',#1254,1.45);
#379=VECTOR('',#1261,1.45);
#380=VECTOR('',#1268,1.45);
#381=VECTOR('',#1273,10.);
#382=VECTOR('',#1274,10.);
#383=VECTOR('',#1275,10.);
#384=VECTOR('',#1276,10.);
#385=VECTOR('',#1279,10.);
#386=VECTOR('',#1280,10.);
#387=VECTOR('',#1281,10.);
#388=VECTOR('',#1284,10.);
#389=VECTOR('',#1285,10.);
#390=VECTOR('',#1286,10.);
#391=VECTOR('',#1289,10.);
#392=VECTOR('',#1290,10.);
#393=VECTOR('',#1295,5.);
#394=VECTOR('',#1302,5.);
#395=VECTOR('',#1307,10.);
#396=VECTOR('',#1308,10.);
#397=VECTOR('',#1309,10.);
#398=VECTOR('',#1310,10.);
#399=VECTOR('',#1313,10.);
#400=VECTOR('',#1314,10.);
#401=VECTOR('',#1315,10.);
#402=VECTOR('',#1318,10.);
#403=VECTOR('',#1319,10.);
#404=VECTOR('',#1320,10.);
#405=VECTOR('',#1323,10.);
#406=VECTOR('',#1324,10.);
#407=VECTOR('',#1327,10.);
#408=VECTOR('',#1328,10.);
#409=VECTOR('',#1329,10.);
#410=VECTOR('',#1330,10.);
#411=VECTOR('',#1333,10.);
#412=VECTOR('',#1334,10.);
#413=VECTOR('',#1335,10.);
#414=VECTOR('',#1338,10.);
#415=VECTOR('',#1339,10.);
#416=VECTOR('',#1340,10.);
#417=VECTOR('',#1343,10.);
#418=VECTOR('',#1344,10.);
#419=VERTEX_POINT('',#1351);
#420=VERTEX_POINT('',#1352);
#421=VERTEX_POINT('',#1354);
#422=VERTEX_POINT('',#1356);
#423=VERTEX_POINT('',#1360);
#424=VERTEX_POINT('',#1362);
#425=VERTEX_POINT('',#1366);
#426=VERTEX_POINT('',#1368);
#427=VERTEX_POINT('',#1377);
#428=VERTEX_POINT('',#1379);
#429=VERTEX_POINT('',#1383);
#430=VERTEX_POINT('',#1385);
#431=VERTEX_POINT('',#1389);
#432=VERTEX_POINT('',#1391);
#433=VERTEX_POINT('',#1395);
#434=VERTEX_POINT('',#1397);
#435=VERTEX_POINT('',#1401);
#436=VERTEX_POINT('',#1402);
#437=VERTEX_POINT('',#1404);
#438=VERTEX_POINT('',#1406);
#439=VERTEX_POINT('',#1408);
#440=VERTEX_POINT('',#1410);
#441=VERTEX_POINT('',#1414);
#442=VERTEX_POINT('',#1416);
#443=VERTEX_POINT('',#1420);
#444=VERTEX_POINT('',#1422);
#445=VERTEX_POINT('',#1424);
#446=VERTEX_POINT('',#1426);
#447=VERTEX_POINT('',#1430);
#448=VERTEX_POINT('',#1432);
#449=VERTEX_POINT('',#1436);
#450=VERTEX_POINT('',#1438);
#451=VERTEX_POINT('',#1442);
#452=VERTEX_POINT('',#1444);
#453=VERTEX_POINT('',#1448);
#454=VERTEX_POINT('',#1450);
#455=VERTEX_POINT('',#1459);
#456=VERTEX_POINT('',#1461);
#457=VERTEX_POINT('',#1463);
#458=VERTEX_POINT('',#1465);
#459=VERTEX_POINT('',#1469);
#460=VERTEX_POINT('',#1471);
#461=VERTEX_POINT('',#1475);
#462=VERTEX_POINT('',#1479);
#463=VERTEX_POINT('',#1485);
#464=VERTEX_POINT('',#1486);
#465=VERTEX_POINT('',#1488);
#466=VERTEX_POINT('',#1490);
#467=VERTEX_POINT('',#1494);
#468=VERTEX_POINT('',#1495);
#469=VERTEX_POINT('',#1500);
#470=VERTEX_POINT('',#1504);
#471=VERTEX_POINT('',#1511);
#472=VERTEX_POINT('',#1513);
#473=VERTEX_POINT('',#1517);
#474=VERTEX_POINT('',#1519);
#475=VERTEX_POINT('',#1523);
#476=VERTEX_POINT('',#1525);
#477=VERTEX_POINT('',#1529);
#478=VERTEX_POINT('',#1531);
#479=VERTEX_POINT('',#1535);
#480=VERTEX_POINT('',#1536);
#481=VERTEX_POINT('',#1538);
#482=VERTEX_POINT('',#1540);
#483=VERTEX_POINT('',#1544);
#484=VERTEX_POINT('',#1546);
#485=VERTEX_POINT('',#1550);
#486=VERTEX_POINT('',#1552);
#487=VERTEX_POINT('',#1559);
#488=VERTEX_POINT('',#1561);
#489=VERTEX_POINT('',#1565);
#490=VERTEX_POINT('',#1567);
#491=VERTEX_POINT('',#1571);
#492=VERTEX_POINT('',#1572);
#493=VERTEX_POINT('',#1574);
#494=VERTEX_POINT('',#1576);
#495=VERTEX_POINT('',#1580);
#496=VERTEX_POINT('',#1582);
#497=VERTEX_POINT('',#1586);
#498=VERTEX_POINT('',#1588);
#499=VERTEX_POINT('',#1595);
#500=VERTEX_POINT('',#1596);
#501=VERTEX_POINT('',#1598);
#502=VERTEX_POINT('',#1600);
#503=VERTEX_POINT('',#1604);
#504=VERTEX_POINT('',#1606);
#505=VERTEX_POINT('',#1610);
#506=VERTEX_POINT('',#1612);
#507=EDGE_CURVE('',#419,#420,#215,.T.);
#508=EDGE_CURVE('',#420,#421,#216,.T.);
#509=EDGE_CURVE('',#422,#421,#217,.T.);
#510=EDGE_CURVE('',#419,#422,#218,.T.);
#511=EDGE_CURVE('',#423,#419,#219,.T.);
#512=EDGE_CURVE('',#424,#422,#220,.T.);
#513=EDGE_CURVE('',#423,#424,#221,.T.);
#514=EDGE_CURVE('',#425,#423,#222,.T.);
#515=EDGE_CURVE('',#426,#424,#223,.T.);
#516=EDGE_CURVE('',#425,#426,#224,.T.);
#517=EDGE_CURVE('',#420,#425,#225,.T.);
#518=EDGE_CURVE('',#421,#426,#226,.T.);
#519=EDGE_CURVE('',#427,#427,#39,.T.);
#520=EDGE_CURVE('',#427,#428,#227,.T.);
#521=EDGE_CURVE('',#428,#428,#40,.T.);
#522=EDGE_CURVE('',#429,#429,#41,.T.);
#523=EDGE_CURVE('',#429,#430,#228,.T.);
#524=EDGE_CURVE('',#430,#430,#42,.T.);
#525=EDGE_CURVE('',#431,#431,#43,.T.);
#526=EDGE_CURVE('',#431,#432,#229,.T.);
#527=EDGE_CURVE('',#432,#432,#44,.T.);
#528=EDGE_CURVE('',#433,#433,#45,.T.);
#529=EDGE_CURVE('',#433,#434,#230,.T.);
#530=EDGE_CURVE('',#434,#434,#46,.T.);
#531=EDGE_CURVE('',#435,#436,#47,.T.);
#532=EDGE_CURVE('',#437,#435,#231,.T.);
#533=EDGE_CURVE('',#438,#437,#48,.T.);
#534=EDGE_CURVE('',#438,#439,#232,.T.);
#535=EDGE_CURVE('',#439,#440,#49,.T.);
#536=EDGE_CURVE('',#436,#440,#233,.T.);
#537=EDGE_CURVE('',#440,#441,#234,.T.);
#538=EDGE_CURVE('',#442,#439,#235,.T.);
#539=EDGE_CURVE('',#441,#442,#50,.T.);
#540=EDGE_CURVE('',#441,#443,#236,.T.);
#541=EDGE_CURVE('',#444,#442,#237,.T.);
#542=EDGE_CURVE('',#445,#444,#51,.T.);
#543=EDGE_CURVE('',#445,#446,#238,.T.);
#544=EDGE_CURVE('',#443,#446,#52,.T.);
#545=EDGE_CURVE('',#446,#447,#239,.T.);
#546=EDGE_CURVE('',#448,#445,#240,.T.);
#547=EDGE_CURVE('',#448,#447,#241,.T.);
#548=EDGE_CURVE('',#447,#449,#53,.T.);
#549=EDGE_CURVE('',#450,#448,#54,.T.);
#550=EDGE_CURVE('',#450,#449,#242,.T.);
#551=EDGE_CURVE('',#449,#451,#243,.T.);
#552=EDGE_CURVE('',#452,#450,#244,.T.);
#553=EDGE_CURVE('',#452,#451,#245,.T.);
#554=EDGE_CURVE('',#451,#453,#55,.T.);
#555=EDGE_CURVE('',#454,#452,#56,.T.);
#556=EDGE_CURVE('',#454,#453,#246,.T.);
#557=EDGE_CURVE('',#453,#435,#247,.T.);
#558=EDGE_CURVE('',#437,#454,#248,.T.);
#559=EDGE_CURVE('',#444,#438,#249,.T.);
#560=EDGE_CURVE('',#443,#455,#250,.T.);
#561=EDGE_CURVE('',#455,#456,#251,.T.);
#562=EDGE_CURVE('',#456,#457,#252,.T.);
#563=EDGE_CURVE('',#457,#458,#253,.T.);
#564=EDGE_CURVE('',#458,#436,#254,.T.);
#565=EDGE_CURVE('',#457,#459,#255,.T.);
#566=EDGE_CURVE('',#460,#459,#256,.T.);
#567=EDGE_CURVE('',#458,#460,#257,.T.);
#568=EDGE_CURVE('',#456,#461,#258,.T.);
#569=EDGE_CURVE('',#459,#461,#259,.T.);
#570=EDGE_CURVE('',#462,#460,#260,.T.);
#571=EDGE_CURVE('',#455,#462,#261,.T.);
#572=EDGE_CURVE('',#461,#462,#262,.T.);
#573=EDGE_CURVE('',#463,#464,#263,.T.);
#574=EDGE_CURVE('',#464,#465,#264,.T.);
#575=EDGE_CURVE('',#465,#466,#265,.T.);
#576=EDGE_CURVE('',#466,#463,#266,.T.);
#577=EDGE_CURVE('',#467,#468,#267,.T.);
#578=EDGE_CURVE('',#467,#463,#268,.T.);
#579=EDGE_CURVE('',#468,#466,#269,.T.);
#580=EDGE_CURVE('',#468,#469,#270,.T.);
#581=EDGE_CURVE('',#469,#465,#271,.T.);
#582=EDGE_CURVE('',#469,#470,#272,.T.);
#583=EDGE_CURVE('',#470,#464,#273,.T.);
#584=EDGE_CURVE('',#470,#467,#274,.T.);
#585=EDGE_CURVE('',#471,#471,#57,.T.);
#586=EDGE_CURVE('',#471,#472,#275,.T.);
#587=EDGE_CURVE('',#472,#472,#58,.T.);
#588=EDGE_CURVE('',#473,#473,#59,.T.);
#589=EDGE_CURVE('',#473,#474,#276,.T.);
#590=EDGE_CURVE('',#474,#474,#60,.T.);
#591=EDGE_CURVE('',#475,#475,#61,.T.);
#592=EDGE_CURVE('',#475,#476,#277,.T.);
#593=EDGE_CURVE('',#476,#476,#62,.T.);
#594=EDGE_CURVE('',#477,#477,#63,.T.);
#595=EDGE_CURVE('',#477,#478,#278,.T.);
#596=EDGE_CURVE('',#478,#478,#64,.T.);
#597=EDGE_CURVE('',#479,#480,#279,.T.);
#598=EDGE_CURVE('',#479,#481,#280,.T.);
#599=EDGE_CURVE('',#482,#481,#281,.T.);
#600=EDGE_CURVE('',#480,#482,#282,.T.);
#601=EDGE_CURVE('',#483,#479,#283,.T.);
#602=EDGE_CURVE('',#483,#484,#284,.T.);
#603=EDGE_CURVE('',#481,#484,#285,.T.);
#604=EDGE_CURVE('',#485,#483,#286,.T.);
#605=EDGE_CURVE('',#485,#486,#287,.T.);
#606=EDGE_CURVE('',#484,#486,#288,.T.);
#607=EDGE_CURVE('',#480,#485,#289,.T.);
#608=EDGE_CURVE('',#486,#482,#290,.T.);
#609=EDGE_CURVE('',#487,#487,#65,.T.);
#610=EDGE_CURVE('',#487,#488,#291,.T.);
#611=EDGE_CURVE('',#488,#488,#66,.T.);
#612=EDGE_CURVE('',#489,#489,#67,.T.);
#613=EDGE_CURVE('',#489,#490,#292,.T.);
#614=EDGE_CURVE('',#490,#490,#68,.T.);
#615=EDGE_CURVE('',#491,#492,#293,.T.);
#616=EDGE_CURVE('',#492,#493,#294,.T.);
#617=EDGE_CURVE('',#494,#493,#295,.T.);
#618=EDGE_CURVE('',#491,#494,#296,.T.);
#619=EDGE_CURVE('',#495,#491,#297,.T.);
#620=EDGE_CURVE('',#496,#494,#298,.T.);
#621=EDGE_CURVE('',#495,#496,#299,.T.);
#622=EDGE_CURVE('',#497,#495,#300,.T.);
#623=EDGE_CURVE('',#498,#496,#301,.T.);
#624=EDGE_CURVE('',#497,#498,#302,.T.);
#625=EDGE_CURVE('',#492,#497,#303,.T.);
#626=EDGE_CURVE('',#493,#498,#304,.T.);
#627=EDGE_CURVE('',#499,#500,#305,.T.);
#628=EDGE_CURVE('',#500,#501,#306,.T.);
#629=EDGE_CURVE('',#502,#501,#307,.T.);
#630=EDGE_CURVE('',#499,#502,#308,.T.);
#631=EDGE_CURVE('',#503,#499,#309,.T.);
#632=EDGE_CURVE('',#504,#502,#310,.T.);
#633=EDGE_CURVE('',#503,#504,#311,.T.);
#634=EDGE_CURVE('',#505,#503,#312,.T.);
#635=EDGE_CURVE('',#506,#504,#313,.T.);
#636=EDGE_CURVE('',#505,#506,#314,.T.);
#637=EDGE_CURVE('',#500,#505,#315,.T.);
#638=EDGE_CURVE('',#501,#506,#316,.T.);
#639=ORIENTED_EDGE('',*,*,#507,.T.);
#640=ORIENTED_EDGE('',*,*,#508,.T.);
#641=ORIENTED_EDGE('',*,*,#509,.F.);
#642=ORIENTED_EDGE('',*,*,#510,.F.);
#643=ORIENTED_EDGE('',*,*,#511,.T.);
#644=ORIENTED_EDGE('',*,*,#510,.T.);
#645=ORIENTED_EDGE('',*,*,#512,.F.);
#646=ORIENTED_EDGE('',*,*,#513,.F.);
#647=ORIENTED_EDGE('',*,*,#514,.T.);
#648=ORIENTED_EDGE('',*,*,#513,.T.);
#649=ORIENTED_EDGE('',*,*,#515,.F.);
#650=ORIENTED_EDGE('',*,*,#516,.F.);
#651=ORIENTED_EDGE('',*,*,#517,.T.);
#652=ORIENTED_EDGE('',*,*,#516,.T.);
#653=ORIENTED_EDGE('',*,*,#518,.F.);
#654=ORIENTED_EDGE('',*,*,#508,.F.);
#655=ORIENTED_EDGE('',*,*,#518,.T.);
#656=ORIENTED_EDGE('',*,*,#515,.T.);
#657=ORIENTED_EDGE('',*,*,#512,.T.);
#658=ORIENTED_EDGE('',*,*,#509,.T.);
#659=ORIENTED_EDGE('',*,*,#517,.F.);
#660=ORIENTED_EDGE('',*,*,#507,.F.);
#661=ORIENTED_EDGE('',*,*,#511,.F.);
#662=ORIENTED_EDGE('',*,*,#514,.F.);
#663=ORIENTED_EDGE('',*,*,#519,.F.);
#664=ORIENTED_EDGE('',*,*,#520,.T.);
#665=ORIENTED_EDGE('',*,*,#521,.F.);
#666=ORIENTED_EDGE('',*,*,#520,.F.);
#667=ORIENTED_EDGE('',*,*,#522,.F.);
#668=ORIENTED_EDGE('',*,*,#523,.T.);
#669=ORIENTED_EDGE('',*,*,#524,.F.);
#670=ORIENTED_EDGE('',*,*,#523,.F.);
#671=ORIENTED_EDGE('',*,*,#525,.F.);
#672=ORIENTED_EDGE('',*,*,#526,.T.);
#673=ORIENTED_EDGE('',*,*,#527,.F.);
#674=ORIENTED_EDGE('',*,*,#526,.F.);
#675=ORIENTED_EDGE('',*,*,#528,.F.);
#676=ORIENTED_EDGE('',*,*,#529,.T.);
#677=ORIENTED_EDGE('',*,*,#530,.F.);
#678=ORIENTED_EDGE('',*,*,#529,.F.);
#679=ORIENTED_EDGE('',*,*,#531,.F.);
#680=ORIENTED_EDGE('',*,*,#532,.F.);
#681=ORIENTED_EDGE('',*,*,#533,.F.);
#682=ORIENTED_EDGE('',*,*,#534,.T.);
#683=ORIENTED_EDGE('',*,*,#535,.T.);
#684=ORIENTED_EDGE('',*,*,#536,.F.);
#685=ORIENTED_EDGE('',*,*,#537,.F.);
#686=ORIENTED_EDGE('',*,*,#535,.F.);
#687=ORIENTED_EDGE('',*,*,#538,.F.);
#688=ORIENTED_EDGE('',*,*,#539,.F.);
#689=ORIENTED_EDGE('',*,*,#540,.F.);
#690=ORIENTED_EDGE('',*,*,#539,.T.);
#691=ORIENTED_EDGE('',*,*,#541,.F.);
#692=ORIENTED_EDGE('',*,*,#542,.F.);
#693=ORIENTED_EDGE('',*,*,#543,.T.);
#694=ORIENTED_EDGE('',*,*,#544,.F.);
#695=ORIENTED_EDGE('',*,*,#545,.F.);
#696=ORIENTED_EDGE('',*,*,#543,.F.);
#697=ORIENTED_EDGE('',*,*,#546,.F.);
#698=ORIENTED_EDGE('',*,*,#547,.T.);
#699=ORIENTED_EDGE('',*,*,#548,.F.);
#700=ORIENTED_EDGE('',*,*,#547,.F.);
#701=ORIENTED_EDGE('',*,*,#549,.F.);
#702=ORIENTED_EDGE('',*,*,#550,.T.);
#703=ORIENTED_EDGE('',*,*,#551,.F.);
#704=ORIENTED_EDGE('',*,*,#550,.F.);
#705=ORIENTED_EDGE('',*,*,#552,.F.);
#706=ORIENTED_EDGE('',*,*,#553,.T.);
#707=ORIENTED_EDGE('',*,*,#554,.F.);
#708=ORIENTED_EDGE('',*,*,#553,.F.);
#709=ORIENTED_EDGE('',*,*,#555,.F.);
#710=ORIENTED_EDGE('',*,*,#556,.T.);
#711=ORIENTED_EDGE('',*,*,#557,.F.);
#712=ORIENTED_EDGE('',*,*,#556,.F.);
#713=ORIENTED_EDGE('',*,*,#558,.F.);
#714=ORIENTED_EDGE('',*,*,#532,.T.);
#715=ORIENTED_EDGE('',*,*,#559,.F.);
#716=ORIENTED_EDGE('',*,*,#541,.T.);
#717=ORIENTED_EDGE('',*,*,#538,.T.);
#718=ORIENTED_EDGE('',*,*,#534,.F.);
#719=ORIENTED_EDGE('',*,*,#536,.T.);
#720=ORIENTED_EDGE('',*,*,#537,.T.);
#721=ORIENTED_EDGE('',*,*,#540,.T.);
#722=ORIENTED_EDGE('',*,*,#560,.T.);
#723=ORIENTED_EDGE('',*,*,#561,.T.);
#724=ORIENTED_EDGE('',*,*,#562,.T.);
#725=ORIENTED_EDGE('',*,*,#563,.T.);
#726=ORIENTED_EDGE('',*,*,#564,.T.);
#727=ORIENTED_EDGE('',*,*,#563,.F.);
#728=ORIENTED_EDGE('',*,*,#565,.T.);
#729=ORIENTED_EDGE('',*,*,#566,.F.);
#730=ORIENTED_EDGE('',*,*,#567,.F.);
#731=ORIENTED_EDGE('',*,*,#562,.F.);
#732=ORIENTED_EDGE('',*,*,#568,.T.);
#733=ORIENTED_EDGE('',*,*,#569,.F.);
#734=ORIENTED_EDGE('',*,*,#565,.F.);
#735=ORIENTED_EDGE('',*,*,#531,.T.);
#736=ORIENTED_EDGE('',*,*,#564,.F.);
#737=ORIENTED_EDGE('',*,*,#567,.T.);
#738=ORIENTED_EDGE('',*,*,#570,.F.);
#739=ORIENTED_EDGE('',*,*,#571,.F.);
#740=ORIENTED_EDGE('',*,*,#560,.F.);
#741=ORIENTED_EDGE('',*,*,#544,.T.);
#742=ORIENTED_EDGE('',*,*,#545,.T.);
#743=ORIENTED_EDGE('',*,*,#548,.T.);
#744=ORIENTED_EDGE('',*,*,#551,.T.);
#745=ORIENTED_EDGE('',*,*,#554,.T.);
#746=ORIENTED_EDGE('',*,*,#557,.T.);
#747=ORIENTED_EDGE('',*,*,#561,.F.);
#748=ORIENTED_EDGE('',*,*,#571,.T.);
#749=ORIENTED_EDGE('',*,*,#572,.F.);
#750=ORIENTED_EDGE('',*,*,#568,.F.);
#751=ORIENTED_EDGE('',*,*,#573,.T.);
#752=ORIENTED_EDGE('',*,*,#574,.T.);
#753=ORIENTED_EDGE('',*,*,#575,.T.);
#754=ORIENTED_EDGE('',*,*,#576,.T.);
#755=ORIENTED_EDGE('',*,*,#572,.T.);
#756=ORIENTED_EDGE('',*,*,#570,.T.);
#757=ORIENTED_EDGE('',*,*,#566,.T.);
#758=ORIENTED_EDGE('',*,*,#569,.T.);
#759=ORIENTED_EDGE('',*,*,#528,.T.);
#760=ORIENTED_EDGE('',*,*,#525,.T.);
#761=ORIENTED_EDGE('',*,*,#522,.T.);
#762=ORIENTED_EDGE('',*,*,#519,.T.);
#763=ORIENTED_EDGE('',*,*,#577,.F.);
#764=ORIENTED_EDGE('',*,*,#578,.T.);
#765=ORIENTED_EDGE('',*,*,#576,.F.);
#766=ORIENTED_EDGE('',*,*,#579,.F.);
#767=ORIENTED_EDGE('',*,*,#580,.F.);
#768=ORIENTED_EDGE('',*,*,#579,.T.);
#769=ORIENTED_EDGE('',*,*,#575,.F.);
#770=ORIENTED_EDGE('',*,*,#581,.F.);
#771=ORIENTED_EDGE('',*,*,#582,.F.);
#772=ORIENTED_EDGE('',*,*,#581,.T.);
#773=ORIENTED_EDGE('',*,*,#574,.F.);
#774=ORIENTED_EDGE('',*,*,#583,.F.);
#775=ORIENTED_EDGE('',*,*,#546,.T.);
#776=ORIENTED_EDGE('',*,*,#542,.T.);
#777=ORIENTED_EDGE('',*,*,#559,.T.);
#778=ORIENTED_EDGE('',*,*,#533,.T.);
#779=ORIENTED_EDGE('',*,*,#558,.T.);
#780=ORIENTED_EDGE('',*,*,#555,.T.);
#781=ORIENTED_EDGE('',*,*,#552,.T.);
#782=ORIENTED_EDGE('',*,*,#549,.T.);
#783=ORIENTED_EDGE('',*,*,#584,.F.);
#784=ORIENTED_EDGE('',*,*,#583,.T.);
#785=ORIENTED_EDGE('',*,*,#573,.F.);
#786=ORIENTED_EDGE('',*,*,#578,.F.);
#787=ORIENTED_EDGE('',*,*,#584,.T.);
#788=ORIENTED_EDGE('',*,*,#577,.T.);
#789=ORIENTED_EDGE('',*,*,#580,.T.);
#790=ORIENTED_EDGE('',*,*,#582,.T.);
#791=ORIENTED_EDGE('',*,*,#521,.T.);
#792=ORIENTED_EDGE('',*,*,#524,.T.);
#793=ORIENTED_EDGE('',*,*,#527,.T.);
#794=ORIENTED_EDGE('',*,*,#530,.T.);
#795=ORIENTED_EDGE('',*,*,#585,.F.);
#796=ORIENTED_EDGE('',*,*,#586,.T.);
#797=ORIENTED_EDGE('',*,*,#587,.F.);
#798=ORIENTED_EDGE('',*,*,#586,.F.);
#799=ORIENTED_EDGE('',*,*,#588,.F.);
#800=ORIENTED_EDGE('',*,*,#589,.T.);
#801=ORIENTED_EDGE('',*,*,#590,.F.);
#802=ORIENTED_EDGE('',*,*,#589,.F.);
#803=ORIENTED_EDGE('',*,*,#591,.F.);
#804=ORIENTED_EDGE('',*,*,#592,.T.);
#805=ORIENTED_EDGE('',*,*,#593,.F.);
#806=ORIENTED_EDGE('',*,*,#592,.F.);
#807=ORIENTED_EDGE('',*,*,#594,.F.);
#808=ORIENTED_EDGE('',*,*,#595,.T.);
#809=ORIENTED_EDGE('',*,*,#596,.F.);
#810=ORIENTED_EDGE('',*,*,#595,.F.);
#811=ORIENTED_EDGE('',*,*,#597,.F.);
#812=ORIENTED_EDGE('',*,*,#598,.T.);
#813=ORIENTED_EDGE('',*,*,#599,.F.);
#814=ORIENTED_EDGE('',*,*,#600,.F.);
#815=ORIENTED_EDGE('',*,*,#601,.F.);
#816=ORIENTED_EDGE('',*,*,#602,.T.);
#817=ORIENTED_EDGE('',*,*,#603,.F.);
#818=ORIENTED_EDGE('',*,*,#598,.F.);
#819=ORIENTED_EDGE('',*,*,#604,.F.);
#820=ORIENTED_EDGE('',*,*,#605,.T.);
#821=ORIENTED_EDGE('',*,*,#606,.F.);
#822=ORIENTED_EDGE('',*,*,#602,.F.);
#823=ORIENTED_EDGE('',*,*,#607,.F.);
#824=ORIENTED_EDGE('',*,*,#600,.T.);
#825=ORIENTED_EDGE('',*,*,#608,.F.);
#826=ORIENTED_EDGE('',*,*,#605,.F.);
#827=ORIENTED_EDGE('',*,*,#609,.F.);
#828=ORIENTED_EDGE('',*,*,#610,.T.);
#829=ORIENTED_EDGE('',*,*,#611,.F.);
#830=ORIENTED_EDGE('',*,*,#610,.F.);
#831=ORIENTED_EDGE('',*,*,#612,.F.);
#832=ORIENTED_EDGE('',*,*,#613,.T.);
#833=ORIENTED_EDGE('',*,*,#614,.F.);
#834=ORIENTED_EDGE('',*,*,#613,.F.);
#835=ORIENTED_EDGE('',*,*,#615,.T.);
#836=ORIENTED_EDGE('',*,*,#616,.T.);
#837=ORIENTED_EDGE('',*,*,#617,.F.);
#838=ORIENTED_EDGE('',*,*,#618,.F.);
#839=ORIENTED_EDGE('',*,*,#619,.T.);
#840=ORIENTED_EDGE('',*,*,#618,.T.);
#841=ORIENTED_EDGE('',*,*,#620,.F.);
#842=ORIENTED_EDGE('',*,*,#621,.F.);
#843=ORIENTED_EDGE('',*,*,#622,.T.);
#844=ORIENTED_EDGE('',*,*,#621,.T.);
#845=ORIENTED_EDGE('',*,*,#623,.F.);
#846=ORIENTED_EDGE('',*,*,#624,.F.);
#847=ORIENTED_EDGE('',*,*,#625,.T.);
#848=ORIENTED_EDGE('',*,*,#624,.T.);
#849=ORIENTED_EDGE('',*,*,#626,.F.);
#850=ORIENTED_EDGE('',*,*,#616,.F.);
#851=ORIENTED_EDGE('',*,*,#627,.T.);
#852=ORIENTED_EDGE('',*,*,#628,.T.);
#853=ORIENTED_EDGE('',*,*,#629,.F.);
#854=ORIENTED_EDGE('',*,*,#630,.F.);
#855=ORIENTED_EDGE('',*,*,#631,.T.);
#856=ORIENTED_EDGE('',*,*,#630,.T.);
#857=ORIENTED_EDGE('',*,*,#632,.F.);
#858=ORIENTED_EDGE('',*,*,#633,.F.);
#859=ORIENTED_EDGE('',*,*,#634,.T.);
#860=ORIENTED_EDGE('',*,*,#633,.T.);
#861=ORIENTED_EDGE('',*,*,#635,.F.);
#862=ORIENTED_EDGE('',*,*,#636,.F.);
#863=ORIENTED_EDGE('',*,*,#637,.T.);
#864=ORIENTED_EDGE('',*,*,#636,.T.);
#865=ORIENTED_EDGE('',*,*,#638,.F.);
#866=ORIENTED_EDGE('',*,*,#628,.F.);
#867=ORIENTED_EDGE('',*,*,#638,.T.);
#868=ORIENTED_EDGE('',*,*,#635,.T.);
#869=ORIENTED_EDGE('',*,*,#632,.T.);
#870=ORIENTED_EDGE('',*,*,#629,.T.);
#871=ORIENTED_EDGE('',*,*,#626,.T.);
#872=ORIENTED_EDGE('',*,*,#623,.T.);
#873=ORIENTED_EDGE('',*,*,#620,.T.);
#874=ORIENTED_EDGE('',*,*,#617,.T.);
#875=ORIENTED_EDGE('',*,*,#612,.T.);
#876=ORIENTED_EDGE('',*,*,#609,.T.);
#877=ORIENTED_EDGE('',*,*,#597,.T.);
#878=ORIENTED_EDGE('',*,*,#607,.T.);
#879=ORIENTED_EDGE('',*,*,#604,.T.);
#880=ORIENTED_EDGE('',*,*,#601,.T.);
#881=ORIENTED_EDGE('',*,*,#594,.T.);
#882=ORIENTED_EDGE('',*,*,#591,.T.);
#883=ORIENTED_EDGE('',*,*,#588,.T.);
#884=ORIENTED_EDGE('',*,*,#585,.T.);
#885=ORIENTED_EDGE('',*,*,#637,.F.);
#886=ORIENTED_EDGE('',*,*,#627,.F.);
#887=ORIENTED_EDGE('',*,*,#631,.F.);
#888=ORIENTED_EDGE('',*,*,#634,.F.);
#889=ORIENTED_EDGE('',*,*,#625,.F.);
#890=ORIENTED_EDGE('',*,*,#615,.F.);
#891=ORIENTED_EDGE('',*,*,#619,.F.);
#892=ORIENTED_EDGE('',*,*,#622,.F.);
#893=ORIENTED_EDGE('',*,*,#614,.T.);
#894=ORIENTED_EDGE('',*,*,#611,.T.);
#895=ORIENTED_EDGE('',*,*,#599,.T.);
#896=ORIENTED_EDGE('',*,*,#603,.T.);
#897=ORIENTED_EDGE('',*,*,#606,.T.);
#898=ORIENTED_EDGE('',*,*,#608,.T.);
#899=ORIENTED_EDGE('',*,*,#596,.T.);
#900=ORIENTED_EDGE('',*,*,#593,.T.);
#901=ORIENTED_EDGE('',*,*,#590,.T.);
#902=ORIENTED_EDGE('',*,*,#587,.T.);
#903=PLANE('',#1005);
#904=PLANE('',#1006);
#905=PLANE('',#1007);
#906=PLANE('',#1008);
#907=PLANE('',#1009);
#908=PLANE('',#1010);
#909=PLANE('',#1027);
#910=PLANE('',#1032);
#911=PLANE('',#1036);
#912=PLANE('',#1040);
#913=PLANE('',#1041);
#914=PLANE('',#1042);
#915=PLANE('',#1043);
#916=PLANE('',#1044);
#917=PLANE('',#1045);
#918=PLANE('',#1046);
#919=PLANE('',#1047);
#920=PLANE('',#1048);
#921=PLANE('',#1049);
#922=PLANE('',#1050);
#923=PLANE('',#1051);
#924=PLANE('',#1052);
#925=PLANE('',#1065);
#926=PLANE('',#1066);
#927=PLANE('',#1067);
#928=PLANE('',#1068);
#929=PLANE('',#1075);
#930=PLANE('',#1076);
#931=PLANE('',#1077);
#932=PLANE('',#1078);
#933=PLANE('',#1079);
#934=PLANE('',#1080);
#935=PLANE('',#1081);
#936=PLANE('',#1082);
#937=PLANE('',#1083);
#938=PLANE('',#1084);
#939=ADVANCED_FACE('',(#89),#903,.T.);
#940=ADVANCED_FACE('',(#90),#904,.T.);
#941=ADVANCED_FACE('',(#91),#905,.T.);
#942=ADVANCED_FACE('',(#92),#906,.T.);
#943=ADVANCED_FACE('',(#93),#907,.T.);
#944=ADVANCED_FACE('',(#94),#908,.F.);
#945=ADVANCED_FACE('',(#95),#69,.F.);
#946=ADVANCED_FACE('',(#96),#70,.F.);
#947=ADVANCED_FACE('',(#97),#71,.F.);
#948=ADVANCED_FACE('',(#98),#72,.F.);
#949=ADVANCED_FACE('',(#99),#73,.F.);
#950=ADVANCED_FACE('',(#100),#909,.T.);
#951=ADVANCED_FACE('',(#101),#74,.F.);
#952=ADVANCED_FACE('',(#102),#910,.F.);
#953=ADVANCED_FACE('',(#103),#75,.F.);
#954=ADVANCED_FACE('',(#104),#911,.F.);
#955=ADVANCED_FACE('',(#105),#76,.F.);
#956=ADVANCED_FACE('',(#106),#912,.F.);
#957=ADVANCED_FACE('',(#107),#913,.F.);
#958=ADVANCED_FACE('',(#108),#914,.T.);
#959=ADVANCED_FACE('',(#109),#915,.T.);
#960=ADVANCED_FACE('',(#110),#916,.T.);
#961=ADVANCED_FACE('',(#111),#917,.T.);
#962=ADVANCED_FACE('',(#112),#918,.T.);
#963=ADVANCED_FACE('',(#113,#13,#14,#15,#16,#17),#919,.T.);
#964=ADVANCED_FACE('',(#114),#920,.T.);
#965=ADVANCED_FACE('',(#115),#921,.T.);
#966=ADVANCED_FACE('',(#116,#18),#922,.T.);
#967=ADVANCED_FACE('',(#117),#923,.T.);
#968=ADVANCED_FACE('',(#118,#19,#20,#21,#22),#924,.F.);
#969=ADVANCED_FACE('',(#119),#77,.F.);
#970=ADVANCED_FACE('',(#120),#78,.F.);
#971=ADVANCED_FACE('',(#121),#79,.F.);
#972=ADVANCED_FACE('',(#122),#80,.F.);
#973=ADVANCED_FACE('',(#123),#925,.F.);
#974=ADVANCED_FACE('',(#124),#926,.F.);
#975=ADVANCED_FACE('',(#125),#927,.F.);
#976=ADVANCED_FACE('',(#126),#928,.F.);
#977=ADVANCED_FACE('',(#127),#81,.F.);
#978=ADVANCED_FACE('',(#128),#82,.F.);
#979=ADVANCED_FACE('',(#129),#929,.T.);
#980=ADVANCED_FACE('',(#130),#930,.T.);
#981=ADVANCED_FACE('',(#131),#931,.T.);
#982=ADVANCED_FACE('',(#132),#932,.T.);
#983=ADVANCED_FACE('',(#133),#933,.T.);
#984=ADVANCED_FACE('',(#134),#934,.T.);
#985=ADVANCED_FACE('',(#135),#935,.T.);
#986=ADVANCED_FACE('',(#136),#936,.T.);
#987=ADVANCED_FACE('',(#137,#23,#24,#25,#26,#27,#28,#29,#30),#937,.T.);
#988=ADVANCED_FACE('',(#138,#31,#32,#33,#34,#35,#36,#37,#38),#938,.F.);
#989=CLOSED_SHELL('',(#939,#940,#941,#942,#943,#944));
#990=CLOSED_SHELL('',(#945,#946,#947,#948,#949,#950,#951,#952,#953,#954,
#955,#956,#957,#958,#959,#960,#961,#962,#963,#964,#965,#966,#967,#968));
#991=CLOSED_SHELL('',(#969,#970,#971,#972,#973,#974,#975,#976,#977,#978,
#979,#980,#981,#982,#983,#984,#985,#986,#987,#988));
#992=DERIVED_UNIT_ELEMENT(#994,1.);
#993=DERIVED_UNIT_ELEMENT(#1625,-3.);
#994=(
MASS_UNIT()
NAMED_UNIT(*)
SI_UNIT(.KILO.,.GRAM.)
);
#995=DERIVED_UNIT((#992,#993));
#996=MEASURE_REPRESENTATION_ITEM('density measure',
POSITIVE_RATIO_MEASURE(7850.),#995);
#997=PROPERTY_DEFINITION_REPRESENTATION(#1002,#999);
#998=PROPERTY_DEFINITION_REPRESENTATION(#1003,#1000);
#999=REPRESENTATION('material name',(#1001),#1622);
#1000=REPRESENTATION('density',(#996),#1622);
#1001=DESCRIPTIVE_REPRESENTATION_ITEM('Steel','Steel');
#1002=PROPERTY_DEFINITION('material property','material name',#1632);
#1003=PROPERTY_DEFINITION('material property','density of part',#1632);
#1004=AXIS2_PLACEMENT_3D('',#1349,#1085,#1086);
#1005=AXIS2_PLACEMENT_3D('',#1350,#1087,#1088);
#1006=AXIS2_PLACEMENT_3D('',#1359,#1093,#1094);
#1007=AXIS2_PLACEMENT_3D('',#1365,#1098,#1099);
#1008=AXIS2_PLACEMENT_3D('',#1371,#1103,#1104);
#1009=AXIS2_PLACEMENT_3D('',#1374,#1107,#1108);
#1010=AXIS2_PLACEMENT_3D('',#1375,#1109,#1110);
#1011=AXIS2_PLACEMENT_3D('',#1376,#1111,#1112);
#1012=AXIS2_PLACEMENT_3D('',#1378,#1113,#1114);
#1013=AXIS2_PLACEMENT_3D('',#1381,#1116,#1117);
#1014=AXIS2_PLACEMENT_3D('',#1382,#1118,#1119);
#1015=AXIS2_PLACEMENT_3D('',#1384,#1120,#1121);
#1016=AXIS2_PLACEMENT_3D('',#1387,#1123,#1124);
#1017=AXIS2_PLACEMENT_3D('',#1388,#1125,#1126);
#1018=AXIS2_PLACEMENT_3D('',#1390,#1127,#1128);
#1019=AXIS2_PLACEMENT_3D('',#1393,#1130,#1131);
#1020=AXIS2_PLACEMENT_3D('',#1394,#1132,#1133);
#1021=AXIS2_PLACEMENT_3D('',#1396,#1134,#1135);
#1022=AXIS2_PLACEMENT_3D('',#1399,#1137,#1138);
#1023=AXIS2_PLACEMENT_3D('',#1400,#1139,#1140);
#1024=AXIS2_PLACEMENT_3D('',#1403,#1141,#1142);
#1025=AXIS2_PLACEMENT_3D('',#1407,#1144,#1145);
#1026=AXIS2_PLACEMENT_3D('',#1411,#1147,#1148);
#1027=AXIS2_PLACEMENT_3D('',#1413,#1150,#1151);
#1028=AXIS2_PLACEMENT_3D('',#1418,#1154,#1155);
#1029=AXIS2_PLACEMENT_3D('',#1419,#1156,#1157);
#1030=AXIS2_PLACEMENT_3D('',#1425,#1160,#1161);
#1031=AXIS2_PLACEMENT_3D('',#1428,#1163,#1164);
#1032=AXIS2_PLACEMENT_3D('',#1429,#1165,#1166);
#1033=AXIS2_PLACEMENT_3D('',#1435,#1170,#1171);
#1034=AXIS2_PLACEMENT_3D('',#1437,#1172,#1173);
#1035=AXIS2_PLACEMENT_3D('',#1439,#1174,#1175);
#1036=AXIS2_PLACEMENT_3D('',#1441,#1177,#1178);
#1037=AXIS2_PLACEMENT_3D('',#1447,#1182,#1183);
#1038=AXIS2_PLACEMENT_3D('',#1449,#1184,#1185);
#1039=AXIS2_PLACEMENT_3D('',#1451,#1186,#1187);
#1040=AXIS2_PLACEMENT_3D('',#1453,#1189,#1190);
#1041=AXIS2_PLACEMENT_3D('',#1456,#1193,#1194);
#1042=AXIS2_PLACEMENT_3D('',#1458,#1196,#1197);
#1043=AXIS2_PLACEMENT_3D('',#1468,#1203,#1204);
#1044=AXIS2_PLACEMENT_3D('',#1474,#1208,#1209);
#1045=AXIS2_PLACEMENT_3D('',#1478,#1212,#1213);
#1046=AXIS2_PLACEMENT_3D('',#1482,#1216,#1217);
#1047=AXIS2_PLACEMENT_3D('',#1484,#1219,#1220);
#1048=AXIS2_PLACEMENT_3D('',#1493,#1225,#1226);
#1049=AXIS2_PLACEMENT_3D('',#1499,#1230,#1231);
#1050=AXIS2_PLACEMENT_3D('',#1503,#1234,#1235);
#1051=AXIS2_PLACEMENT_3D('',#1507,#1238,#1239);
#1052=AXIS2_PLACEMENT_3D('',#1509,#1241,#1242);
#1053=AXIS2_PLACEMENT_3D('',#1510,#1243,#1244);
#1054=AXIS2_PLACEMENT_3D('',#1512,#1245,#1246);
#1055=AXIS2_PLACEMENT_3D('',#1515,#1248,#1249);
#1056=AXIS2_PLACEMENT_3D('',#1516,#1250,#1251);
#1057=AXIS2_PLACEMENT_3D('',#1518,#1252,#1253);
#1058=AXIS2_PLACEMENT_3D('',#1521,#1255,#1256);
#1059=AXIS2_PLACEMENT_3D('',#1522,#1257,#1258);
#1060=AXIS2_PLACEMENT_3D('',#1524,#1259,#1260);
#1061=AXIS2_PLACEMENT_3D('',#1527,#1262,#1263);
#1062=AXIS2_PLACEMENT_3D('',#1528,#1264,#1265);
#1063=AXIS2_PLACEMENT_3D('',#1530,#1266,#1267);
#1064=AXIS2_PLACEMENT_3D('',#1533,#1269,#1270);
#1065=AXIS2_PLACEMENT_3D('',#1534,#1271,#1272);
#1066=AXIS2_PLACEMENT_3D('',#1543,#1277,#1278);
#1067=AXIS2_PLACEMENT_3D('',#1549,#1282,#1283);
#1068=AXIS2_PLACEMENT_3D('',#1555,#1287,#1288);
#1069=AXIS2_PLACEMENT_3D('',#1558,#1291,#1292);
#1070=AXIS2_PLACEMENT_3D('',#1560,#1293,#1294);
#1071=AXIS2_PLACEMENT_3D('',#1563,#1296,#1297);
#1072=AXIS2_PLACEMENT_3D('',#1564,#1298,#1299);
#1073=AXIS2_PLACEMENT_3D('',#1566,#1300,#1301);
#1074=AXIS2_PLACEMENT_3D('',#1569,#1303,#1304);
#1075=AXIS2_PLACEMENT_3D('',#1570,#1305,#1306);
#1076=AXIS2_PLACEMENT_3D('',#1579,#1311,#1312);
#1077=AXIS2_PLACEMENT_3D('',#1585,#1316,#1317);
#1078=AXIS2_PLACEMENT_3D('',#1591,#1321,#1322);
#1079=AXIS2_PLACEMENT_3D('',#1594,#1325,#1326);
#1080=AXIS2_PLACEMENT_3D('',#1603,#1331,#1332);
#1081=AXIS2_PLACEMENT_3D('',#1609,#1336,#1337);
#1082=AXIS2_PLACEMENT_3D('',#1615,#1341,#1342);
#1083=AXIS2_PLACEMENT_3D('',#1618,#1345,#1346);
#1084=AXIS2_PLACEMENT_3D('',#1619,#1347,#1348);
#1085=DIRECTION('axis',(0.,0.,1.));
#1086=DIRECTION('refdir',(1.,0.,0.));
#1087=DIRECTION('center_axis',(0.,1.,0.));
#1088=DIRECTION('ref_axis',(-1.,0.,0.));
#1089=DIRECTION('',(-1.,0.,0.));
#1090=DIRECTION('',(0.,0.,1.));
#1091=DIRECTION('',(-1.,0.,0.));
#1092=DIRECTION('',(0.,0.,1.));
#1093=DIRECTION('center_axis',(1.,0.,0.));
#1094=DIRECTION('ref_axis',(0.,1.,0.));
#1095=DIRECTION('',(0.,1.,0.));
#1096=DIRECTION('',(0.,1.,0.));
#1097=DIRECTION('',(0.,0.,1.));
#1098=DIRECTION('center_axis',(0.,-1.,0.));
#1099=DIRECTION('ref_axis',(1.,0.,0.));
#1100=DIRECTION('',(1.,0.,0.));
#1101=DIRECTION('',(1.,0.,0.));
#1102=DIRECTION('',(0.,0.,1.));
#1103=DIRECTION('center_axis',(-1.,0.,0.));
#1104=DIRECTION('ref_axis',(0.,-1.,0.));
#1105=DIRECTION('',(0.,-1.,0.));
#1106=DIRECTION('',(0.,-1.,0.));
#1107=DIRECTION('center_axis',(0.,0.,1.));
#1108=DIRECTION('ref_axis',(1.,0.,0.));
#1109=DIRECTION('center_axis',(0.,0.,1.));
#1110=DIRECTION('ref_axis',(1.,0.,0.));
#1111=DIRECTION('center_axis',(0.,0.,-1.));
#1112=DIRECTION('ref_axis',(-1.,0.,0.));
#1113=DIRECTION('center_axis',(0.,0.,-1.));
#1114=DIRECTION('ref_axis',(-1.,0.,0.));
#1115=DIRECTION('',(0.,0.,-1.));
#1116=DIRECTION('center_axis',(0.,0.,1.));
#1117=DIRECTION('ref_axis',(-1.,0.,0.));
#1118=DIRECTION('center_axis',(0.,0.,-1.));
#1119=DIRECTION('ref_axis',(-1.,0.,0.));
#1120=DIRECTION('center_axis',(0.,0.,-1.));
#1121=DIRECTION('ref_axis',(-1.,0.,0.));
#1122=DIRECTION('',(0.,0.,-1.));
#1123=DIRECTION('center_axis',(0.,0.,1.));
#1124=DIRECTION('ref_axis',(-1.,0.,0.));
#1125=DIRECTION('center_axis',(0.,0.,-1.));
#1126=DIRECTION('ref_axis',(-1.,0.,0.));
#1127=DIRECTION('center_axis',(0.,0.,-1.));
#1128=DIRECTION('ref_axis',(-1.,0.,0.));
#1129=DIRECTION('',(0.,0.,-1.));
#1130=DIRECTION('center_axis',(0.,0.,1.));
#1131=DIRECTION('ref_axis',(-1.,0.,0.));
#1132=DIRECTION('center_axis',(0.,0.,-1.));
#1133=DIRECTION('ref_axis',(-1.,0.,0.));
#1134=DIRECTION('center_axis',(0.,0.,-1.));
#1135=DIRECTION('ref_axis',(-1.,0.,0.));
#1136=DIRECTION('',(0.,0.,-1.));
#1137=DIRECTION('center_axis',(0.,0.,1.));
#1138=DIRECTION('ref_axis',(-1.,0.,0.));
#1139=DIRECTION('center_axis',(1.,0.,0.));
#1140=DIRECTION('ref_axis',(0.,1.,0.));
#1141=DIRECTION('center_axis',(-1.,0.,0.));
#1142=DIRECTION('ref_axis',(0.,1.,0.));
#1143=DIRECTION('',(1.,0.,0.));
#1144=DIRECTION('center_axis',(1.,-2.42267147981426E-17,0.));
#1145=DIRECTION('ref_axis',(0.,1.,0.));
#1146=DIRECTION('',(1.,0.,0.));
#1147=DIRECTION('center_axis',(1.,0.,0.));
#1148=DIRECTION('ref_axis',(0.,1.,0.));
#1149=DIRECTION('',(1.,0.,0.));
#1150=DIRECTION('center_axis',(-1.,0.,0.));
#1151=DIRECTION('ref_axis',(0.,-1.,0.));
#1152=DIRECTION('',(0.,-1.,0.));
#1153=DIRECTION('',(0.,1.,0.));
#1154=DIRECTION('center_axis',(1.,0.,0.));
#1155=DIRECTION('ref_axis',(0.,0.,-1.));
#1156=DIRECTION('center_axis',(1.,0.,0.));
#1157=DIRECTION('ref_axis',(0.,0.,-1.));
#1158=DIRECTION('',(-1.,0.,0.));
#1159=DIRECTION('',(1.,0.,0.));
#1160=DIRECTION('center_axis',(1.,-2.42267147981426E-17,0.));
#1161=DIRECTION('ref_axis',(0.,0.,-1.));
#1162=DIRECTION('',(1.,0.,0.));
#1163=DIRECTION('center_axis',(-1.,0.,0.));
#1164=DIRECTION('ref_axis',(0.,0.,-1.));
#1165=DIRECTION('center_axis',(0.,-1.,0.));
#1166=DIRECTION('ref_axis',(0.,0.,-1.));
#1167=DIRECTION('',(0.,0.,1.));
#1168=DIRECTION('',(0.,0.,-1.));
#1169=DIRECTION('',(1.,0.,0.));
#1170=DIRECTION('center_axis',(1.,0.,0.));
#1171=DIRECTION('ref_axis',(0.,-1.,0.));
#1172=DIRECTION('center_axis',(-1.,0.,0.));
#1173=DIRECTION('ref_axis',(0.,-1.,0.));
#1174=DIRECTION('center_axis',(1.,-2.42267147981426E-17,0.));
#1175=DIRECTION('ref_axis',(0.,-1.,0.));
#1176=DIRECTION('',(1.,0.,0.));
#1177=DIRECTION('center_axis',(0.,0.,1.));
#1178=DIRECTION('ref_axis',(0.,-1.,0.));
#1179=DIRECTION('',(0.,1.,0.));
#1180=DIRECTION('',(-2.42267147981426E-17,-1.,0.));
#1181=DIRECTION('',(1.,0.,0.));
#1182=DIRECTION('center_axis',(1.,0.,0.));
#1183=DIRECTION('ref_axis',(0.,0.,1.));
#1184=DIRECTION('center_axis',(-1.,0.,0.));
#1185=DIRECTION('ref_axis',(0.,0.,1.));
#1186=DIRECTION('center_axis',(1.,-2.42267147981426E-17,0.));
#1187=DIRECTION('ref_axis',(0.,0.,1.));
#1188=DIRECTION('',(1.,0.,0.));
#1189=DIRECTION('center_axis',(0.,1.,0.));
#1190=DIRECTION('ref_axis',(0.,0.,1.));
#1191=DIRECTION('',(0.,0.,-1.));
#1192=DIRECTION('',(0.,0.,1.));
#1193=DIRECTION('center_axis',(0.,0.,-1.));
#1194=DIRECTION('ref_axis',(0.,1.,0.));
#1195=DIRECTION('',(2.42267147981426E-17,1.,0.));
#1196=DIRECTION('center_axis',(0.,0.,1.));
#1197=DIRECTION('ref_axis',(1.,0.,0.));
#1198=DIRECTION('',(0.,-1.,0.));
#1199=DIRECTION('',(1.,5.09869763838714E-17,0.));
#1200=DIRECTION('',(0.,1.,0.));
#1201=DIRECTION('',(-1.,0.,0.));
#1202=DIRECTION('',(0.,-1.,0.));
#1203=DIRECTION('center_axis',(0.,-1.,0.));
#1204=DIRECTION('ref_axis',(1.,0.,0.));
#1205=DIRECTION('',(0.,0.,1.));
#1206=DIRECTION('',(1.,0.,0.));
#1207=DIRECTION('',(0.,0.,1.));
#1208=DIRECTION('center_axis',(-1.,0.,0.));
#1209=DIRECTION('ref_axis',(0.,-1.,0.));
#1210=DIRECTION('',(0.,0.,1.));
#1211=DIRECTION('',(0.,-1.,0.));
#1212=DIRECTION('center_axis',(1.,0.,0.));
#1213=DIRECTION('ref_axis',(0.,1.,0.));
#1214=DIRECTION('',(0.,1.,0.));
#1215=DIRECTION('',(0.,0.,1.));
#1216=DIRECTION('center_axis',(-5.09869763838714E-17,1.,0.));
#1217=DIRECTION('ref_axis',(-1.,-5.09869763838714E-17,0.));
#1218=DIRECTION('',(-1.,-5.09869763838714E-17,0.));
#1219=DIRECTION('center_axis',(0.,0.,1.));
#1220=DIRECTION('ref_axis',(1.,0.,0.));
#1221=DIRECTION('',(-1.,0.,0.));
#1222=DIRECTION('',(-2.42267147981426E-17,-1.,0.));
#1223=DIRECTION('',(1.,0.,0.));
#1224=DIRECTION('',(0.,1.,0.));
#1225=DIRECTION('center_axis',(1.,0.,0.));
#1226=DIRECTION('ref_axis',(0.,1.,0.));
#1227=DIRECTION('',(0.,-1.,0.));
#1228=DIRECTION('',(0.,0.,1.));
#1229=DIRECTION('',(0.,0.,1.));
#1230=DIRECTION('center_axis',(0.,-1.,0.));
#1231=DIRECTION('ref_axis',(1.,0.,0.));
#1232=DIRECTION('',(-1.,0.,0.));
#1233=DIRECTION('',(0.,0.,1.));
#1234=DIRECTION('center_axis',(-1.,2.42267147981426E-17,0.));
#1235=DIRECTION('ref_axis',(-2.42267147981426E-17,-1.,0.));
#1236=DIRECTION('',(2.42267147981426E-17,1.,0.));
#1237=DIRECTION('',(0.,0.,1.));
#1238=DIRECTION('center_axis',(0.,1.,0.));
#1239=DIRECTION('ref_axis',(-1.,0.,0.));
#1240=DIRECTION('',(1.,0.,0.));
#1241=DIRECTION('center_axis',(0.,0.,1.));
#1242=DIRECTION('ref_axis',(1.,0.,0.));
#1243=DIRECTION('center_axis',(0.,0.,-1.));
#1244=DIRECTION('ref_axis',(-1.,0.,0.));
#1245=DIRECTION('center_axis',(0.,0.,-1.));
#1246=DIRECTION('ref_axis',(-1.,0.,0.));
#1247=DIRECTION('',(0.,0.,-1.));
#1248=DIRECTION('center_axis',(0.,0.,1.));
#1249=DIRECTION('ref_axis',(-1.,0.,0.));
#1250=DIRECTION('center_axis',(0.,0.,-1.));
#1251=DIRECTION('ref_axis',(-1.,0.,0.));
#1252=DIRECTION('center_axis',(0.,0.,-1.));
#1253=DIRECTION('ref_axis',(-1.,0.,0.));
#1254=DIRECTION('',(0.,0.,-1.));
#1255=DIRECTION('center_axis',(0.,0.,1.));
#1256=DIRECTION('ref_axis',(-1.,0.,0.));
#1257=DIRECTION('center_axis',(0.,0.,-1.));
#1258=DIRECTION('ref_axis',(-1.,0.,0.));
#1259=DIRECTION('center_axis',(0.,0.,-1.));
#1260=DIRECTION('ref_axis',(-1.,0.,0.));
#1261=DIRECTION('',(0.,0.,-1.));
#1262=DIRECTION('center_axis',(0.,0.,1.));
#1263=DIRECTION('ref_axis',(-1.,0.,0.));
#1264=DIRECTION('center_axis',(0.,0.,-1.));
#1265=DIRECTION('ref_axis',(-1.,0.,0.));
#1266=DIRECTION('center_axis',(0.,0.,-1.));
#1267=DIRECTION('ref_axis',(-1.,0.,0.));
#1268=DIRECTION('',(0.,0.,-1.));
#1269=DIRECTION('center_axis',(0.,0.,1.));
#1270=DIRECTION('ref_axis',(-1.,0.,0.));
#1271=DIRECTION('center_axis',(-1.,0.,0.));
#1272=DIRECTION('ref_axis',(0.,1.,0.));
#1273=DIRECTION('',(0.,1.,0.));
#1274=DIRECTION('',(0.,0.,-1.));
#1275=DIRECTION('',(0.,-1.,0.));
#1276=DIRECTION('',(0.,0.,-1.));
#1277=DIRECTION('center_axis',(0.,-1.,0.));
#1278=DIRECTION('ref_axis',(-1.,0.,0.));
#1279=DIRECTION('',(-1.,0.,0.));
#1280=DIRECTION('',(0.,0.,-1.));
#1281=DIRECTION('',(1.,0.,0.));
#1282=DIRECTION('center_axis',(1.,0.,0.));
#1283=DIRECTION('ref_axis',(0.,-1.,0.));
#1284=DIRECTION('',(0.,-1.,0.));
#1285=DIRECTION('',(0.,0.,-1.));
#1286=DIRECTION('',(0.,1.,0.));
#1287=DIRECTION('center_axis',(0.,1.,0.));
#1288=DIRECTION('ref_axis',(1.,0.,0.));
#1289=DIRECTION('',(1.,0.,0.));
#1290=DIRECTION('',(-1.,0.,0.));
#1291=DIRECTION('center_axis',(0.,0.,-1.));
#1292=DIRECTION('ref_axis',(-1.,0.,0.));
#1293=DIRECTION('center_axis',(0.,0.,-1.));
#1294=DIRECTION('ref_axis',(-1.,0.,0.));
#1295=DIRECTION('',(0.,0.,-1.));
#1296=DIRECTION('center_axis',(0.,0.,1.));
#1297=DIRECTION('ref_axis',(-1.,0.,0.));
#1298=DIRECTION('center_axis',(0.,0.,-1.));
#1299=DIRECTION('ref_axis',(-1.,0.,0.));
#1300=DIRECTION('center_axis',(0.,0.,-1.));
#1301=DIRECTION('ref_axis',(-1.,0.,0.));
#1302=DIRECTION('',(0.,0.,-1.));
#1303=DIRECTION('center_axis',(0.,0.,1.));
#1304=DIRECTION('ref_axis',(-1.,0.,0.));
#1305=DIRECTION('center_axis',(0.,1.,0.));
#1306=DIRECTION('ref_axis',(-1.,0.,0.));
#1307=DIRECTION('',(-1.,0.,0.));
#1308=DIRECTION('',(0.,0.,1.));
#1309=DIRECTION('',(-1.,0.,0.));
#1310=DIRECTION('',(0.,0.,1.));
#1311=DIRECTION('center_axis',(-1.,0.,0.));
#1312=DIRECTION('ref_axis',(0.,-1.,0.));
#1313=DIRECTION('',(0.,-1.,0.));
#1314=DIRECTION('',(0.,-1.,0.));
#1315=DIRECTION('',(0.,0.,1.));
#1316=DIRECTION('center_axis',(0.,-1.,0.));
#1317=DIRECTION('ref_axis',(1.,0.,0.));
#1318=DIRECTION('',(1.,0.,0.));
#1319=DIRECTION('',(1.,0.,0.));
#1320=DIRECTION('',(0.,0.,1.));
#1321=DIRECTION('center_axis',(1.,0.,0.));
#1322=DIRECTION('ref_axis',(0.,1.,0.));
#1323=DIRECTION('',(0.,1.,0.));
#1324=DIRECTION('',(0.,1.,0.));
#1325=DIRECTION('center_axis',(0.,1.,0.));
#1326=DIRECTION('ref_axis',(-1.,0.,0.));
#1327=DIRECTION('',(-1.,0.,0.));
#1328=DIRECTION('',(0.,0.,1.));
#1329=DIRECTION('',(-1.,0.,0.));
#1330=DIRECTION('',(0.,0.,1.));
#1331=DIRECTION('center_axis',(1.,0.,0.));
#1332=DIRECTION('ref_axis',(0.,1.,0.));
#1333=DIRECTION('',(0.,1.,0.));
#1334=DIRECTION('',(0.,1.,0.));
#1335=DIRECTION('',(0.,0.,1.));
#1336=DIRECTION('center_axis',(0.,-1.,0.));
#1337=DIRECTION('ref_axis',(1.,0.,0.));
#1338=DIRECTION('',(1.,0.,0.));
#1339=DIRECTION('',(1.,0.,0.));
#1340=DIRECTION('',(0.,0.,1.));
#1341=DIRECTION('center_axis',(-1.,0.,0.));
#1342=DIRECTION('ref_axis',(0.,-1.,0.));
#1343=DIRECTION('',(0.,-1.,0.));
#1344=DIRECTION('',(0.,-1.,0.));
#1345=DIRECTION('center_axis',(0.,0.,1.));
#1346=DIRECTION('ref_axis',(1.,0.,0.));
#1347=DIRECTION('center_axis',(0.,0.,1.));
#1348=DIRECTION('ref_axis',(-1.,0.,0.));
#1349=CARTESIAN_POINT('',(0.,0.,0.));
#1350=CARTESIAN_POINT('Origin',(42.35,70.45,3.));
#1351=CARTESIAN_POINT('',(42.35,70.45,3.));
#1352=CARTESIAN_POINT('',(0.,70.45,3.));
#1353=CARTESIAN_POINT('',(42.35,70.45,3.));
#1354=CARTESIAN_POINT('',(0.,70.45,4.4));
#1355=CARTESIAN_POINT('',(0.,70.45,3.));
#1356=CARTESIAN_POINT('',(42.35,70.45,4.4));
#1357=CARTESIAN_POINT('',(42.35,70.45,4.4));
#1358=CARTESIAN_POINT('',(42.35,70.45,3.));
#1359=CARTESIAN_POINT('Origin',(42.35,0.,3.));
#1360=CARTESIAN_POINT('',(42.35,0.,3.));
#1361=CARTESIAN_POINT('',(42.35,0.,3.));
#1362=CARTESIAN_POINT('',(42.35,0.,4.4));
#1363=CARTESIAN_POINT('',(42.35,0.,4.4));
#1364=CARTESIAN_POINT('',(42.35,0.,3.));
#1365=CARTESIAN_POINT('Origin',(0.,0.,3.));
#1366=CARTESIAN_POINT('',(0.,0.,3.));
#1367=CARTESIAN_POINT('',(0.,0.,3.));
#1368=CARTESIAN_POINT('',(0.,0.,4.4));
#1369=CARTESIAN_POINT('',(0.,0.,4.4));
#1370=CARTESIAN_POINT('',(0.,0.,3.));
#1371=CARTESIAN_POINT('Origin',(0.,70.45,3.));
#1372=CARTESIAN_POINT('',(0.,70.45,3.));
#1373=CARTESIAN_POINT('',(0.,70.45,4.4));
#1374=CARTESIAN_POINT('Origin',(21.175,35.225,4.4));
#1375=CARTESIAN_POINT('Origin',(21.175,35.225,3.));
#1376=CARTESIAN_POINT('Origin',(47.0000007003546,75.0000011175871,16.));
#1377=CARTESIAN_POINT('',(48.4500007003546,75.0000011175871,13.));
#1378=CARTESIAN_POINT('Origin',(47.0000007003546,75.0000011175871,13.));
#1379=CARTESIAN_POINT('',(48.4500007003546,75.0000011175871,0.));
#1380=CARTESIAN_POINT('',(48.4500007003546,75.0000011175871,16.));
#1381=CARTESIAN_POINT('Origin',(47.0000007003546,75.0000011175871,0.));
#1382=CARTESIAN_POINT('Origin',(47.0000007003546,-5.00000007450581,16.));
#1383=CARTESIAN_POINT('',(48.4500007003546,-5.00000007450581,13.));
#1384=CARTESIAN_POINT('Origin',(47.0000007003546,-5.00000007450581,13.));
#1385=CARTESIAN_POINT('',(48.4500007003546,-5.00000007450581,0.));
#1386=CARTESIAN_POINT('',(48.4500007003546,-5.00000007450581,16.));
#1387=CARTESIAN_POINT('Origin',(47.0000007003546,-5.00000007450581,0.));
#1388=CARTESIAN_POINT('Origin',(-5.00000007450581,75.0000011175871,16.));
#1389=CARTESIAN_POINT('',(-3.5500000745058,75.0000011175871,13.));
#1390=CARTESIAN_POINT('Origin',(-5.00000007450581,75.0000011175871,13.));
#1391=CARTESIAN_POINT('',(-3.5500000745058,75.0000011175871,0.));
#1392=CARTESIAN_POINT('',(-3.5500000745058,75.0000011175871,16.));
#1393=CARTESIAN_POINT('Origin',(-5.00000007450581,75.0000011175871,0.));
#1394=CARTESIAN_POINT('Origin',(-5.00000007450581,-5.00000007450581,16.));
#1395=CARTESIAN_POINT('',(-3.55000007450581,-5.00000007450581,13.));
#1396=CARTESIAN_POINT('Origin',(-5.00000007450581,-5.00000007450581,13.));
#1397=CARTESIAN_POINT('',(-3.55000007450581,-5.00000007450581,0.));
#1398=CARTESIAN_POINT('',(-3.55000007450581,-5.00000007450581,16.));
#1399=CARTESIAN_POINT('Origin',(-5.00000007450581,-5.00000007450581,0.));
#1400=CARTESIAN_POINT('Origin',(-10.6066017177982,38.846190158901,3.66335034984391));
#1401=CARTESIAN_POINT('',(-0.608111831820425,39.546190158901,3.66335034984391));
#1402=CARTESIAN_POINT('',(-0.608111831820426,39.0697216183468,3.));
#1403=CARTESIAN_POINT('Origin',(-0.608111831820425,38.846190158901,3.66335034984391));
#1404=CARTESIAN_POINT('',(-10.6066017177982,39.546190158901,3.66335034984391));
#1405=CARTESIAN_POINT('',(-10.6066017177982,39.546190158901,3.66335034984391));
#1406=CARTESIAN_POINT('',(-10.6066017177982,38.846190158901,2.96335034984391));
#1407=CARTESIAN_POINT('Origin',(-10.6066017177982,38.846190158901,3.66335034984391));
#1408=CARTESIAN_POINT('',(-0.60660171779821,38.846190158901,2.96335034984391));
#1409=CARTESIAN_POINT('',(-10.6066017177982,38.846190158901,2.96335034984391));
#1410=CARTESIAN_POINT('',(-0.60660171779821,39.0697216183468,3.));
#1411=CARTESIAN_POINT('Origin',(-0.60660171779821,38.846190158901,3.66335034984391));
#1412=CARTESIAN_POINT('',(-10.6066017177982,39.0697216183468,3.));
#1413=CARTESIAN_POINT('Origin',(-0.60660171779821,35.546190158901,4.46335034984391));
#1414=CARTESIAN_POINT('',(-0.60660171779821,32.0226586994552,3.));
#1415=CARTESIAN_POINT('',(-0.60660171779821,35.3829921897262,3.));
#1416=CARTESIAN_POINT('',(-0.60660171779821,32.246190158901,2.96335034984391));
#1417=CARTESIAN_POINT('',(-0.60660171779821,32.246190158901,2.96335034984391));
#1418=CARTESIAN_POINT('Origin',(-0.60660171779821,32.246190158901,3.66335034984391));
#1419=CARTESIAN_POINT('Origin',(-10.6066017177982,32.246190158901,3.66335034984391));
#1420=CARTESIAN_POINT('',(-0.608111831820426,32.0226586994552,3.));
#1421=CARTESIAN_POINT('',(-10.6066017177982,32.0226586994552,3.));
#1422=CARTESIAN_POINT('',(-10.6066017177982,32.246190158901,2.96335034984391));
#1423=CARTESIAN_POINT('',(-10.6066017177982,32.246190158901,2.96335034984391));
#1424=CARTESIAN_POINT('',(-10.6066017177982,31.546190158901,3.66335034984391));
#1425=CARTESIAN_POINT('Origin',(-10.6066017177982,32.246190158901,3.66335034984391));
#1426=CARTESIAN_POINT('',(-0.608111831820425,31.546190158901,3.66335034984391));
#1427=CARTESIAN_POINT('',(-10.6066017177982,31.546190158901,3.66335034984391));
#1428=CARTESIAN_POINT('Origin',(-0.608111831820425,32.246190158901,3.66335034984391));
#1429=CARTESIAN_POINT('Origin',(-10.6066017177982,31.546190158901,5.26335034984392));
#1430=CARTESIAN_POINT('',(-0.608111831820425,31.546190158901,5.26335034984392));
#1431=CARTESIAN_POINT('',(-0.608111831820425,31.546190158901,2.63167517492196));
#1432=CARTESIAN_POINT('',(-10.6066017177982,31.546190158901,5.26335034984392));
#1433=CARTESIAN_POINT('',(-10.6066017177982,31.546190158901,2.63167517492196));
#1434=CARTESIAN_POINT('',(-10.6066017177982,31.546190158901,5.26335034984392));
#1435=CARTESIAN_POINT('Origin',(-10.6066017177982,32.246190158901,5.26335034984392));
#1436=CARTESIAN_POINT('',(-0.608111831820425,32.246190158901,5.96335034984392));
#1437=CARTESIAN_POINT('Origin',(-0.608111831820425,32.246190158901,5.26335034984392));
#1438=CARTESIAN_POINT('',(-10.6066017177982,32.246190158901,5.96335034984392));
#1439=CARTESIAN_POINT('Origin',(-10.6066017177982,32.246190158901,5.26335034984392));
#1440=CARTESIAN_POINT('',(-10.6066017177982,32.246190158901,5.96335034984392));
#1441=CARTESIAN_POINT('Origin',(-10.6066017177982,38.846190158901,5.96335034984392));
#1442=CARTESIAN_POINT('',(-0.608111831820425,38.846190158901,5.96335034984392));
#1443=CARTESIAN_POINT('',(-0.608111831820425,19.1190391635403,5.96335034984392));
#1444=CARTESIAN_POINT('',(-10.6066017177982,38.846190158901,5.96335034984392));
#1445=CARTESIAN_POINT('',(-10.6066017177982,59.946190158901,5.96335034984392));
#1446=CARTESIAN_POINT('',(-10.6066017177982,38.846190158901,5.96335034984392));
#1447=CARTESIAN_POINT('Origin',(-10.6066017177982,38.846190158901,5.26335034984392));
#1448=CARTESIAN_POINT('',(-0.608111831820425,39.546190158901,5.26335034984392));
#1449=CARTESIAN_POINT('Origin',(-0.608111831820425,38.846190158901,5.26335034984392));
#1450=CARTESIAN_POINT('',(-10.6066017177982,39.546190158901,5.26335034984392));
#1451=CARTESIAN_POINT('Origin',(-10.6066017177982,38.846190158901,5.26335034984392));
#1452=CARTESIAN_POINT('',(-10.6066017177982,39.546190158901,5.26335034984392));
#1453=CARTESIAN_POINT('Origin',(-10.6066017177982,39.546190158901,3.66335034984391));
#1454=CARTESIAN_POINT('',(-0.608111831820425,39.546190158901,1.83167517492196));
#1455=CARTESIAN_POINT('',(-10.6066017177982,39.546190158901,1.83167517492196));
#1456=CARTESIAN_POINT('Origin',(-10.6066017177982,32.246190158901,2.96335034984391));
#1457=CARTESIAN_POINT('',(-10.6066017177982,56.646190158901,2.96335034984391));
#1458=CARTESIAN_POINT('Origin',(21.1665275636694,35.2197942205514,3.));
#1459=CARTESIAN_POINT('',(-0.608111831820425,-0.60811183182043,3.));
#1460=CARTESIAN_POINT('',(-0.608111831820426,17.3058411943655,3.));
#1461=CARTESIAN_POINT('',(42.9411669591593,-0.608111831820428,3.));
#1462=CARTESIAN_POINT('',(32.0538472614144,-0.60811183182043,3.));
#1463=CARTESIAN_POINT('',(42.9411669591593,71.0477002729233,3.));
#1464=CARTESIAN_POINT('',(42.9411669591593,53.1337472467373,3.));
#1465=CARTESIAN_POINT('',(-0.608111831820425,71.0477002729233,3.));
#1466=CARTESIAN_POINT('',(10.2792078659245,71.0477002729233,3.));
#1467=CARTESIAN_POINT('',(-0.608111831820426,17.3058411943655,3.));
#1468=CARTESIAN_POINT('Origin',(-0.608111831820425,71.0477002729233,0.));
#1469=CARTESIAN_POINT('',(42.9411669591593,71.0477002729233,13.));
#1470=CARTESIAN_POINT('',(42.9411669591593,71.0477002729233,0.));
#1471=CARTESIAN_POINT('',(-0.608111831820422,71.0477002729233,13.));
#1472=CARTESIAN_POINT('',(-0.608111831820425,71.0477002729233,13.));
#1473=CARTESIAN_POINT('',(-0.608111831820425,71.0477002729233,0.));
#1474=CARTESIAN_POINT('Origin',(42.9411669591593,71.0477002729233,0.));
#1475=CARTESIAN_POINT('',(42.9411669591593,-0.608111831820428,13.));
#1476=CARTESIAN_POINT('',(42.9411669591593,-0.608111831820428,0.));
#1477=CARTESIAN_POINT('',(42.9411669591593,71.0477002729233,13.));
#1478=CARTESIAN_POINT('Origin',(-0.608111831820425,-0.60811183182043,0.));
#1479=CARTESIAN_POINT('',(-0.608111831820422,-0.60811183182043,13.));
#1480=CARTESIAN_POINT('',(-0.608111831820425,-0.60811183182043,13.));
#1481=CARTESIAN_POINT('',(-0.608111831820425,-0.60811183182043,0.));
#1482=CARTESIAN_POINT('Origin',(42.9411669591593,-0.608111831820428,0.));
#1483=CARTESIAN_POINT('',(42.9411669591593,-0.608111831820428,13.));
#1484=CARTESIAN_POINT('Origin',(21.1665275636694,35.2197942205514,13.));
#1485=CARTESIAN_POINT('',(52.9396568451371,81.046190158901,13.));
#1486=CARTESIAN_POINT('',(-10.6066017177982,81.046190158901,13.));
#1487=CARTESIAN_POINT('',(-10.6066017177982,81.046190158901,13.));
#1488=CARTESIAN_POINT('',(-10.6066017177982,-10.6066017177982,13.));
#1489=CARTESIAN_POINT('',(-10.6066017177982,-10.6066017177982,13.));
#1490=CARTESIAN_POINT('',(52.9396568451371,-10.6066017177982,13.));
#1491=CARTESIAN_POINT('',(52.9396568451371,-10.6066017177982,13.));
#1492=CARTESIAN_POINT('',(52.9396568451371,81.046190158901,13.));
#1493=CARTESIAN_POINT('Origin',(52.9396568451371,-10.6066017177982,0.));
#1494=CARTESIAN_POINT('',(52.9396568451371,81.046190158901,0.));
#1495=CARTESIAN_POINT('',(52.9396568451371,-10.6066017177982,0.));
#1496=CARTESIAN_POINT('',(52.9396568451371,81.046190158901,0.));
#1497=CARTESIAN_POINT('',(52.9396568451371,81.046190158901,0.));
#1498=CARTESIAN_POINT('',(52.9396568451371,-10.6066017177982,0.));
#1499=CARTESIAN_POINT('Origin',(-10.6066017177982,-10.6066017177982,0.));
#1500=CARTESIAN_POINT('',(-10.6066017177982,-10.6066017177982,0.));
#1501=CARTESIAN_POINT('',(52.9396568451371,-10.6066017177982,0.));
#1502=CARTESIAN_POINT('',(-10.6066017177982,-10.6066017177982,0.));
#1503=CARTESIAN_POINT('Origin',(-10.6066017177982,81.046190158901,0.));
#1504=CARTESIAN_POINT('',(-10.6066017177982,81.046190158901,0.));
#1505=CARTESIAN_POINT('',(-10.6066017177982,-10.6066017177982,0.));
#1506=CARTESIAN_POINT('',(-10.6066017177982,81.046190158901,0.));
#1507=CARTESIAN_POINT('Origin',(52.9396568451371,81.046190158901,0.));
#1508=CARTESIAN_POINT('',(-10.6066017177982,81.046190158901,0.));
#1509=CARTESIAN_POINT('Origin',(21.1665275636694,35.2197942205514,0.));
#1510=CARTESIAN_POINT('Origin',(47.0000007003546,75.0000011175871,16.));
#1511=CARTESIAN_POINT('',(48.4500007003546,75.0000011175871,16.));
#1512=CARTESIAN_POINT('Origin',(47.0000007003546,75.0000011175871,16.));
#1513=CARTESIAN_POINT('',(48.4500007003546,75.0000011175871,13.));
#1514=CARTESIAN_POINT('',(48.4500007003546,75.0000011175871,16.));
#1515=CARTESIAN_POINT('Origin',(47.0000007003546,75.0000011175871,13.));
#1516=CARTESIAN_POINT('Origin',(47.0000007003546,-5.00000007450581,16.));
#1517=CARTESIAN_POINT('',(48.4500007003546,-5.00000007450581,16.));
#1518=CARTESIAN_POINT('Origin',(47.0000007003546,-5.00000007450581,16.));
#1519=CARTESIAN_POINT('',(48.4500007003546,-5.00000007450581,13.));
#1520=CARTESIAN_POINT('',(48.4500007003546,-5.00000007450581,16.));
#1521=CARTESIAN_POINT('Origin',(47.0000007003546,-5.00000007450581,13.));
#1522=CARTESIAN_POINT('Origin',(-5.00000007450581,75.0000011175871,16.));
#1523=CARTESIAN_POINT('',(-3.5500000745058,75.0000011175871,16.));
#1524=CARTESIAN_POINT('Origin',(-5.00000007450581,75.0000011175871,16.));
#1525=CARTESIAN_POINT('',(-3.5500000745058,75.0000011175871,13.));
#1526=CARTESIAN_POINT('',(-3.5500000745058,75.0000011175871,16.));
#1527=CARTESIAN_POINT('Origin',(-5.00000007450581,75.0000011175871,13.));
#1528=CARTESIAN_POINT('Origin',(-5.00000007450581,-5.00000007450581,16.));
#1529=CARTESIAN_POINT('',(-3.55000007450581,-5.00000007450581,16.));
#1530=CARTESIAN_POINT('Origin',(-5.00000007450581,-5.00000007450581,16.));
#1531=CARTESIAN_POINT('',(-3.55000007450581,-5.00000007450581,13.));
#1532=CARTESIAN_POINT('',(-3.55000007450581,-5.00000007450581,16.));
#1533=CARTESIAN_POINT('Origin',(-5.00000007450581,-5.00000007450581,13.));
#1534=CARTESIAN_POINT('Origin',(2.00000002980232,15.0000002235174,16.));
#1535=CARTESIAN_POINT('',(2.00000002980232,15.0000002235174,16.));
#1536=CARTESIAN_POINT('',(2.00000002980232,55.0000008195639,16.));
#1537=CARTESIAN_POINT('',(2.00000002980232,25.1098972220344,16.));
#1538=CARTESIAN_POINT('',(2.00000002980232,15.0000002235174,13.));
#1539=CARTESIAN_POINT('',(2.00000002980232,15.0000002235174,16.));
#1540=CARTESIAN_POINT('',(2.00000002980232,55.0000008195639,13.));
#1541=CARTESIAN_POINT('',(2.00000002980232,25.1098972220344,13.));
#1542=CARTESIAN_POINT('',(2.00000002980232,55.0000008195639,16.));
#1543=CARTESIAN_POINT('Origin',(15.0000002235174,15.0000002235174,16.));
#1544=CARTESIAN_POINT('',(15.0000002235174,15.0000002235174,16.));
#1545=CARTESIAN_POINT('',(18.0832638935934,15.0000002235174,16.));
#1546=CARTESIAN_POINT('',(15.0000002235174,15.0000002235174,13.));
#1547=CARTESIAN_POINT('',(15.0000002235174,15.0000002235174,16.));
#1548=CARTESIAN_POINT('',(18.0832638935934,15.0000002235174,13.));
#1549=CARTESIAN_POINT('Origin',(15.0000002235174,55.0000008195639,16.));
#1550=CARTESIAN_POINT('',(15.0000002235174,55.0000008195639,16.));
#1551=CARTESIAN_POINT('',(15.0000002235174,45.1098975200576,16.));
#1552=CARTESIAN_POINT('',(15.0000002235174,55.0000008195639,13.));
#1553=CARTESIAN_POINT('',(15.0000002235174,55.0000008195639,16.));
#1554=CARTESIAN_POINT('',(15.0000002235174,45.1098975200576,13.));
#1555=CARTESIAN_POINT('Origin',(2.00000002980232,55.0000008195639,16.));
#1556=CARTESIAN_POINT('',(11.5832637967359,55.0000008195639,16.));
#1557=CARTESIAN_POINT('',(11.5832637967359,55.0000008195639,13.));
#1558=CARTESIAN_POINT('Origin',(10.0000001490116,5.00000007450581,16.));
#1559=CARTESIAN_POINT('',(15.0000001490116,5.00000007450581,16.));
#1560=CARTESIAN_POINT('Origin',(10.0000001490116,5.00000007450581,16.));
#1561=CARTESIAN_POINT('',(15.0000001490116,5.00000007450581,13.));
#1562=CARTESIAN_POINT('',(15.0000001490116,5.00000007450581,16.));
#1563=CARTESIAN_POINT('Origin',(10.0000001490116,5.00000007450581,13.));
#1564=CARTESIAN_POINT('Origin',(10.0000001490116,65.0000009685755,16.));
#1565=CARTESIAN_POINT('',(15.0000001490116,65.0000009685755,16.));
#1566=CARTESIAN_POINT('Origin',(10.0000001490116,65.0000009685755,16.));
#1567=CARTESIAN_POINT('',(15.0000001490116,65.0000009685755,13.));
#1568=CARTESIAN_POINT('',(15.0000001490116,65.0000009685755,16.));
#1569=CARTESIAN_POINT('Origin',(10.0000001490116,65.0000009685755,13.));
#1570=CARTESIAN_POINT('Origin',(42.9411669591593,-0.608111831820429,13.));
#1571=CARTESIAN_POINT('',(42.9411669591593,-0.608111831820429,13.));
#1572=CARTESIAN_POINT('',(21.6261492766467,-0.60811183182043,13.));
#1573=CARTESIAN_POINT('',(21.6261492766467,-0.608111831820429,13.));
#1574=CARTESIAN_POINT('',(21.6261492766467,-0.60811183182043,16.));
#1575=CARTESIAN_POINT('',(21.6261492766467,-0.60811183182043,13.));
#1576=CARTESIAN_POINT('',(42.9411669591593,-0.608111831820429,16.));
#1577=CARTESIAN_POINT('',(21.6261492766467,-0.608111831820429,16.));
#1578=CARTESIAN_POINT('',(42.9411669591593,-0.608111831820429,13.));
#1579=CARTESIAN_POINT('Origin',(42.9411669591593,71.0477002729233,13.));
#1580=CARTESIAN_POINT('',(42.9411669591593,71.0477002729233,13.));
#1581=CARTESIAN_POINT('',(42.9411669591593,-0.608111831820429,13.));
#1582=CARTESIAN_POINT('',(42.9411669591593,71.0477002729233,16.));
#1583=CARTESIAN_POINT('',(42.9411669591593,-0.608111831820429,16.));
#1584=CARTESIAN_POINT('',(42.9411669591593,71.0477002729233,13.));
#1585=CARTESIAN_POINT('Origin',(21.6261492766467,71.0477002729233,13.));
#1586=CARTESIAN_POINT('',(21.6261492766467,71.0477002729233,13.));
#1587=CARTESIAN_POINT('',(42.9411669591593,71.0477002729233,13.));
#1588=CARTESIAN_POINT('',(21.6261492766467,71.0477002729233,16.));
#1589=CARTESIAN_POINT('',(42.9411669591593,71.0477002729233,16.));
#1590=CARTESIAN_POINT('',(21.6261492766467,71.0477002729233,13.));
#1591=CARTESIAN_POINT('Origin',(21.6261492766467,-0.60811183182043,13.));
#1592=CARTESIAN_POINT('',(21.6261492766467,71.0477002729233,13.));
#1593=CARTESIAN_POINT('',(21.6261492766467,71.0477002729233,16.));
#1594=CARTESIAN_POINT('Origin',(52.9396568451371,81.046190158901,13.));
#1595=CARTESIAN_POINT('',(52.9396568451371,81.046190158901,13.));
#1596=CARTESIAN_POINT('',(-10.6066017177982,81.046190158901,13.));
#1597=CARTESIAN_POINT('',(52.9396568451371,81.046190158901,13.));
#1598=CARTESIAN_POINT('',(-10.6066017177982,81.046190158901,16.));
#1599=CARTESIAN_POINT('',(-10.6066017177982,81.046190158901,13.));
#1600=CARTESIAN_POINT('',(52.9396568451371,81.046190158901,16.));
#1601=CARTESIAN_POINT('',(52.9396568451371,81.046190158901,16.));
#1602=CARTESIAN_POINT('',(52.9396568451371,81.046190158901,13.));
#1603=CARTESIAN_POINT('Origin',(52.9396568451371,-10.6066017177982,13.));
#1604=CARTESIAN_POINT('',(52.9396568451371,-10.6066017177982,13.));
#1605=CARTESIAN_POINT('',(52.9396568451371,-10.6066017177982,13.));
#1606=CARTESIAN_POINT('',(52.9396568451371,-10.6066017177982,16.));
#1607=CARTESIAN_POINT('',(52.9396568451371,-10.6066017177982,16.));
#1608=CARTESIAN_POINT('',(52.9396568451371,-10.6066017177982,13.));
#1609=CARTESIAN_POINT('Origin',(-10.6066017177982,-10.6066017177982,13.));
#1610=CARTESIAN_POINT('',(-10.6066017177982,-10.6066017177982,13.));
#1611=CARTESIAN_POINT('',(-10.6066017177982,-10.6066017177982,13.));
#1612=CARTESIAN_POINT('',(-10.6066017177982,-10.6066017177982,16.));
#1613=CARTESIAN_POINT('',(-10.6066017177982,-10.6066017177982,16.));
#1614=CARTESIAN_POINT('',(-10.6066017177982,-10.6066017177982,13.));
#1615=CARTESIAN_POINT('Origin',(-10.6066017177982,81.046190158901,13.));
#1616=CARTESIAN_POINT('',(-10.6066017177982,81.046190158901,13.));
#1617=CARTESIAN_POINT('',(-10.6066017177982,81.046190158901,16.));
#1618=CARTESIAN_POINT('Origin',(21.1665275636694,35.2197942205514,16.));
#1619=CARTESIAN_POINT('Origin',(21.1665275636694,35.2197942205514,13.));
#1620=UNCERTAINTY_MEASURE_WITH_UNIT(LENGTH_MEASURE(0.01),#1624,
'DISTANCE_ACCURACY_VALUE',
'Maximum model space distance between geometric entities at asserted c
onnectivities');
#1621=UNCERTAINTY_MEASURE_WITH_UNIT(LENGTH_MEASURE(0.01),#1624,
'DISTANCE_ACCURACY_VALUE',
'Maximum model space distance between geometric entities at asserted c
onnectivities');
#1622=(
GEOMETRIC_REPRESENTATION_CONTEXT(3)
GLOBAL_UNCERTAINTY_ASSIGNED_CONTEXT((#1620))
GLOBAL_UNIT_ASSIGNED_CONTEXT((#1624,#1626,#1627))
REPRESENTATION_CONTEXT('','3D')
);
#1623=(
GEOMETRIC_REPRESENTATION_CONTEXT(3)
GLOBAL_UNCERTAINTY_ASSIGNED_CONTEXT((#1621))
GLOBAL_UNIT_ASSIGNED_CONTEXT((#1624,#1626,#1627))
REPRESENTATION_CONTEXT('','3D')
);
#1624=(
LENGTH_UNIT()
NAMED_UNIT(*)
SI_UNIT(.MILLI.,.METRE.)
);
#1625=(
LENGTH_UNIT()
NAMED_UNIT(*)
SI_UNIT($,.METRE.)
);
#1626=(
NAMED_UNIT(*)
PLANE_ANGLE_UNIT()
SI_UNIT($,.RADIAN.)
);
#1627=(
NAMED_UNIT(*)
SI_UNIT($,.STERADIAN.)
SOLID_ANGLE_UNIT()
);
#1628=SHAPE_DEFINITION_REPRESENTATION(#1629,#1630);
#1629=PRODUCT_DEFINITION_SHAPE('',$,#1632);
#1630=SHAPE_REPRESENTATION('',(#1004),#1622);
#1631=PRODUCT_DEFINITION_CONTEXT('part definition',#1636,'design');
#1632=PRODUCT_DEFINITION('2026-07-30-03-06-00-775','iFlight.Xing.2207',
#1633,#1631);
#1633=PRODUCT_DEFINITION_FORMATION('',$,#1638);
#1634=PRODUCT_RELATED_PRODUCT_CATEGORY('iFlight.Xing.2207',
'iFlight.Xing.2207',(#1638));
#1635=APPLICATION_PROTOCOL_DEFINITION('international standard',
'automotive_design',2009,#1636);
#1636=APPLICATION_CONTEXT(
'Core Data for Automotive Mechanical Design Process');
#1637=PRODUCT_CONTEXT('part definition',#1636,'mechanical');
#1638=PRODUCT('2026-07-30-03-06-00-775','iFlight.Xing.2207',$,(#1637));
#1639=PRESENTATION_STYLE_ASSIGNMENT((#1640));
#1640=SURFACE_STYLE_USAGE(.BOTH.,#1641);
#1641=SURFACE_SIDE_STYLE('',(#1642));
#1642=SURFACE_STYLE_FILL_AREA(#1643);
#1643=FILL_AREA_STYLE('Steel - Satin',(#1644));
#1644=FILL_AREA_STYLE_COLOUR('Steel - Satin',#1645);
#1645=COLOUR_RGB('Steel - Satin',0.627450980392157,0.627450980392157,0.627450980392157);
ENDSEC;
END-ISO-10303-21;
